<svg xmlns="http://www.w3.org/2000/svg" width="74.962" height="96.728" viewBox="0 0 74.962 96.728"><g transform="translate(-838.449 -745.073)"><g transform="translate(839.276 745.826)"><path d="M850.548,751.293l5.561,12.324a1.633,1.633,0,0,0,1.651.9l11.1-1.2a2.945,2.945,0,0,0,1.985-1.06l1.36-1.755a1.088,1.088,0,0,0,.122-1.13l-5.687-12.6" transform="translate(-846.011 -746.389)" fill="none" stroke="#313131" stroke-linejoin="round" stroke-width="1.5"/><path d="M888.456,813.226c.227.5-.508,1.2-1.641,1.554s-2.237.234-2.464-.27l-12.118-26.857,4.467-.483Zm7.238-.687-12.081-26.775a3,3,0,0,1-1.8.853l-2.383.258,12.16,26.948c.227.5,1.33.624,2.464.269S895.921,813.042,895.693,812.539Z" transform="translate(-858.967 -769.688)" fill="none" stroke="#313131" stroke-linejoin="round" stroke-width="1.5"/><path d="M912.275,880.932c-6.276-13.485-14.379-28.772-21.431-40.91-4.2-7.237-10.616-10.117-15.227-9.747a8.418,8.418,0,0,0-3.159.987L876,839.115c.227.5-.508,1.2-1.642,1.553s-2.237.234-2.464-.269l-3.012-6.675a18.56,18.56,0,0,0-1.977,1.962l1.857,4.116c.227.5-.508,1.2-1.642,1.554s-2.237.234-2.464-.27l-.7-1.541c-3.228,4.737-6.673,11.23-10.487,18.2-6.6,12.073-12.324,22.842-14.055,26.112a1.253,1.253,0,0,0,.442,1.648c10.741,6.744,30.772,6.686,47.242,4.858a201.966,201.966,0,0,0,22.54-4.031A3.872,3.872,0,0,0,912.275,880.932Z" transform="translate(-839.276 -796.264)" fill="none" stroke="#313131" stroke-miterlimit="10" stroke-width="1.5"/><path d="M866.074,745.829l-5.411.635a1.026,1.026,0,0,1,.343.4c.344.763-.55,1.748-2,2.2s-2.9.2-3.244-.562c-.221-.491.072-1.073.694-1.547l-3.128.367a1.068,1.068,0,0,0-.72.385l-2.107,2.663c-.2.246.057.6.4.563l11.921-1.4a2.947,2.947,0,0,0,1.985-1.061l1.657-2.094C866.656,746.139,866.409,745.79,866.074,745.829Z" transform="translate(-845.944 -745.826)" fill="none" stroke="#313131" stroke-linejoin="round" stroke-width="1.5"/><line x2="1.052" y2="2.332" transform="translate(10.516 1.131)" fill="none" stroke="#313131" stroke-linejoin="round" stroke-width="1.5"/></g></g></svg>