<svg xmlns="http://www.w3.org/2000/svg" width="116.684" height="37.778" viewBox="0 0 116.684 37.778"><path d="M698.47,721.449H600.4a9.317,9.317,0,0,1-9.305-9.306V692.976a9.316,9.316,0,0,1,9.305-9.305H698.47a9.316,9.316,0,0,1,9.305,9.305v19.167A9.316,9.316,0,0,1,698.47,721.449Zm-98.073-35.2a6.738,6.738,0,0,0-6.73,6.731v19.167a6.738,6.738,0,0,0,6.73,6.732H698.47a6.738,6.738,0,0,0,6.731-6.732V692.976a6.738,6.738,0,0,0-6.731-6.731Zm95.3,22.317a1.287,1.287,0,0,0-1.287-1.287H680.063a1.287,1.287,0,0,0,0,2.575h14.342A1.287,1.287,0,0,0,695.693,708.563Z" transform="translate(-591.092 -683.671)" fill="#313131"/></svg>