<svg xmlns="http://www.w3.org/2000/svg" width="189.5" height="98.64" viewBox="0 0 189.5 98.64"><g transform="translate(-291.75 -143)"><g transform="translate(292 174.947)"><g transform="translate(4.772 4.406)"><g transform="translate(158.201)"><path d="M296.274,8.26v7.416H276.646V8.26h19.628m.81-.81H275.83v9.036h21.254V7.45Z" transform="translate(-275.83 -7.45)" fill="#313131" stroke="#313131" stroke-width="0.5"/></g><g transform="translate(145.931)"><path d="M263.306,8.26v7.416H255.89V8.26h7.416m.816-.81H255.08v9.036h9.042V7.45Z" transform="translate(-255.08 -7.45)" fill="#313131" stroke="#313131" stroke-width="0.5"/></g><g transform="translate(133.791)"><path d="M235.31,8.26h7.416v7.416H235.31V8.26m-.81-.81v9.042h9.042V7.45Z" transform="translate(-234.5 -7.45)" fill="#313131" stroke="#313131" stroke-width="0.5"/></g><g transform="translate(121.625)"><path d="M222.136,8.26v7.416H214.72V8.26h7.416m.816-.81H213.91v9.042h9.042V7.45Z" transform="translate(-213.91 -7.45)" fill="#313131" stroke="#313131" stroke-width="0.5"/></g><g transform="translate(109.459)"><path d="M201.552,8.26v7.416h-7.416V8.26h7.416m.81-.81H193.32v9.042h9.042V7.45Z" transform="translate(-193.32 -7.45)" fill="#313131" stroke="#313131" stroke-width="0.5"/></g><g transform="translate(97.305)"><path d="M180.97,8.26v7.416h-7.416V8.26h7.416m.816-.81H172.75v9.042h9.036V7.45Z" transform="translate(-172.75 -7.45)" fill="#313131" stroke="#313131" stroke-width="0.5"/></g><g transform="translate(85.133)"><path d="M160.382,8.26v7.416h-7.416V8.26h7.416m.81-.81H152.15v9.042h9.042V7.45Z" transform="translate(-152.15 -7.45)" fill="#313131" stroke="#313131" stroke-width="0.5"/></g><g transform="translate(72.973)"><path d="M139.8,8.26v7.416h-7.416V8.26H139.8m.81-.81H131.57v9.042h9.042V7.45Z" transform="translate(-131.57 -7.45)" fill="#313131" stroke="#313131" stroke-width="0.5"/></g><g transform="translate(60.818)"><path d="M119.22,8.26v7.416H111.8V8.26h7.416m.816-.81H111v9.042h9.036V7.45Z" transform="translate(-111 -7.45)" fill="#313131" stroke="#313131" stroke-width="0.5"/></g><g transform="translate(48.652)"><path d="M98.636,8.26v7.416H91.22V8.26h7.416m.81-.81H90.41v9.042h9.042V7.45Z" transform="translate(-90.41 -7.45)" fill="#313131" stroke="#313131" stroke-width="0.5"/></g><g transform="translate(36.486)"><path d="M78.046,8.26v7.416h-7.41V8.26h7.41m.816-.81H69.82v9.042h9.042V7.45Z" transform="translate(-69.82 -7.45)" fill="#313131" stroke="#313131" stroke-width="0.5"/></g><g transform="translate(24.347)"><path d="M57.466,8.26v7.416H50.05V8.26h7.416m.81-.81H49.24v9.042h9.042V7.45Z" transform="translate(-49.24 -7.45)" fill="#313131" stroke="#313131" stroke-width="0.5"/></g><g transform="translate(12.17)"><path d="M36.876,8.26v7.416h-7.41V8.26h7.41m.816-.81H28.65v9.042h9.042V7.45Z" transform="translate(-28.65 -7.45)" fill="#313131" stroke="#313131" stroke-width="0.5"/></g><g transform="translate(152.134 12.181)"><path d="M273.79,28.88V36.3h-7.416V28.88h7.416m.816-.81H265.57v9.042h9.036V28.07Z" transform="translate(-265.57 -28.07)" fill="#313131" stroke="#313131" stroke-width="0.5"/></g><path d="M300.438,28.88V36.3h-13.6V28.88h13.6m.81-.81H286.02v9.042h15.228V28.07Z" transform="translate(-121.792 -15.889)" fill="#313131" stroke="#313131" stroke-width="0.5"/><g transform="translate(139.977 12.181)"><path d="M253.2,28.88V36.3h-7.416V28.88H253.2m.81-.81H244.97v9.042h9.042V28.07Z" transform="translate(-244.97 -28.07)" fill="#313131" stroke="#313131" stroke-width="0.5"/></g><g transform="translate(127.817 12.181)"><path d="M232.616,28.88V36.3H225.2V28.88h7.416m.816-.81H224.39v9.042h9.042V28.07Z" transform="translate(-224.39 -28.07)" fill="#313131" stroke="#313131" stroke-width="0.5"/></g><g transform="translate(115.657 12.181)"><path d="M212.036,28.88V36.3H204.62V28.88h7.416m.81-.81H203.81v9.042h9.036V28.07Z" transform="translate(-203.81 -28.07)" fill="#313131" stroke="#313131" stroke-width="0.5"/></g><g transform="translate(103.491 12.181)"><path d="M191.446,28.88V36.3h-7.41V28.88h7.41m.816-.81H183.22v9.042h9.042V28.07Z" transform="translate(-183.22 -28.07)" fill="#313131" stroke="#313131" stroke-width="0.5"/></g><g transform="translate(91.331 12.181)"><path d="M170.866,28.88V36.3H163.45V28.88h7.416m.81-.81H162.64v9.042h9.036V28.07Z" transform="translate(-162.64 -28.07)" fill="#313131" stroke="#313131" stroke-width="0.5"/></g><g transform="translate(79.165 12.181)"><path d="M150.282,28.88V36.3h-7.416V28.88h7.416m.81-.81H142.05v9.042h9.042V28.07Z" transform="translate(-142.05 -28.07)" fill="#313131" stroke="#313131" stroke-width="0.5"/></g><g transform="translate(67.005 12.181)"><path d="M129.7,28.88V36.3H122.28V28.88H129.7m.816-.81H121.47v9.042h9.042V28.07Z" transform="translate(-121.47 -28.07)" fill="#313131" stroke="#313131" stroke-width="0.5"/></g><g transform="translate(54.839 12.181)"><path d="M109.112,28.88V36.3H101.7V28.88h7.416m.81-.81H100.88v9.042h9.042V28.07Z" transform="translate(-100.88 -28.07)" fill="#313131" stroke="#313131" stroke-width="0.5"/></g><g transform="translate(42.679 12.181)"><path d="M88.526,28.88V36.3H81.11V28.88h7.416m.816-.81H80.3v9.036h9.042V28.07Z" transform="translate(-80.3 -28.07)" fill="#313131" stroke="#313131" stroke-width="0.5"/></g><g transform="translate(30.519 12.181)"><path d="M60.53,28.88h7.416V36.3H60.53V28.88m-.81-.81v9.042h9.036V28.07Z" transform="translate(-59.72 -28.07)" fill="#313131" stroke="#313131" stroke-width="0.5"/></g><g transform="translate(18.368 12.181)"><path d="M47.356,28.88V36.3h-7.41V28.88h7.41m.816-.81H39.13v9.042h9.036V28.07Z" transform="translate(-39.13 -28.07)" fill="#313131" stroke="#313131" stroke-width="0.5"/></g><g transform="translate(142.353 24.363)"><path d="M257.216,49.5v7.416H249.8V49.5h7.416m.816-.81H248.99v9.042h9.042V48.69Z" transform="translate(-248.99 -48.69)" fill="#313131" stroke="#313131" stroke-width="0.5"/></g><g transform="translate(130.187 24.363)"><path d="M236.632,49.5v7.416h-7.416V49.5h7.416m.81-.81H228.4v9.042h9.042V48.69Z" transform="translate(-228.4 -48.69)" fill="#313131" stroke="#313131" stroke-width="0.5"/></g><g transform="translate(118.027 24.363)"><path d="M216.046,49.5v7.416h-7.41V49.5h7.41m.816-.81H207.82v9.042h9.042V48.69Z" transform="translate(-207.82 -48.69)" fill="#313131" stroke="#313131" stroke-width="0.5"/></g><g transform="translate(105.866 24.363)"><path d="M195.466,49.5v7.416H188.05V49.5h7.416m.81-.81H187.24v9.036h9.036V48.69Z" transform="translate(-187.24 -48.69)" fill="#313131" stroke="#313131" stroke-width="0.5"/></g><g transform="translate(93.7 24.363)"><path d="M174.882,49.5v7.416h-7.416V49.5h7.416m.81-.81H166.65v9.036h9.042V48.69Z" transform="translate(-166.65 -48.69)" fill="#313131" stroke="#313131" stroke-width="0.5"/></g><g transform="translate(81.54 24.363)"><path d="M146.886,49.5H154.3v7.416h-7.416V49.5m-.816-.81v9.042h9.042V48.69Z" transform="translate(-146.07 -48.69)" fill="#313131" stroke="#313131" stroke-width="0.5"/></g><g transform="translate(69.38 24.363)"><path d="M133.716,49.5v7.416H126.3V49.5h7.416m.81-.81H125.49v9.042h9.036V48.69Z" transform="translate(-125.49 -48.69)" fill="#313131" stroke="#313131" stroke-width="0.5"/></g><g transform="translate(57.214 24.363)"><path d="M113.126,49.5v7.416H105.71V49.5h7.416m.816-.81H104.9v9.042h9.042V48.69Z" transform="translate(-104.9 -48.69)" fill="#313131" stroke="#313131" stroke-width="0.5"/></g><g transform="translate(45.054 24.363)"><path d="M92.546,49.5v7.416H85.13V49.5h7.416m.81-.81H84.32v9.042h9.036V48.69Z" transform="translate(-84.32 -48.69)" fill="#313131" stroke="#313131" stroke-width="0.5"/></g><g transform="translate(32.894 24.363)"><path d="M71.966,49.5v7.416H64.55V49.5h7.416m.81-.81H63.74v9.042h9.036V48.69Z" transform="translate(-63.74 -48.69)" fill="#313131" stroke="#313131" stroke-width="0.5"/></g><g transform="translate(20.745 24.363)"><path d="M51.376,49.5v7.416h-7.41V49.5h7.41m.816-.81H43.15v9.042h9.042V48.69Z" transform="translate(-43.15 -48.69)" fill="#313131" stroke="#313131" stroke-width="0.5"/></g><g transform="translate(136.81 36.479)"><path d="M247.836,70.01v7.416H240.42V70.01h7.416m.81-.81H239.61v9.042h9.042l-.006-9.042Z" transform="translate(-239.61 -69.2)" fill="#313131" stroke="#313131" stroke-width="0.5"/></g><g transform="translate(124.644 36.479)"><path d="M227.246,70.01v7.416h-7.41V70.01h7.41m.816-.81H219.02v9.036h9.042V69.2Z" transform="translate(-219.02 -69.2)" fill="#313131" stroke="#313131" stroke-width="0.5"/></g><g transform="translate(112.478 36.479)"><path d="M206.662,70.01v7.416h-7.416V70.01h7.416m.81-.81H198.43v9.036h9.042V69.2Z" transform="translate(-198.43 -69.2)" fill="#313131" stroke="#313131" stroke-width="0.5"/></g><g transform="translate(100.318 36.479)"><path d="M186.076,70.01v7.416H178.66V70.01h7.416m.816-.81H177.85v9.036h9.042V69.2Z" transform="translate(-177.85 -69.2)" fill="#313131" stroke="#313131" stroke-width="0.5"/></g><g transform="translate(88.158 36.479)"><path d="M158.08,70.01H165.5v7.416H158.08V70.01m-.81-.81v9.042h9.042V69.2Z" transform="translate(-157.27 -69.2)" fill="#313131" stroke="#313131" stroke-width="0.5"/></g><g transform="translate(75.992 36.479)"><path d="M144.912,70.01v7.416H137.5V70.01h7.416m.81-.81H136.68v9.042h9.042V69.2Z" transform="translate(-136.68 -69.2)" fill="#313131" stroke="#313131" stroke-width="0.5"/></g><g transform="translate(63.832 36.479)"><path d="M124.326,70.01v7.416H116.91V70.01h7.416m.816-.81H116.1v9.042h9.042V69.2Z" transform="translate(-116.1 -69.2)" fill="#313131" stroke="#313131" stroke-width="0.5"/></g><g transform="translate(51.672 36.479)"><path d="M103.746,70.01v7.416H96.33V70.01h7.416m.81-.81H95.52v9.042h9.042V69.2Z" transform="translate(-95.52 -69.2)" fill="#313131" stroke="#313131" stroke-width="0.5"/></g><g transform="translate(39.506 36.479)"><path d="M83.156,70.01v7.416h-7.41V70.01h7.41m.816-.81H74.93v9.042h9.042V69.2Z" transform="translate(-74.93 -69.2)" fill="#313131" stroke="#313131" stroke-width="0.5"/></g><g transform="translate(27.346 36.479)"><path d="M62.576,70.01v7.416H55.16V70.01h7.416m.81-.81H54.35v9.042h9.042V69.2Z" transform="translate(-54.35 -69.2)" fill="#313131" stroke="#313131" stroke-width="0.5"/></g><path d="M18.182,90.516v7.416h-9.3V90.516h9.3M19,89.7H8.07v9.042H19V89.7Z" transform="translate(-8.07 -41.11)" fill="#313131" stroke="#313131" stroke-width="0.5"/><g transform="translate(16.227 48.59)"><path d="M36.32,90.516h7.416v7.416H36.32V90.516m-.81-.816v9.042h9.042V89.7Z" transform="translate(-35.51 -89.7)" fill="#313131" stroke="#313131" stroke-width="0.5"/></g><g transform="translate(31.476 48.596)"><path d="M69.572,90.52v7.416H62.156V90.52h7.416m.81-.81H61.34v9.042h9.042V89.71Z" transform="translate(-61.34 -89.71)" fill="#313131" stroke="#313131" stroke-width="0.5"/></g><path d="M156.635,90.52v7.416H87.87V90.52h68.764m.81-.81H87.06v9.042h70.385V89.71Z" transform="translate(-40.409 -41.114)" fill="#313131" stroke="#313131" stroke-width="0.5"/><g transform="translate(122.754 48.596)"><path d="M224.046,90.52v7.416H216.63V90.52h7.416m.81-.81H215.82v9.042h9.036V89.71Z" transform="translate(-215.82 -89.71)" fill="#313131" stroke="#313131" stroke-width="0.5"/></g><g transform="translate(138.022 48.596)"><path d="M249.886,90.52v7.416H242.47V90.52h7.416m.816-.81H241.66v9.042H250.7V89.71Z" transform="translate(-241.66 -89.71)" fill="#313131" stroke="#313131" stroke-width="0.5"/></g><g transform="translate(153.275 48.596)"><path d="M275.726,90.52v7.416H268.31V90.52h7.416m.816-.81H267.5v9.042h9.042V89.71Z" transform="translate(-267.5 -89.71)" fill="#313131" stroke="#313131" stroke-width="0.5"/></g><g transform="translate(168.556 48.596)"><path d="M294.156,90.52h7.416v7.416h-7.416V90.52m-.816-.81v9.042h9.042V89.71Z" transform="translate(-293.34 -89.71)" fill="#313131" stroke="#313131" stroke-width="0.5"/></g><path d="M21.133,28.88V36.3H8.886V28.88H21.133m.816-.81H8.07v9.042H21.944V28.07Z" transform="translate(-8.07 -15.889)" fill="#313131" stroke="#313131" stroke-width="0.5"/><path d="M24.2,49.5v7.416H8.886V49.5H24.2m.816-.81H8.07v9.042H25.013V48.69Z" transform="translate(-8.07 -24.327)" fill="#313131" stroke="#313131" stroke-width="0.5"/><path d="M16.3,8.26v7.416H8.886V8.26H16.3m.816-.81H8.07v9.042h9.042V7.45Z" transform="translate(-8.07 -7.45)" fill="#313131" stroke="#313131" stroke-width="0.5"/><path d="M271.4,49.39h22.732v7.416H271.4V49.39m-.81-.81v9.042h24.359V48.58Z" transform="translate(-115.487 -24.282)" fill="#313131" stroke="#313131" stroke-width="0.5"/><path d="M289.932,70.01v7.416H261.126V70.01h28.806m.81-.81H260.31v9.042h30.432V69.2Z" transform="translate(-111.287 -32.721)" fill="#313131" stroke="#313131" stroke-width="0.5"/><path d="M30.755,70.01v7.416H8.886V70.01H30.755m.816-.81H8.07v9.042h23.5V69.2Z" transform="translate(-8.07 -32.721)" fill="#313131" stroke="#313131" stroke-width="0.5"/></g><path d="M4.054,66.443H184.946A4.053,4.053,0,0,0,189,62.389V4.054A4.053,4.053,0,0,0,184.946,0H4.054A4.053,4.053,0,0,0,0,4.054V62.389A4.053,4.053,0,0,0,4.054,66.443ZM.833,4.054A3.228,3.228,0,0,1,4.054.833h180.9a3.224,3.224,0,0,1,3.221,3.221V62.389a3.224,3.224,0,0,1-3.221,3.221H4.054A3.224,3.224,0,0,1,.833,62.389Z" transform="translate(0 0)" fill="#313131" stroke="#313131" stroke-width="0.5"/></g><rect width="1.604" height="31.644" transform="translate(385.209 143)" fill="#313131"/></g></svg>