<svg xmlns="http://www.w3.org/2000/svg" width="99" height="117.764" viewBox="0 0 99 117.764"><g transform="translate(-417 -146.999)"><g transform="translate(-1108.711 142.504)"><g transform="translate(1533.713 23.483)"><g transform="translate(7.482 30.745)"><g transform="translate(0 17.702)"><g transform="translate(26.783)"><path d="M1622.587,173.912l-.894,1.549H1619.9l-.894-1.549.894-1.549h1.788Z" transform="translate(-1619.01 -172.363)" fill="#313131"/><path d="M1621.693,181.918H1619.9l-.894,1.549.894,1.549h1.788l.894-1.549Z" transform="translate(-1619.01 -178.08)" fill="#313131"/><path d="M1621.693,191.473H1619.9l-.894,1.549.894,1.549h1.788l.894-1.549Z" transform="translate(-1619.01 -183.796)" fill="#313131"/><path d="M1621.693,201.028H1619.9l-.894,1.549.894,1.549h1.788l.894-1.549Z" transform="translate(-1619.01 -189.513)" fill="#313131"/><path d="M1621.693,210.583H1619.9l-.894,1.549.894,1.549h1.788l.894-1.549Z" transform="translate(-1619.01 -195.23)" fill="#313131"/><path d="M1621.693,220.138H1619.9l-.894,1.549.894,1.549h1.788l.894-1.549Z" transform="translate(-1619.01 -200.946)" fill="#313131"/><path d="M1621.693,229.693H1619.9l-.894,1.549.894,1.549h1.788l.894-1.549Z" transform="translate(-1619.01 -206.663)" fill="#313131"/><path d="M1621.693,239.248H1619.9l-.894,1.549.894,1.549h1.788l.894-1.549Z" transform="translate(-1619.01 -212.379)" fill="#313131"/><path d="M1621.693,248.8H1619.9l-.894,1.549.894,1.549h1.788l.894-1.549Z" transform="translate(-1619.01 -218.096)" fill="#313131"/><path d="M1621.693,267.913H1619.9l-.894,1.549.894,1.549h1.788l.894-1.549Z" transform="translate(-1619.01 -229.529)" fill="#313131"/><path d="M1621.693,277.468H1619.9l-.894,1.549.894,1.549h1.788l.894-1.549Z" transform="translate(-1619.01 -235.246)" fill="#313131"/></g><g transform="translate(33.479 3.838)"><path d="M1637.6,181.918h-1.033l-.894,1.549.894,1.549h1.033Z" transform="translate(-1635.678 -181.918)" fill="#313131"/><path d="M1637.6,191.473h-1.033l-.894,1.549.894,1.549h1.033Z" transform="translate(-1635.678 -187.635)" fill="#313131"/><path d="M1637.6,201.028h-1.033l-.894,1.549.894,1.549h1.033Z" transform="translate(-1635.678 -193.351)" fill="#313131"/><path d="M1637.6,210.583h-1.033l-.894,1.549.894,1.549h1.033Z" transform="translate(-1635.678 -199.068)" fill="#313131"/><path d="M1638.361,229.693h-1.789l-.894,1.549.894,1.549h1.789l.894-1.549Z" transform="translate(-1635.678 -210.501)" fill="#313131"/><path d="M1638.361,239.248h-1.789l-.894,1.549.894,1.549h1.789l.894-1.549Z" transform="translate(-1635.678 -216.218)" fill="#313131"/><path d="M1638.361,248.8h-1.789l-.894,1.549.894,1.549h1.789l.894-1.549Z" transform="translate(-1635.678 -221.934)" fill="#313131"/></g><g transform="translate(20.087 3.838)"><path d="M1605.025,181.918h-1.789l-.894,1.549.894,1.549h1.789l.894-1.549Z" transform="translate(-1602.342 -181.918)" fill="#313131"/><path d="M1605.025,191.473h-1.789l-.894,1.549.894,1.549h1.789l.894-1.549Z" transform="translate(-1602.342 -187.635)" fill="#313131"/><path d="M1605.025,201.028h-1.789l-.894,1.549.894,1.549h1.789l.894-1.549Z" transform="translate(-1602.342 -193.351)" fill="#313131"/><path d="M1605.025,210.583h-1.789l-.894,1.549.894,1.549h1.789l.894-1.549Z" transform="translate(-1602.342 -199.068)" fill="#313131"/><path d="M1605.025,220.138h-1.789l-.894,1.549.894,1.549h1.789l.894-1.549Z" transform="translate(-1602.342 -204.785)" fill="#313131"/><path d="M1605.025,229.693h-1.789l-.894,1.549.894,1.549h1.789l.894-1.549Z" transform="translate(-1602.342 -210.501)" fill="#313131"/><path d="M1605.025,239.248h-1.789l-.894,1.549.894,1.549h1.789l.894-1.549Z" transform="translate(-1602.342 -216.218)" fill="#313131"/><path d="M1605.025,248.8h-1.789l-.894,1.549.894,1.549h1.789l.894-1.549Z" transform="translate(-1602.342 -221.934)" fill="#313131"/><path d="M1605.025,258.358h-1.789l-.894,1.549.894,1.549h1.789l.894-1.549Z" transform="translate(-1602.342 -227.651)" fill="#313131"/><path d="M1605.025,267.913h-1.789l-.894,1.549.894,1.549h1.789l.894-1.549Z" transform="translate(-1602.342 -233.368)" fill="#313131"/><path d="M1605.025,277.468h-1.789l-.894,1.549.894,1.549h1.789l.894-1.549Z" transform="translate(-1602.342 -239.084)" fill="#313131"/></g><g transform="translate(13.392 3.838)"><path d="M1588.357,181.918h-1.789l-.894,1.549.894,1.549h1.789l.894-1.549Z" transform="translate(-1585.674 -181.918)" fill="#313131"/><path d="M1588.357,191.473h-1.789l-.894,1.549.894,1.549h1.789l.894-1.549Z" transform="translate(-1585.674 -187.635)" fill="#313131"/><path d="M1588.357,201.028h-1.789l-.894,1.549.894,1.549h1.789l.894-1.549Z" transform="translate(-1585.674 -193.351)" fill="#313131"/><path d="M1588.357,210.583h-1.789l-.894,1.549.894,1.549h1.789l.894-1.549Z" transform="translate(-1585.674 -199.068)" fill="#313131"/><path d="M1588.357,220.138h-1.789l-.894,1.549.894,1.549h1.789l.894-1.549Z" transform="translate(-1585.674 -204.785)" fill="#313131"/><path d="M1588.357,229.693h-1.789l-.894,1.549.894,1.549h1.789l.894-1.549Z" transform="translate(-1585.674 -210.501)" fill="#313131"/><path d="M1588.357,239.248h-1.789l-.894,1.549.894,1.549h1.789l.894-1.549Z" transform="translate(-1585.674 -216.218)" fill="#313131"/><path d="M1588.357,248.8h-1.789l-.894,1.549.894,1.549h1.789l.894-1.549Z" transform="translate(-1585.674 -221.934)" fill="#313131"/><path d="M1588.357,258.358h-1.789l-.894,1.549.894,1.549h1.789l.894-1.549Z" transform="translate(-1585.674 -227.651)" fill="#313131"/><path d="M1588.357,267.913h-1.789l-.894,1.549.894,1.549h1.789l.894-1.549Z" transform="translate(-1585.674 -233.368)" fill="#313131"/><path d="M1588.357,277.468h-1.789l-.894,1.549.894,1.549h1.789l.894-1.549Z" transform="translate(-1585.674 -239.084)" fill="#313131"/></g><g transform="translate(6.696)"><path d="M1571.689,172.363H1569.9l-.894,1.549.894,1.549h1.788l.894-1.549Z" transform="translate(-1569.006 -172.363)" fill="#313131"/><path d="M1571.689,181.918H1569.9l-.894,1.549.894,1.549h1.788l.894-1.549Z" transform="translate(-1569.006 -178.08)" fill="#313131"/><path d="M1571.689,191.473H1569.9l-.894,1.549.894,1.549h1.788l.894-1.549Z" transform="translate(-1569.006 -183.796)" fill="#313131"/><path d="M1571.689,201.028H1569.9l-.894,1.549.894,1.549h1.788l.894-1.549Z" transform="translate(-1569.006 -189.513)" fill="#313131"/><path d="M1571.689,210.583H1569.9l-.894,1.549.894,1.549h1.788l.894-1.549Z" transform="translate(-1569.006 -195.23)" fill="#313131"/><path d="M1571.689,220.138H1569.9l-.894,1.549.894,1.549h1.788l.894-1.549Z" transform="translate(-1569.006 -200.946)" fill="#313131"/><path d="M1571.689,229.693H1569.9l-.894,1.549.894,1.549h1.788l.894-1.549Z" transform="translate(-1569.006 -206.663)" fill="#313131"/><path d="M1571.689,239.248H1569.9l-.894,1.549.894,1.549h1.788l.894-1.549Z" transform="translate(-1569.006 -212.379)" fill="#313131"/><path d="M1571.689,248.8H1569.9l-.894,1.549.894,1.549h1.788l.894-1.549Z" transform="translate(-1569.006 -218.096)" fill="#313131"/><path d="M1571.689,267.913H1569.9l-.894,1.549.894,1.549h1.788l.894-1.549Z" transform="translate(-1569.006 -229.529)" fill="#313131"/><path d="M1571.689,277.468H1569.9l-.894,1.549.894,1.549h1.788l.894-1.549Z" transform="translate(-1569.006 -235.246)" fill="#313131"/></g><g transform="translate(0 3.838)"><path d="M1557.479,181.918h-1.033v3.1h1.033l.894-1.549Z" transform="translate(-1554.796 -181.918)" fill="#313131"/><path d="M1557.479,191.473h-1.033v3.1h1.033l.894-1.549Z" transform="translate(-1554.796 -187.635)" fill="#313131"/><path d="M1557.479,201.028h-1.033v3.1h1.033l.894-1.549Z" transform="translate(-1554.796 -193.351)" fill="#313131"/><path d="M1557.479,210.583h-1.033v3.1h1.033l.894-1.549Z" transform="translate(-1554.796 -199.068)" fill="#313131"/><path d="M1555.021,229.693h-1.789l-.894,1.549.894,1.549h1.789l.894-1.549Z" transform="translate(-1552.338 -210.501)" fill="#313131"/><path d="M1555.021,239.248h-1.789l-.894,1.549.894,1.549h1.789l.894-1.549Z" transform="translate(-1552.338 -216.218)" fill="#313131"/><path d="M1555.021,248.8h-1.789l-.894,1.549.894,1.549h1.789l.894-1.549Z" transform="translate(-1552.338 -221.934)" fill="#313131"/></g><g transform="translate(23.435 2.009)"><path d="M1613.359,177.363h-1.788l-.894,1.549.894,1.549h1.788l.894-1.549Z" transform="translate(-1610.676 -177.363)" fill="#313131"/><path d="M1613.359,186.918h-1.788l-.894,1.549.894,1.549h1.788l.894-1.549Z" transform="translate(-1610.676 -183.08)" fill="#313131"/><path d="M1613.359,196.473h-1.788l-.894,1.549.894,1.549h1.788l.894-1.549Z" transform="translate(-1610.676 -188.796)" fill="#313131"/><path d="M1613.359,206.028h-1.788l-.894,1.549.894,1.549h1.788l.894-1.549Z" transform="translate(-1610.676 -194.513)" fill="#313131"/><path d="M1613.359,215.583h-1.788l-.894,1.549.894,1.549h1.788l.894-1.549Z" transform="translate(-1610.676 -200.23)" fill="#313131"/><path d="M1613.359,225.138h-1.788l-.894,1.549.894,1.549h1.788l.894-1.549Z" transform="translate(-1610.676 -205.946)" fill="#313131"/><path d="M1613.359,234.693h-1.788l-.894,1.549.894,1.549h1.788l.894-1.549Z" transform="translate(-1610.676 -211.663)" fill="#313131"/><path d="M1613.359,244.248h-1.788l-.894,1.549.894,1.549h1.788l.894-1.549Z" transform="translate(-1610.676 -217.379)" fill="#313131"/><path d="M1613.359,253.8h-1.788l-.894,1.549.894,1.549h1.788l.894-1.549Z" transform="translate(-1610.676 -223.096)" fill="#313131"/><path d="M1613.359,263.358h-1.788l-.894,1.549.894,1.549h1.788l.894-1.549Z" transform="translate(-1610.676 -228.813)" fill="#313131"/><path d="M1613.359,272.913h-1.788l-.894,1.549.894,1.549h1.788l.894-1.549Z" transform="translate(-1610.676 -234.529)" fill="#313131"/><path d="M1613.359,282.468h-1.788l-.894,1.549.894,1.549h1.788l.894-1.549Z" transform="translate(-1610.676 -240.246)" fill="#313131"/></g><g transform="translate(16.739 5.847)"><path d="M1596.691,186.918H1594.9l-.894,1.549.894,1.549h1.789l.894-1.549Z" transform="translate(-1594.008 -186.918)" fill="#313131"/><path d="M1596.691,196.473H1594.9l-.894,1.549.894,1.549h1.789l.894-1.549Z" transform="translate(-1594.008 -192.635)" fill="#313131"/><path d="M1596.691,206.028H1594.9l-.894,1.549.894,1.549h1.789l.894-1.549Z" transform="translate(-1594.008 -198.351)" fill="#313131"/><path d="M1596.691,215.583H1594.9l-.894,1.549.894,1.549h1.789l.894-1.549Z" transform="translate(-1594.008 -204.068)" fill="#313131"/><path d="M1596.691,225.138H1594.9l-.894,1.549.894,1.549h1.789l.894-1.549Z" transform="translate(-1594.008 -209.785)" fill="#313131"/><path d="M1596.691,234.693H1594.9l-.894,1.549.894,1.549h1.789l.894-1.549Z" transform="translate(-1594.008 -215.501)" fill="#313131"/><path d="M1596.691,244.248H1594.9l-.894,1.549.894,1.549h1.789l.894-1.549Z" transform="translate(-1594.008 -221.218)" fill="#313131"/><path d="M1596.691,253.8H1594.9l-.894,1.549.894,1.549h1.789l.894-1.549Z" transform="translate(-1594.008 -226.934)" fill="#313131"/><path d="M1596.691,263.358H1594.9l-.894,1.549.894,1.549h1.789l.894-1.549Z" transform="translate(-1594.008 -232.651)" fill="#313131"/><path d="M1596.691,272.913H1594.9l-.894,1.549.894,1.549h1.789l.894-1.549Z" transform="translate(-1594.008 -238.368)" fill="#313131"/><path d="M1596.691,282.468H1594.9l-.894,1.549.894,1.549h1.789l.894-1.549Z" transform="translate(-1594.008 -244.084)" fill="#313131"/></g><g transform="translate(10.044 2.009)"><path d="M1580.023,177.363h-1.788l-.894,1.549.894,1.549h1.788l.894-1.549Z" transform="translate(-1577.34 -177.363)" fill="#313131"/><path d="M1580.023,186.918h-1.788l-.894,1.549.894,1.549h1.788l.894-1.549Z" transform="translate(-1577.34 -183.08)" fill="#313131"/><path d="M1580.023,196.473h-1.788l-.894,1.549.894,1.549h1.788l.894-1.549Z" transform="translate(-1577.34 -188.796)" fill="#313131"/><path d="M1580.023,206.028h-1.788l-.894,1.549.894,1.549h1.788l.894-1.549Z" transform="translate(-1577.34 -194.513)" fill="#313131"/><path d="M1580.023,215.583h-1.788l-.894,1.549.894,1.549h1.788l.894-1.549Z" transform="translate(-1577.34 -200.23)" fill="#313131"/><path d="M1580.023,225.138h-1.788l-.894,1.549.894,1.549h1.788l.894-1.549Z" transform="translate(-1577.34 -205.946)" fill="#313131"/><path d="M1580.023,234.693h-1.788l-.894,1.549.894,1.549h1.788l.894-1.549Z" transform="translate(-1577.34 -211.663)" fill="#313131"/><path d="M1580.023,244.248h-1.788l-.894,1.549.894,1.549h1.788l.894-1.549Z" transform="translate(-1577.34 -217.379)" fill="#313131"/><path d="M1580.023,253.8h-1.788l-.894,1.549.894,1.549h1.788l.894-1.549Z" transform="translate(-1577.34 -223.096)" fill="#313131"/><path d="M1580.023,263.358h-1.788l-.894,1.549.894,1.549h1.788l.894-1.549Z" transform="translate(-1577.34 -228.813)" fill="#313131"/><path d="M1580.023,272.913h-1.788l-.894,1.549.894,1.549h1.788l.894-1.549Z" transform="translate(-1577.34 -234.529)" fill="#313131"/><path d="M1580.023,282.468h-1.788l-.894,1.549.894,1.549h1.788l.894-1.549Z" transform="translate(-1577.34 -240.246)" fill="#313131"/></g><g transform="translate(3.348 2.009)"><path d="M1563.355,177.363h-1.789l-.894,1.549.894,1.549h1.789l.894-1.549Z" transform="translate(-1560.672 -177.363)" fill="#313131"/><path d="M1563.355,186.918h-1.789l-.894,1.549.894,1.549h1.789l.894-1.549Z" transform="translate(-1560.672 -183.08)" fill="#313131"/><path d="M1563.355,196.473h-1.789l-.894,1.549.894,1.549h1.789l.894-1.549Z" transform="translate(-1560.672 -188.796)" fill="#313131"/><path d="M1563.355,206.028h-1.789l-.894,1.549.894,1.549h1.789l.894-1.549Z" transform="translate(-1560.672 -194.513)" fill="#313131"/><path d="M1563.355,215.583h-1.789l-.894,1.549.894,1.549h1.789l.894-1.549Z" transform="translate(-1560.672 -200.23)" fill="#313131"/><path d="M1563.355,225.138h-1.789l-.894,1.549.894,1.549h1.789l.894-1.549Z" transform="translate(-1560.672 -205.946)" fill="#313131"/><path d="M1563.355,234.693h-1.789l-.894,1.549.894,1.549h1.789l.894-1.549Z" transform="translate(-1560.672 -211.663)" fill="#313131"/><path d="M1563.355,244.248h-1.789l-.894,1.549.894,1.549h1.789l.894-1.549Z" transform="translate(-1560.672 -217.379)" fill="#313131"/><path d="M1563.355,253.8h-1.789l-.894,1.549.894,1.549h1.789l.894-1.549Z" transform="translate(-1560.672 -223.096)" fill="#313131"/><path d="M1563.355,263.358h-1.789l-.894,1.549.894,1.549h1.789l.894-1.549Z" transform="translate(-1560.672 -228.813)" fill="#313131"/><path d="M1563.355,272.913h-1.789l-.894,1.549.894,1.549h1.789l.894-1.549Z" transform="translate(-1560.672 -234.529)" fill="#313131"/></g><g transform="translate(30.131 2.009)"><path d="M1630.027,177.363h-1.789l-.894,1.549.894,1.549h1.789l.894-1.549Z" transform="translate(-1627.344 -177.363)" fill="#313131"/><path d="M1630.027,186.918h-1.789l-.894,1.549.894,1.549h1.789l.894-1.549Z" transform="translate(-1627.344 -183.08)" fill="#313131"/><path d="M1630.027,196.473h-1.789l-.894,1.549.894,1.549h1.789l.894-1.549Z" transform="translate(-1627.344 -188.796)" fill="#313131"/><path d="M1630.027,206.028h-1.789l-.894,1.549.894,1.549h1.789l.894-1.549Z" transform="translate(-1627.344 -194.513)" fill="#313131"/><path d="M1630.027,215.583h-1.789l-.894,1.549.894,1.549h1.789l.894-1.549Z" transform="translate(-1627.344 -200.23)" fill="#313131"/><path d="M1630.027,225.138h-1.789l-.894,1.549.894,1.549h1.789l.894-1.549Z" transform="translate(-1627.344 -205.946)" fill="#313131"/><path d="M1630.027,234.693h-1.789l-.894,1.549.894,1.549h1.789l.894-1.549Z" transform="translate(-1627.344 -211.663)" fill="#313131"/><path d="M1630.027,244.248h-1.789l-.894,1.549.894,1.549h1.789l.894-1.549Z" transform="translate(-1627.344 -217.379)" fill="#313131"/><path d="M1630.027,253.8h-1.789l-.894,1.549.894,1.549h1.789l.894-1.549Z" transform="translate(-1627.344 -223.096)" fill="#313131"/><path d="M1630.027,263.358h-1.789l-.894,1.549.894,1.549h1.789l.894-1.549Z" transform="translate(-1627.344 -228.813)" fill="#313131"/><path d="M1630.027,272.913h-1.789l-.894,1.549.894,1.549h1.789l.894-1.549Z" transform="translate(-1627.344 -234.529)" fill="#313131"/></g></g><g transform="translate(20.843)"><g transform="translate(6.696 3.838)"><path d="M1623.575,137.851h-1.789l-.894,1.549.894,1.549h1.789l.894-1.549Z" transform="translate(-1620.892 -137.851)" fill="#313131"/><path d="M1623.575,147.406h-1.789l-.894,1.549.894,1.549h1.789l.894-1.549Z" transform="translate(-1620.892 -143.567)" fill="#313131"/></g><g transform="translate(13.392)"><path d="M1639.487,128.3h-1.033l-.894,1.549.894,1.549h1.033Z" transform="translate(-1637.56 -128.296)" fill="#313131"/><path d="M1639.487,137.851h-1.033l-.894,1.549.894,1.549h1.033Z" transform="translate(-1637.56 -134.012)" fill="#313131"/><path d="M1639.487,147.406h-1.033l-.894,1.549.894,1.549h1.033Z" transform="translate(-1637.56 -139.729)" fill="#313131"/></g><g transform="translate(0 11.515)"><path d="M1606.907,156.961h-1.789l-.894,1.549.894,1.549h1.789l.894-1.549Z" transform="translate(-1604.224 -156.961)" fill="#313131"/></g><g transform="translate(3.348 5.847)"><path d="M1615.241,142.851h-1.788l-.894,1.549.894,1.549h1.788l.894-1.549Z" transform="translate(-1612.558 -142.851)" fill="#313131"/><path d="M1615.241,152.406h-1.788l-.894,1.549.894,1.549h1.788l.894-1.549Z" transform="translate(-1612.558 -148.567)" fill="#313131"/></g><g transform="translate(10.044 2.009)"><path d="M1631.909,133.3h-1.788l-.894,1.549.894,1.549h1.788l.894-1.549Z" transform="translate(-1629.226 -133.296)" fill="#313131"/><path d="M1631.909,142.851h-1.788l-.894,1.549.894,1.549h1.788l.894-1.549Z" transform="translate(-1629.226 -139.012)" fill="#313131"/><path d="M1631.909,152.406h-1.788l-.894,1.549.894,1.549h1.788l.894-1.549Z" transform="translate(-1629.226 -144.729)" fill="#313131"/></g></g><g transform="translate(0.681)"><g transform="translate(5.046 3.838)"><path d="M1566.594,139.4l.894,1.549h1.789l.894-1.549-.894-1.549h-1.789Z" transform="translate(-1566.594 -137.851)" fill="#313131"/><path d="M1566.594,148.955l.894,1.549h1.789l.894-1.549-.894-1.549h-1.789Z" transform="translate(-1566.594 -143.567)" fill="#313131"/></g><path d="M1554.034,131.394h1.033l.894-1.549-.894-1.549h-1.033Z" transform="translate(-1554.034 -128.296)" fill="#313131"/><path d="M1554.034,140.949h1.033l.894-1.549-.894-1.549h-1.033Z" transform="translate(-1554.034 -134.012)" fill="#313131"/><path d="M1554.034,150.5h1.033l.894-1.549-.894-1.549h-1.033Z" transform="translate(-1554.034 -139.729)" fill="#313131"/><g transform="translate(11.741 11.515)"><path d="M1583.262,158.51l.894,1.549h1.789l.894-1.549-.894-1.549h-1.789Z" transform="translate(-1583.262 -156.961)" fill="#313131"/></g><g transform="translate(8.393 5.847)"><path d="M1574.928,144.4l.894,1.549h1.789l.894-1.549-.894-1.549h-1.789Z" transform="translate(-1574.928 -142.851)" fill="#313131"/><path d="M1574.928,153.955l.894,1.549h1.789l.894-1.549-.894-1.549h-1.789Z" transform="translate(-1574.928 -148.567)" fill="#313131"/></g><g transform="translate(1.698 2.009)"><path d="M1558.26,134.845l.894,1.549h1.788l.894-1.549-.894-1.549h-1.788Z" transform="translate(-1558.26 -133.296)" fill="#313131"/><path d="M1558.26,144.4l.894,1.549h1.788l.894-1.549-.894-1.549h-1.788Z" transform="translate(-1558.26 -139.012)" fill="#313131"/><path d="M1558.26,153.955l.894,1.549h1.788l.894-1.549-.894-1.549h-1.788Z" transform="translate(-1558.26 -144.729)" fill="#313131"/></g></g></g><path d="M1584.005,112.319a40.045,40.045,0,0,1-1.332-8.62c.049-4.061.2-8.988.333-13.336.123-3.993.229-7.443.229-9.322h-.03c.014-.466.025-.906.03-1.308.014-1.213.041-2.5.068-3.809.143-6.866.3-14.647-1.226-16.9-1.422-2.095-3.452-2.631-5.244-3.1-.528-.139-1.028-.271-1.5-.437-.86-.3-3.433-1.183-10.8-3.691a.53.53,0,0,0-.7.5v1.355a19.947,19.947,0,0,0-8.212-.052v-1.3a.53.53,0,0,0-.7-.5c-5.826,1.983-9.56,3.259-10.8,3.691-.476.166-.975.3-1.5.437-1.791.473-3.821,1.01-5.243,3.1-1.531,2.256-1.37,10.038-1.227,16.905.027,1.311.054,2.594.069,3.806.006.5.021,1.065.041,1.67a1.347,1.347,0,0,0-1.074.5l-.029.047v.056c0,.3,0,7.43.126,8.633.082.788.146,1.41.559,1.735a1.138,1.138,0,0,0,.732.218,2.537,2.537,0,0,0,.294-.022l.006.106c-1.271.1-1.47.376-1.384,1.742.032.507.057,1.494.087,2.638.048,1.857.1,3.962.205,4.944a4.653,4.653,0,0,0,.567,2.077,37.445,37.445,0,0,1-1.15,8.914c-1.266,6.148-2.7,13.116.285,20.21,3.948,9.379,9.982,14.974,17.985,16.708a22.022,22.022,0,0,0,5.068.628c.67,0,1.092-.038,1.192-.049.1.01.521.049,1.191.049a22.04,22.04,0,0,0,5.073-.629c8-1.735,14.033-7.33,17.98-16.707C1587.047,125.889,1585.431,118.68,1584.005,112.319ZM1564.23,71.4V52.293a.129.129,0,0,1,.054-.106.124.124,0,0,1,.116-.017c7.367,2.508,9.938,3.391,10.8,3.69.49.171,1,.3,1.533.446,1.807.477,3.677.971,5.013,2.941,1.459,2.15,1.3,9.863,1.157,16.668-.027,1.313-.054,2.6-.068,3.813-.03,2.45-.252,6.159-.509,10.454-.055.92-.112,1.861-.167,2.817l0-.007c-7.394,4.942-14.276,7.268-21.636,7.31V90.139a1.744,1.744,0,0,0,1.082-1.66c0-.182.018-.974.039-1.9.029-1.268.065-2.846.065-3.345,0-1.135-.439-1.849-1.184-1.955V77.336C1562.982,77.007,1564.23,75.013,1564.23,71.4Zm-4.507-6.46c1.238,0,2.208.532,2.208,1.211s-.97,1.212-2.208,1.212-2.209-.532-2.209-1.212S1558.485,64.945,1559.723,64.945Zm-2.209-2.207c0-.671,1.138-1.033,2.209-1.033s2.208.362,2.208,1.033-1.138,1.033-2.208,1.033S1557.515,63.409,1557.515,62.738Zm2.209,6c1.238,0,2.208.589,2.208,1.341s-.97,1.341-2.208,1.341-2.209-.589-2.209-1.341S1558.485,68.741,1559.723,68.741Zm0,3.86c1.238,0,2.208.589,2.208,1.341s-.97,1.34-2.208,1.34-2.209-.589-2.209-1.34S1558.485,72.6,1559.723,72.6Zm-4.106-18.594a19.463,19.463,0,0,1,8.212.053v7.657a4.818,4.818,0,0,0-8.212,0Zm-19,25.72c-.015-1.214-.041-2.5-.069-3.81-.141-6.807-.3-14.521,1.157-16.671,1.337-1.97,3.206-2.464,5.014-2.941.536-.141,1.042-.275,1.533-.446,1.239-.431,4.972-1.707,10.8-3.689a.124.124,0,0,1,.116.017.13.13,0,0,1,.054.106V71.4c0,3.609,1.249,5.6,3.712,5.932V81.28c-.746.106-1.184.82-1.184,1.955,0,.5.036,2.078.065,3.345.021.924.039,1.715.039,1.9a1.744,1.744,0,0,0,1.082,1.66V100.3c-7.36-.042-14.242-2.367-21.636-7.31l0,.007c-.056-.955-.112-1.9-.167-2.815C1536.864,85.888,1536.642,82.177,1536.613,79.728Zm37.313,66.03a22,22,0,0,1-7.827,3.713,26.343,26.343,0,0,1-6.372.615l0,.2h0l0-.2a26.312,26.312,0,0,1-6.525-.653,22,22,0,0,1-7.674-3.676c-12.141-9.065-9.788-21.163-8.382-28.392.113-.579.219-1.13.314-1.65.8-4.373.356-13.775-.135-22.225,7.437,4.92,14.376,7.213,21.812,7.213h.2V89.775h-.2a1.289,1.289,0,0,1-.881-1.3c0-.183-.018-.979-.039-1.906-.029-1.266-.065-2.842-.065-3.337,0-.585.128-1.567.983-1.567h.2v-4.31h.787v4.31h.2c.856,0,.984.982.984,1.567,0,.495-.036,2.07-.065,3.337-.021.928-.039,1.723-.039,1.906a1.289,1.289,0,0,1-.881,1.3h-.2V100.7h.2c7.437,0,14.376-2.293,21.812-7.213-.491,8.45-.93,17.852-.135,22.225.095.52.2,1.071.315,1.65C1583.714,124.595,1586.067,136.693,1573.926,145.758Z" transform="translate(-1533.713 -51.761)" fill="#313131"/></g><g transform="translate(1575.296 23.483)"><path d="M1699.227,242.346l.894-1.549-.894-1.549h-1.789l-.894,1.549.894,1.549Z" transform="translate(-1672.716 -163.932)" fill="#313131"/><path d="M1690.893,253.8H1689.1l-.894,1.549.894,1.549h1.789l.894-1.549Z" transform="translate(-1667.73 -172.64)" fill="#313131"/><path d="M1690.893,244.248H1689.1l-.894,1.549.894,1.549h1.789l.894-1.549Z" transform="translate(-1667.73 -166.923)" fill="#313131"/><path d="M1699.227,229.693h-1.789l-.894,1.549.894,1.549h1.789l.894-1.549Z" transform="translate(-1672.716 -158.215)" fill="#313131"/><path d="M1707.561,209.126l.894-1.549-.894-1.549h-1.789l-.894,1.549.894,1.549Z" transform="translate(-1677.702 -144.057)" fill="#313131"/><path d="M1699.227,220.138h-1.789l-.894,1.549.894,1.549h1.789l.894-1.549Z" transform="translate(-1672.716 -152.499)" fill="#313131"/><path d="M1699.227,210.583h-1.789l-.894,1.549.894,1.549h1.789l.894-1.549Z" transform="translate(-1672.716 -146.782)" fill="#313131"/><path d="M1657.557,266.456l.894-1.549-.894-1.549h-1.789l-.894,1.549.894,1.549Z" transform="translate(-1647.785 -178.356)" fill="#313131"/><path d="M1665.891,261.456l.894-1.549-.894-1.549H1664.1l-.894,1.549.894,1.549Z" transform="translate(-1652.771 -175.365)" fill="#313131"/><path d="M1690.893,266.456l.894-1.549-.894-1.549H1689.1l-.894,1.549.894,1.549Z" transform="translate(-1667.73 -178.356)" fill="#313131"/><path d="M1674.225,266.456l.894-1.549-.894-1.549h-1.789l-.894,1.549.894,1.549Z" transform="translate(-1657.757 -178.356)" fill="#313131"/><path d="M1682.559,261.456l.894-1.549-.894-1.549h-1.789l-.894,1.549.894,1.549Z" transform="translate(-1662.744 -175.365)" fill="#313131"/><path d="M1689.1,196.473l-.894,1.549.894,1.549h1.789l.894-1.549-.894-1.549Z" transform="translate(-1667.73 -138.34)" fill="#313131"/><path d="M1657.557,276.011l.894-1.549-.894-1.549h-1.789l-.894,1.549.894,1.549Z" transform="translate(-1647.785 -184.073)" fill="#313131"/><path d="M1665.891,271.011l.894-1.549-.894-1.549H1664.1l-.894,1.549.894,1.549Z" transform="translate(-1652.771 -181.082)" fill="#313131"/><path d="M1649.982,271.011l.894-1.549-.894-1.549h-.516c-.529.854-1.079,1.669-1.658,2.432l.384.666Z" transform="translate(-1643.558 -181.082)" fill="#313131"/><path d="M1690.893,276.011l.894-1.549-.894-1.549H1689.1l-.894,1.549.894,1.549Z" transform="translate(-1667.73 -184.073)" fill="#313131"/><path d="M1662.753,237.158q-.055.686-.149,1.376l.472-.817Z" transform="translate(-1652.41 -162.681)" fill="#313131"/><path d="M1657.583,196.473c.167.794.348,1.6.532,2.425q.075.335.151.673h.912l.894-1.549-.894-1.549Z" transform="translate(-1649.406 -138.34)" fill="#313131"/><path d="M1672.437,206.028l-.894,1.549.894,1.549h1.789l.894-1.549-.894-1.549Z" transform="translate(-1657.757 -144.057)" fill="#313131"/><path d="M1697.438,191.473l-.894,1.549.894,1.549h1.789l.894-1.549-.894-1.549Z" transform="translate(-1672.716 -135.349)" fill="#313131"/><path d="M1664.1,201.028l-.894,1.549.894,1.549h1.789l.894-1.549-.894-1.549Z" transform="translate(-1652.771 -141.065)" fill="#313131"/><path d="M1658.387,256.9l.894-1.549-.894-1.549h-.989c-.037.092-.072.185-.111.278-.326.774-.672,1.513-1.026,2.236l.337.584Z" transform="translate(-1648.615 -172.64)" fill="#313131"/><path d="M1707.561,196.473h-1.789l-.894,1.549.894,1.549h1.789l.894-1.549Z" transform="translate(-1677.702 -138.34)" fill="#313131"/><path d="M1680.771,201.028l-.894,1.549.894,1.549h1.789l.894-1.549-.894-1.549Z" transform="translate(-1662.744 -141.065)" fill="#313131"/><path d="M1674.225,276.011l.894-1.549-.894-1.549h-1.789l-.894,1.549.894,1.549Z" transform="translate(-1657.757 -184.073)" fill="#313131"/><path d="M1665.891,232.791l.894-1.549-.894-1.549H1664.1l-.894,1.549.894,1.549Z" transform="translate(-1652.771 -158.215)" fill="#313131"/><path d="M1664.1,220.138l-.894,1.549.894,1.549h1.789l.894-1.549-.894-1.549Z" transform="translate(-1652.771 -152.499)" fill="#313131"/><path d="M1663.108,228.693l.248-.43-.284-.491Q1663.1,228.23,1663.108,228.693Z" transform="translate(-1652.69 -157.065)" fill="#313131"/><path d="M1689.1,206.028l-.894,1.549.894,1.549h1.789l.894-1.549-.894-1.549Z" transform="translate(-1667.73 -144.057)" fill="#313131"/><path d="M1672.437,225.138l-.894,1.549.894,1.549h1.789l.894-1.549-.894-1.549Z" transform="translate(-1657.757 -155.49)" fill="#313131"/><path d="M1699.227,204.126l.894-1.549-.894-1.549h-1.789l-.894,1.549.894,1.549Z" transform="translate(-1672.716 -141.065)" fill="#313131"/><path d="M1699.227,271.011l.894-1.549-.894-1.549h-1.789l-.894,1.549.894,1.549Z" transform="translate(-1672.716 -181.082)" fill="#313131"/><path d="M1665.891,242.346l.894-1.549-.894-1.549H1664.1l-.894,1.549.894,1.549Z" transform="translate(-1652.771 -163.932)" fill="#313131"/><path d="M1674.225,247.346l.894-1.549-.894-1.549h-1.789l-.894,1.549.894,1.549Z" transform="translate(-1657.757 -166.923)" fill="#313131"/><path d="M1682.559,232.791l.894-1.549-.894-1.549h-1.789l-.894,1.549.894,1.549Z" transform="translate(-1662.744 -158.215)" fill="#313131"/><path d="M1674.225,234.693h-1.789l-.894,1.549.894,1.549h1.789l.894-1.549Z" transform="translate(-1657.757 -161.207)" fill="#313131"/><path d="M1659.691,206.028c.223,1.014.442,2.048.638,3.1h.11l.894-1.549-.894-1.549Z" transform="translate(-1650.667 -144.057)" fill="#313131"/><path d="M1682.559,220.138h-1.789l-.894,1.549.894,1.549h1.789l.894-1.549Z" transform="translate(-1662.744 -152.499)" fill="#313131"/><path d="M1690.893,215.583H1689.1l-.894,1.549.894,1.549h1.789l.894-1.549Z" transform="translate(-1667.73 -149.773)" fill="#313131"/><path d="M1690.893,225.138H1689.1l-.894,1.549.894,1.549h1.789l.894-1.549Z" transform="translate(-1667.73 -155.49)" fill="#313131"/><path d="M1680.771,210.583l-.894,1.549.894,1.549h1.789l.894-1.549-.894-1.549Z" transform="translate(-1662.744 -146.782)" fill="#313131"/><path d="M1664.1,210.583l-.894,1.549.894,1.549h1.789l.894-1.549-.894-1.549Z" transform="translate(-1652.771 -146.782)" fill="#313131"/><path d="M1690.893,237.791l.894-1.549-.894-1.549H1689.1l-.894,1.549.894,1.549Z" transform="translate(-1667.73 -161.207)" fill="#313131"/><path d="M1672.437,215.583l-.894,1.549.894,1.549h1.789l.894-1.549-.894-1.549Z" transform="translate(-1657.757 -149.773)" fill="#313131"/><path d="M1682.559,251.9l.894-1.549-.894-1.549h-1.789l-.894,1.549.894,1.549Z" transform="translate(-1662.744 -169.648)" fill="#313131"/><path d="M1665.891,251.9l.894-1.549-.894-1.549H1664.1l-.894,1.549.894,1.549Z" transform="translate(-1652.771 -169.648)" fill="#313131"/><path d="M1682.559,239.248h-1.789l-.894,1.549.894,1.549h1.789l.894-1.549Z" transform="translate(-1662.744 -163.932)" fill="#313131"/><path d="M1661.4,246.119l-.769-1.332a21.9,21.9,0,0,1-.829,2.882h.7Z" transform="translate(-1650.732 -167.246)" fill="#313131"/><path d="M1674.225,256.9l.894-1.549-.894-1.549h-1.789l-.894,1.549.894,1.549Z" transform="translate(-1657.757 -172.64)" fill="#313131"/><path d="M1661.993,218.1l.506-.877-.86-1.489C1661.774,216.513,1661.895,217.3,1661.993,218.1Z" transform="translate(-1651.832 -149.863)" fill="#313131"/><path d="M1682.559,271.011l.894-1.549-.894-1.549h-1.789l-.894,1.549.894,1.549Z" transform="translate(-1662.744 -181.082)" fill="#313131"/><path d="M1715.9,251.9l.894-1.549-.894-1.549h-1.789l-.894,1.549.894,1.549Z" transform="translate(-1682.688 -169.648)" fill="#313131"/><path d="M1664.1,181.918l-.894,1.549.894,1.549h1.789l.894-1.549-.894-1.549Z" transform="translate(-1652.771 -129.632)" fill="#313131"/><path d="M1672.437,186.918l-.894,1.549.894,1.549h1.789l.894-1.549-.894-1.549Z" transform="translate(-1657.757 -132.624)" fill="#313131"/><path d="M1656.433,142.851q-.03.976-.061,2.009c-.011.358-.022.724-.033,1.089h1.125l.894-1.549-.894-1.549Z" transform="translate(-1648.661 -106.259)" fill="#313131"/><path d="M1663.479,160.059l.894-1.549-.894-1.549h-1.788l-.894,1.549.894,1.549Z" transform="translate(-1651.328 -114.701)" fill="#313131"/><path d="M1658.189,153.955l-.894-1.549h-1.148c-.031,1.019-.062,2.056-.091,3.1h1.239Z" transform="translate(-1648.491 -111.976)" fill="#313131"/><path d="M1656.2,177.363l-.6,1.039c0,.146,0,.3-.007.443,0,.192.007.39.012.587l.594,1.029h1.789l.894-1.549-.894-1.549Z" transform="translate(-1648.213 -126.907)" fill="#313131"/><path d="M1713.212,183.467l.894,1.549h1.033v-3.1h-1.033Z" transform="translate(-1682.688 -129.632)" fill="#313131"/><path d="M1715.9,229.693h-1.789l-.894,1.549.894,1.549h1.789l.894-1.549Z" transform="translate(-1682.688 -158.215)" fill="#313131"/><path d="M1715.9,239.248h-1.789l-.894,1.549.894,1.549h1.789l.894-1.549Z" transform="translate(-1682.688 -163.932)" fill="#313131"/><path d="M1697.438,172.363l-.894,1.549.894,1.549h1.789l.894-1.549-.894-1.549Z" transform="translate(-1672.716 -123.916)" fill="#313131"/><path d="M1705.772,177.363l-.894,1.549.894,1.549h1.789l.894-1.549-.894-1.549Z" transform="translate(-1677.702 -126.907)" fill="#313131"/><path d="M1689.1,177.363l-.894,1.549.894,1.549h1.789l.894-1.549-.894-1.549Z" transform="translate(-1667.73 -126.907)" fill="#313131"/><path d="M1680.771,181.918l-.894,1.549.894,1.549h1.789l.894-1.549-.894-1.549Z" transform="translate(-1662.744 -129.632)" fill="#313131"/><path d="M1715.094,148.955l.894,1.549h1.033v-3.1h-1.033Z" transform="translate(-1683.814 -108.984)" fill="#313131"/><path d="M1715.094,139.4l.894,1.549h1.033v-3.1h-1.033Z" transform="translate(-1683.814 -103.267)" fill="#313131"/><path d="M1707.654,152.406l-.894,1.549.894,1.549h1.789l.894-1.549-.894-1.549Z" transform="translate(-1678.827 -111.975)" fill="#313131"/><path d="M1677.083,112.319a40.037,40.037,0,0,1-1.332-8.62c.049-4.061.2-8.988.334-13.336.122-3.993.228-7.443.228-9.322h-.03c.015-.466.025-.906.03-1.308.015-1.213.041-2.5.068-3.809.143-6.866.3-14.647-1.226-16.9-1.422-2.095-3.452-2.631-5.244-3.1-.528-.139-1.028-.271-1.5-.437-.86-.3-3.433-1.183-10.8-3.691a.53.53,0,0,0-.7.5v1.355a19.947,19.947,0,0,0-8.212-.052v-1.3a.53.53,0,0,0-.7-.5c-5.779,1.967-9.5,3.238-10.766,3.679l.033.012c.2.069.4.13.611.19,1.608-.554,5.115-1.752,10.251-3.5a.124.124,0,0,1,.116.017.129.129,0,0,1,.054.106V71.4c0,3.609,1.249,5.6,3.712,5.932V81.28c-.746.106-1.184.82-1.184,1.955,0,.5.036,2.078.065,3.345.021.924.039,1.715.039,1.9a1.744,1.744,0,0,0,1.082,1.66V100.3a33.8,33.8,0,0,1-7.325-.842c0,.137-.006.274-.009.41a34.248,34.248,0,0,0,7.535.834h.2V89.775h-.2a1.289,1.289,0,0,1-.881-1.3c0-.183-.018-.979-.039-1.906-.029-1.266-.065-2.842-.065-3.337,0-.585.128-1.567.983-1.567h.2v-4.31h.787v4.31h.2c.856,0,.983.982.983,1.567,0,.495-.036,2.07-.065,3.337-.021.928-.039,1.723-.039,1.906a1.29,1.29,0,0,1-.881,1.3h-.2V100.7h.2c7.437,0,14.376-2.293,21.813-7.213-.492,8.45-.93,17.852-.135,22.225.094.52.2,1.071.314,1.65,1.406,7.229,3.758,19.327-8.382,28.392a22,22,0,0,1-7.828,3.713,26.34,26.34,0,0,1-6.372.615l0,.2h0l0-.2a26.311,26.311,0,0,1-6.525-.653,22,22,0,0,1-7.674-3.676c-.31-.232-.605-.467-.9-.7-.158.135-.313.276-.473.406a24.072,24.072,0,0,0,14.382,5.076c.671,0,1.092-.038,1.192-.049.1.01.521.049,1.192.049a22.036,22.036,0,0,0,5.073-.629c8-1.735,14.034-7.33,17.98-16.707C1680.124,125.889,1678.508,118.68,1677.083,112.319Zm-28.388-50.6V54.008a19.463,19.463,0,0,1,8.212.053v7.657a4.818,4.818,0,0,0-8.212,0Zm4.106,5.649c-1.239,0-2.209-.532-2.209-1.212s.97-1.211,2.209-1.211,2.208.532,2.208,1.211S1654.039,67.367,1652.8,67.367Zm2.208,2.714c0,.752-.97,1.341-2.208,1.341s-2.209-.589-2.209-1.341.97-1.341,2.209-1.341S1655.009,69.33,1655.009,70.082Zm-2.208-6.311c-1.071,0-2.209-.362-2.209-1.033s1.138-1.033,2.209-1.033,2.208.362,2.208,1.033S1653.871,63.771,1652.8,63.771Zm0,11.511c-1.239,0-2.209-.589-2.209-1.34s.97-1.341,2.209-1.341,2.208.589,2.208,1.341S1654.039,75.282,1652.8,75.282ZM1675.235,93l0-.007c-7.394,4.942-14.276,7.268-21.636,7.31V90.139a1.745,1.745,0,0,0,1.082-1.66c0-.182.018-.974.039-1.9.029-1.268.065-2.846.065-3.345,0-1.135-.438-1.849-1.184-1.955V77.336c2.463-.329,3.712-2.324,3.712-5.932V52.293a.129.129,0,0,1,.054-.106.125.125,0,0,1,.116-.017c7.367,2.508,9.938,3.391,10.8,3.69.491.171,1,.3,1.533.446,1.808.477,3.676.971,5.013,2.941,1.459,2.15,1.3,9.863,1.157,16.668-.027,1.313-.053,2.6-.068,3.813-.03,2.45-.252,6.159-.509,10.454C1675.347,91.1,1675.291,92.043,1675.235,93Z" transform="translate(-1637.227 -51.761)" fill="#313131"/><path d="M1701.109,147.406h-1.789l-.894,1.549.894,1.549h1.789l.894-1.549Z" transform="translate(-1673.841 -108.984)" fill="#313131"/><path d="M1715.094,129.845l.894,1.549h1.033v-3.1h-1.033Z" transform="translate(-1683.814 -97.551)" fill="#313131"/><path d="M1706.76,144.4l.894,1.549h1.789l.894-1.549-.894-1.549h-1.789Z" transform="translate(-1678.827 -106.259)" fill="#313131"/><path d="M1701.109,140.949,1702,139.4l-.894-1.549h-1.789l-.894,1.549.894,1.549Z" transform="translate(-1673.841 -103.267)" fill="#313131"/><path d="M1709.443,136.394l.894-1.549-.894-1.549h-1.789l-.894,1.549.894,1.549Z" transform="translate(-1678.827 -100.542)" fill="#313131"/><path d="M1692.775,145.949l.894-1.549-.894-1.549h-1.789l-.894,1.549.894,1.549Z" transform="translate(-1668.855 -106.259)" fill="#313131"/><path d="M1682.652,156.961l-.894,1.549.894,1.549h1.789l.894-1.549-.894-1.549Z" transform="translate(-1663.869 -114.701)" fill="#313131"/><path d="M1690.986,152.406l-.894,1.549.894,1.549h1.789l.894-1.549-.894-1.549Z" transform="translate(-1668.855 -111.975)" fill="#313131"/><path d="M1697.438,181.918l-.894,1.549.894,1.549h1.789l.894-1.549-.894-1.549Z" transform="translate(-1672.716 -129.632)" fill="#313131"/><path d="M1672.437,196.473l-.894,1.549.894,1.549h1.789l.894-1.549-.894-1.549Z" transform="translate(-1657.757 -138.34)" fill="#313131"/><path d="M1705.772,186.918l-.894,1.549.894,1.549h1.789l.894-1.549-.894-1.549Z" transform="translate(-1677.702 -132.624)" fill="#313131"/><path d="M1715.139,191.473h-1.033l-.894,1.549.894,1.549h1.033Z" transform="translate(-1682.688 -135.349)" fill="#313131"/><path d="M1680.771,191.473l-.894,1.549.894,1.549h1.789l.894-1.549-.894-1.549Z" transform="translate(-1662.744 -135.349)" fill="#313131"/><path d="M1715.139,201.028h-1.033l-.894,1.549.894,1.549h1.033Z" transform="translate(-1682.688 -141.065)" fill="#313131"/><path d="M1689.1,186.918l-.894,1.549.894,1.549h1.789l.894-1.549-.894-1.549Z" transform="translate(-1667.73 -132.624)" fill="#313131"/><path d="M1699.227,248.8h-1.789l-.894,1.549.894,1.549h1.789l.894-1.549Z" transform="translate(-1672.716 -169.648)" fill="#313131"/><path d="M1707.561,247.346l.894-1.549-.894-1.549h-1.789l-.894,1.549.894,1.549Z" transform="translate(-1677.702 -166.923)" fill="#313131"/><path d="M1707.561,234.693h-1.789l-.894,1.549.894,1.549h1.789l.894-1.549Z" transform="translate(-1677.702 -161.207)" fill="#313131"/><path d="M1707.561,215.583h-1.789l-.894,1.549.894,1.549h1.789l.894-1.549Z" transform="translate(-1677.702 -149.773)" fill="#313131"/><path d="M1707.561,225.138h-1.789l-.894,1.549.894,1.549h1.789l.894-1.549Z" transform="translate(-1677.702 -155.49)" fill="#313131"/><path d="M1715.139,213.681v-3.1h-1.033l-.894,1.549.894,1.549Z" transform="translate(-1682.688 -146.782)" fill="#313131"/><path d="M1656.53,186.918l-.383.663c.111.787.259,1.6.426,2.435h1.746l.894-1.549-.894-1.549Z" transform="translate(-1648.547 -132.624)" fill="#313131"/><path d="M1699.227,280.566l.894-1.549-.894-1.549h-1.789l-.894,1.549.894,1.549Z" transform="translate(-1672.716 -186.798)" fill="#313131"/><path d="M1690.893,285.566l.894-1.549-.894-1.549H1689.1l-.894,1.549.894,1.549Z" transform="translate(-1667.73 -189.79)" fill="#313131"/><path d="M1682.559,280.566l.894-1.549-.894-1.549h-1.789l-.894,1.549.894,1.549Z" transform="translate(-1662.744 -186.798)" fill="#313131"/><path d="M1674.225,285.566l.894-1.549-.894-1.549h-1.789l-.894,1.549.894,1.549Z" transform="translate(-1657.757 -189.79)" fill="#313131"/><path d="M1707.561,263.358h-1.789l-.894,1.549.894,1.549h1.789l.894-1.549Z" transform="translate(-1677.702 -178.356)" fill="#313131"/><path d="M1707.561,276.011l.894-1.549-.894-1.549h-1.789l-.894,1.549.894,1.549Z" transform="translate(-1677.702 -184.073)" fill="#313131"/><path d="M1644.073,276.1l-.258-.447a26.347,26.347,0,0,1-1.782,2h1.145Z" transform="translate(-1640.103 -185.715)" fill="#313131"/><path d="M1664.1,191.473l-.894,1.549.894,1.549h1.789l.894-1.549-.894-1.549Z" transform="translate(-1652.771 -135.349)" fill="#313131"/><path d="M1707.561,253.8h-1.789l-.894,1.549.894,1.549h1.789l.894-1.549Z" transform="translate(-1677.702 -172.64)" fill="#313131"/><path d="M1665.891,280.566l.894-1.549-.894-1.549H1664.1l-.894,1.549.894,1.549Z" transform="translate(-1652.771 -186.798)" fill="#313131"/><path d="M1657.557,285.566l.894-1.549-.894-1.549h-1.789l-.894,1.549.894,1.549Z" transform="translate(-1647.785 -189.79)" fill="#313131"/><path d="M1649.223,280.566l.895-1.549-.895-1.549h-1.788l-.894,1.549.894,1.549Z" transform="translate(-1642.799 -186.798)" fill="#313131"/></g><rect width="1.604" height="20.644" transform="translate(1558.921 4.495)" fill="#313131"/></g><circle cx="8" cy="8" r="8" transform="translate(417 159)" fill="#313131"/><path d="M561.372,2247.863a1.25,1.25,0,0,1,1.248-1.249H566.9a2.2,2.2,0,0,0,0-4.4h-2.35v-.832h-3.47v.47h-.735v1.762h.735v.471h3.47v-.845h2.35a1.172,1.172,0,0,1,0,2.344H562.62a2.275,2.275,0,0,0,0,4.551h5.966v-1.026H562.62A1.25,1.25,0,0,1,561.372,2247.863Zm-.684-4.587V2242.2h.393v1.078Z" transform="translate(-139.371 -2079.113)" fill="#eae9e3"/><circle cx="8" cy="8" r="8" transform="translate(500 159)" fill="#313131"/><g transform="translate(470.266 66.975)"><path d="M37.638,96h0a7.864,7.864,0,0,0-5.382,2.116L32,98.355l.249.247.813.805.234.231.242-.221a6.049,6.049,0,0,1,8.192,0l.242.221.234-.231.813-.805.249-.247-.257-.239A7.844,7.844,0,0,0,37.638,96Z" fill="#eae9e3"/><path d="M111.577,203.369a5.282,5.282,0,0,0-3.55-1.369H107.8l0,.005a5.287,5.287,0,0,0-3.336,1.364l-.264.239.254.252.823.815.229.226.242-.211a3.414,3.414,0,0,1,4.549,0l.242.211.229-.226.823-.815.254-.252Z" transform="translate(-70.383 -103.333)" fill="#eae9e3"/><path d="M184.939,316.859l.242-.239,1.328-1.313.267-.264-.292-.239a2.371,2.371,0,0,0-1.547-.5,2.563,2.563,0,0,0-1.547.5l-.289.239.267.264,1.328,1.313Z" transform="translate(-147.298 -212.808)" fill="#eae9e3"/></g></g></svg>