<?xml version="1.0" encoding="utf-8"?>
<!-- Generator: Adobe Illustrator 25.4.1, SVG Export Plug-In . SVG Version: 6.00 Build 0)  -->
<svg version="1.1" id="Layer_1" xmlns="http://www.w3.org/2000/svg" xmlns:xlink="http://www.w3.org/1999/xlink" x="0px" y="0px"
	 viewBox="0 0 99 117.8" style="enable-background:new 0 0 99 117.8;" xml:space="preserve">
<style type="text/css">
	.st0{fill:#313131;}
</style>
<g>
	<rect x="33.2" class="st0" width="1.6" height="21.5"/>
	<g>
		
			<rect x="3.9" y="16.4" transform="matrix(4.348419e-03 -1 1 4.348419e-03 -12.1218 21.005)" class="st0" width="1.1" height="0.4"/>
		<path class="st0" d="M8,12c-4.4,0-8,3.6-8,8s3.6,8,8,8s8-3.6,8-8S12.4,12,8,12z M6.2,23h6v1h-6C5,24,4,23,4,21.7s1-2.3,2.3-2.3
			h4.3c0.6,0,1.2-0.5,1.2-1.2c0-0.6-0.5-1.2-1.2-1.2H8.2v1H4.7v-0.5H4v-1.8h0.7v-0.5h3.5V16h2.3c1.2,0,2.2,1,2.2,2.2s-1,2.2-2.2,2.2
			H6.2C5.5,20.4,5,21,5,21.6C5,22.4,5.6,23,6.2,23z"/>
	</g>
	<path class="st0" d="M91,12c-4.4,0-8,3.6-8,8s3.6,8,8,8s8-3.6,8-8S95.4,12,91,12z M92.5,22.5l-1.3,1.3L90.9,24l-0.2-0.2l-1.3-1.3
		l-0.3-0.3l0.3-0.2c0.4-0.3,1-0.5,1.5-0.5c0.6,0,1.1,0.2,1.5,0.5l0.3,0.2L92.5,22.5z M94.5,20.5l-0.8,0.8l-0.2,0.2l-0.2-0.2
		c-1.3-1.2-3.3-1.2-4.5,0l-0.2,0.2l-0.2-0.2l-0.8-0.8l-0.3-0.3l0.3-0.2c0.9-0.8,2.1-1.3,3.3-1.4l0,0h0.2c1.3,0,2.6,0.5,3.6,1.4
		l0.3,0.2L94.5,20.5z M96.3,18.6l-0.8,0.8l-0.2,0.2L95,19.4c-2.3-2.1-5.9-2.1-8.2,0l-0.2,0.2l-0.2-0.2l-0.8-0.8l-0.2-0.2l0.3-0.2
		c1.5-1.4,3.4-2.1,5.4-2.1s3.9,0.8,5.4,2.1l0.3,0.2L96.3,18.6z"/>
	<g>
		<path class="st0" d="M29.7,103c0,0.1,0.1,0.1,0.2,0.1h1.9c0.1,0,0.1,0,0.2-0.1l0.9-1.6c0-0.1,0-0.1,0-0.2L32,99.6
			c0-0.1-0.1-0.1-0.2-0.1h-1.9c-0.1,0-0.1,0-0.2,0.1l-0.9,1.6c0,0.1,0,0.1,0,0.2L29.7,103z"/>
		<path class="st0" d="M33.3,105.3c0,0.1,0.1,0.1,0.2,0.1h1.9c0.1,0,0.1,0,0.2-0.1l0.9-1.6c0-0.1,0-0.1,0-0.2l-0.9-1.6
			c0-0.1-0.1-0.1-0.2-0.1h-1.9c-0.1,0-0.1,0-0.2,0.1l-0.9,1.6c0,0.1,0,0.1,0,0.2L33.3,105.3z"/>
		<path class="st0" d="M25.1,99.3l0.9,1.6c0,0.1,0.1,0.1,0.2,0.1h1.9c0.1,0,0.1,0,0.2-0.1l0.9-1.6c0-0.1,0-0.1,0-0.2l-0.9-1.6
			c0-0.1-0.1-0.1-0.2-0.1h-1.9c-0.1,0-0.1,0-0.2,0.1l-0.9,1.6C25.1,99.2,25.1,99.3,25.1,99.3z"/>
		<path class="st0" d="M36.9,107.3c0,0.1,0.1,0.1,0.2,0.1H39c0.1,0,0.1,0,0.2-0.1l0.9-1.6c0-0.1,0-0.1,0-0.2l-0.9-1.6
			c0-0.1-0.1-0.1-0.2-0.1h-1.9c-0.1,0-0.1,0-0.2,0.1l-0.9,1.6c0,0.1,0,0.1,0,0.2L36.9,107.3z"/>
		<path class="st0" d="M31.9,82.4c0-0.1-0.1-0.1-0.2-0.1h-1.9c-0.1,0-0.1,0-0.2,0.1L28.7,84c0,0.1,0,0.1,0,0.2l0.9,1.6
			c0,0.1,0.1,0.1,0.2,0.1h1.9c0.1,0,0.1,0,0.2-0.1l0.9-1.6c0-0.1,0-0.1,0-0.2L31.9,82.4z"/>
		<path class="st0" d="M40.1,84.1c0,0,0,0.1,0,0.2l-0.9,1.6l0,0c0,0.1-0.1,0.1-0.2,0.1h-1.9c-0.1,0-0.1,0-0.2-0.1L36,84.3
			c0-0.1,0-0.1,0-0.2l0.9-1.6c0-0.1,0.1-0.1,0.2-0.1H39c0.1,0,0.1,0,0.2,0.1l0.4,0.7L40.1,84.1z"/>
		<path class="st0" d="M25.1,95.1l0.9,1.6c0,0.1,0.1,0.1,0.2,0.1h1.9c0.1,0,0.1,0,0.2-0.1l0.9-1.6c0-0.1,0-0.1,0-0.2l-0.9-1.6
			c0-0.1-0.1-0.1-0.2-0.1h-1.9c-0.1,0-0.1,0-0.2,0.1l-0.9,1.6C25.1,94.9,25.1,95,25.1,95.1z"/>
		<path class="st0" d="M40.1,88.3c0,0,0,0.1,0,0.2l-0.9,1.6c0,0.1-0.1,0.1-0.2,0.1h-1.9c-0.1,0-0.1,0-0.2-0.1L36,88.5
			c0-0.1,0-0.1,0-0.2l0.9-1.6c0-0.1,0.1-0.1,0.2-0.1H39l0,0c0,0,0.1,0,0.1,0.1L40.1,88.3z"/>
		<path class="st0" d="M25.1,90.8l0.9,1.6c0,0.1,0.1,0.1,0.2,0.1h1.9c0.1,0,0.1,0,0.2-0.1l0.9-1.6c0-0.1,0-0.1,0-0.2L28.3,89
			c0-0.1-0.1-0.1-0.2-0.1h-1.9c-0.1,0-0.1,0-0.2,0.1l-0.9,1.6C25.1,90.7,25.1,90.7,25.1,90.8z"/>
		<path class="st0" d="M35.4,84.6h-1.9c-0.1,0-0.1,0-0.2,0.1l-0.9,1.6c0,0.1,0,0.1,0,0.2l0.9,1.6c0,0.1,0.1,0.1,0.2,0.1h1.9
			c0.1,0,0.1,0,0.2-0.1l0.9-1.6c0-0.1,0-0.1,0-0.2l-0.9-1.6C35.5,84.6,35.4,84.6,35.4,84.6z"/>
		<path class="st0" d="M35.4,80.3h-1.9c-0.1,0-0.1,0-0.2,0.1L32.4,82c0,0.1,0,0.1,0,0.2l0.9,1.6c0,0.1,0.1,0.1,0.2,0.1h1.9
			c0.1,0,0.1,0,0.2-0.1l0.9-1.6c0-0.1,0-0.1,0-0.2l-0.9-1.6C35.5,80.4,35.4,80.3,35.4,80.3z"/>
		<path class="st0" d="M40.1,92.8l-0.9,1.6c0,0-0.1,0.1-0.2,0.1h-1.9c-0.1,0-0.1,0-0.2-0.1L36,92.8c0-0.1,0-0.1,0-0.2l1-1.6
			c0-0.1,0.1-0.1,0.2-0.1H39c0.1,0,0.1,0,0.2,0.1l0.9,1.6C40.1,92.7,40.1,92.8,40.1,92.8z"/>
		<path class="st0" d="M40.1,79.8c0,0,0,0.1,0,0.2L40,80.2l-0.8,1.4c0,0.1-0.1,0.1-0.2,0.1h-1.9c-0.1,0-0.1,0-0.2-0.1L36,80
			c0-0.1,0-0.1,0-0.2l0.9-1.6c0-0.1,0.1-0.1,0.2-0.1H39c0.1,0,0.1,0,0.2,0.1L40.1,79.8L40.1,79.8z"/>
		<path class="st0" d="M28.1,80.3h-1.9c-0.1,0-0.1,0-0.2,0.1L25.1,82c0,0.1,0,0.1,0,0.2l0.9,1.6c0,0.1,0.1,0.1,0.2,0.1h1.9
			c0.1,0,0.1,0,0.2-0.1l0.9-1.6c0-0.1,0-0.1,0-0.2l-0.9-1.6C28.2,80.4,28.2,80.3,28.1,80.3z"/>
		<path class="st0" d="M43.7,82.2l-0.9,1.6c0,0.1-0.1,0.1-0.2,0.1h-1.9c-0.1,0-0.1,0-0.2-0.1l-0.9-1.6l0,0c0-0.1,0-0.1,0-0.2
			l0.1-0.1l0.9-1.5c0,0,0.1-0.1,0.2-0.1h1.9c0.1,0,0.1,0,0.2,0.1l1,1.6C43.7,82.1,43.7,82.2,43.7,82.2z"/>
		<path class="st0" d="M31.9,78.2c0-0.1-0.1-0.1-0.2-0.1h-1.9c-0.1,0-0.1,0-0.2,0.1l-0.9,1.6c0,0.1,0,0.1,0,0.2l0.9,1.6
			c0,0.1,0.1,0.1,0.2,0.1h1.9c0.1,0,0.1,0,0.2-0.1l0.9-1.6c0-0.1,0-0.1,0-0.2L31.9,78.2z"/>
		<path class="st0" d="M47.3,96.9c0,0,0,0.1,0,0.2l-0.9,1.6c0,0.1-0.1,0.1-0.2,0.1h-1.9c-0.1,0-0.1,0-0.2-0.1l-0.9-1.6l0,0
			c0-0.1,0-0.1,0-0.2l0.1-0.2l0,0l0.8-1.4c0-0.1,0.1-0.1,0.2-0.1h1.9c0.1,0,0.1,0,0.2,0.1L47.3,96.9z"/>
		<path class="st0" d="M40.1,101.4l-0.5,0.8l-0.5,0.8c0,0.1-0.1,0.1-0.2,0.1H37c-0.1,0-0.1,0-0.2-0.1l-0.9-1.6c0-0.1,0-0.1,0-0.2
			l1-1.6c0-0.1,0.1-0.1,0.2-0.1H39c0.1,0,0.1,0,0.2,0.1l0.9,1.6C40.1,101.2,40.1,101.3,40.1,101.4z"/>
		<path class="st0" d="M43.7,86.3c0,0.1,0,0.1,0,0.2l-0.9,1.6c0,0.1-0.1,0.1-0.2,0.1h-1.9c-0.1,0-0.1,0-0.2-0.1l-0.9-1.6
			c0-0.1,0-0.1,0-0.2l0.9-1.6c0-0.1,0.1-0.1,0.2-0.1h1.9c0.1,0,0.1,0,0.2,0.1L43.7,86.3z"/>
		<path class="st0" d="M43.7,99.3l-0.9,1.6c0,0.1-0.1,0.1-0.2,0.1h-1.9c-0.1,0-0.1,0-0.2-0.1l-0.9-1.6c0-0.1,0-0.1,0-0.2l0.9-1.6
			c0,0,0.1-0.1,0.2-0.1h1.9c0.1,0,0.1,0,0.2,0.1l0.2,0.4l0.7,1.2C43.7,99.2,43.7,99.3,43.7,99.3z"/>
		<path class="st0" d="M43.7,94.9c0,0.1,0,0.1,0,0.2l-0.9,1.6c0,0.1-0.1,0.1-0.2,0.1h-1.9c-0.1,0-0.1,0-0.2-0.1l-0.9-1.6
			c0-0.1,0-0.1,0-0.2l0.9-1.6c0-0.1,0.1-0.1,0.2-0.1h1.9c0.1,0,0.1,0,0.2,0.1L43.7,94.9z"/>
		<path class="st0" d="M43.7,90.8l-0.9,1.6c0,0-0.1,0.1-0.2,0.1h-1.9c-0.1,0-0.1,0-0.2-0.1l-0.9-1.6c0-0.1,0-0.1,0-0.2l0.9-1.6
			c0-0.1,0.1-0.1,0.2-0.1h1.9c0.1,0,0.1,0,0.2,0.1l0.9,1.6C43.7,90.7,43.7,90.7,43.7,90.8z"/>
		<path class="st0" d="M24.6,78.2c0-0.1-0.1-0.1-0.2-0.1h-1.9c-0.1,0-0.1,0-0.2,0.1l-0.9,1.6c0,0.1,0,0.1,0,0.2l0.9,1.6
			c0,0.1,0.1,0.1,0.2,0.1h1.9c0.1,0,0.1,0,0.2-0.1l0.9-1.6c0-0.1,0-0.1,0-0.2L24.6,78.2z"/>
		<path class="st0" d="M28.8,92.8l0.9,1.6c0,0.1,0.1,0.1,0.2,0.1h1.9c0.1,0,0.1,0,0.2-0.1l0.9-1.6c0-0.1,0-0.1,0-0.2l-1-1.6
			c0-0.1-0.1-0.1-0.2-0.1h-1.9c-0.1,0-0.1,0-0.2,0.1l-0.9,1.6C28.7,92.7,28.7,92.8,28.8,92.8z"/>
		<path class="st0" d="M31.9,86.7c0-0.1-0.1-0.1-0.2-0.1h-1.9c-0.1,0-0.1,0-0.2,0.1l-0.9,1.6c0,0.1,0,0.1,0,0.2l0.9,1.6
			c0,0.1,0.1,0.1,0.2,0.1h1.9c0.1,0,0.1,0,0.2-0.1l0.9-1.6c0-0.1,0-0.1,0-0.2L31.9,86.7z"/>
		<path class="st0" d="M33.3,101c0,0.1,0.1,0.1,0.2,0.1h1.9c0.1,0,0.1,0,0.2-0.1l0.9-1.6c0-0.1,0-0.1,0-0.2l-0.9-1.6
			c0-0.1-0.1-0.1-0.2-0.1h-1.9c-0.1,0-0.1,0-0.2,0.1l-0.9,1.6c0,0.1,0,0.1,0,0.2L33.3,101z"/>
		<path class="st0" d="M28.8,97.1l0.9,1.6c0,0.1,0.1,0.1,0.2,0.1h1.9c0.1,0,0.1,0,0.2-0.1l0.9-1.6c0-0.1,0-0.1,0-0.2L32,95.3
			c0-0.1-0.1-0.1-0.2-0.1h-1.9c-0.1,0-0.1,0-0.2,0.1l-0.9,1.6C28.7,97,28.7,97,28.8,97.1z"/>
		<path class="st0" d="M35.4,93.2h-1.9c-0.1,0-0.1,0-0.2,0.1l-0.9,1.6c0,0.1,0,0.1,0,0.2l0.9,1.6c0,0.1,0.1,0.1,0.2,0.1h1.9
			c0.1,0,0.1,0,0.2-0.1l0.9-1.6c0-0.1,0-0.1,0-0.2l-0.9-1.6C35.5,93.2,35.4,93.2,35.4,93.2z"/>
		<path class="st0" d="M25.6,84.1l-0.9-1.6c0-0.1-0.1-0.1-0.2-0.1h-1.9c-0.1,0-0.1,0-0.2,0.1l-0.9,1.6c0,0.1,0,0.1,0,0.2l0.9,1.6
			c0,0.1,0.1,0.1,0.2,0.1h1.9c0.1,0,0.1,0,0.2-0.1l0.9-1.6C25.6,84.2,25.6,84.1,25.6,84.1z"/>
		<path class="st0" d="M36.5,90.6l-1-1.6c0-0.1-0.1-0.1-0.2-0.1h-1.9c-0.1,0-0.1,0-0.2,0.1l-0.9,1.6c0,0.1,0,0.1,0,0.2l0.9,1.6
			c0,0.1,0.1,0.1,0.2,0.1h1.9c0.1,0,0.1,0,0.2-0.1l0.9-1.6C36.5,90.7,36.5,90.7,36.5,90.6z"/>
		<path class="st0" d="M26.1,88.1c0,0.1,0.1,0.1,0.2,0.1h1.9c0.1,0,0.1,0,0.2-0.1l0.9-1.6c0-0.1,0-0.1,0-0.2l-0.9-1.6
			c0-0.1-0.1-0.1-0.2-0.1h-1.9c-0.1,0-0.1,0-0.2,0.1l-0.9,1.6c0,0.1,0,0.1,0,0.2L26.1,88.1z"/>
		<path class="st0" d="M40.1,96.9c0,0,0,0.1,0,0.2l-0.9,1.6c0,0.1-0.1,0.1-0.2,0.1h-1.9c-0.1,0-0.1,0-0.2-0.1L36,97.1
			c0-0.1,0-0.1,0-0.2l0.9-1.6c0-0.1,0.1-0.1,0.2-0.1H39c0.1,0,0.1,0,0.2,0.1L40.1,96.9z"/>
		<path class="st0" d="M22.5,90.2c0,0.1,0.1,0.1,0.2,0.1h1.9c0.1,0,0.1,0,0.2-0.1l0.9-1.6c0-0.1,0-0.1,0-0.2l-0.9-1.6
			c0-0.1-0.1-0.1-0.2-0.1h-1.9c-0.1,0-0.1,0-0.2,0.1l-0.9,1.6c0,0.1,0,0.1,0,0.2L22.5,90.2z"/>
		<path class="st0" d="M50.9,108.1c0,0.1,0,0.1,0,0.2l-0.9,1.6c0,0-0.1,0.1-0.2,0.1h-1.9c-0.1,0-0.1,0-0.2-0.1l-0.9-1.6
			c0-0.1,0-0.1,0-0.2l0.9-1.6c0-0.1,0.1-0.1,0.2-0.1h1.9c0.1,0,0.1,0,0.2,0.1L50.9,108.1z"/>
		<path class="st0" d="M51,103.4c0,0.1,0,0.1,0,0.2l-1,1.6c0,0.1-0.1,0.1-0.1,0.1l0,0H48c-0.1,0-0.1,0-0.2-0.1l-0.9-1.6
			c0-0.1,0-0.1,0-0.2l0.9-1.6c0-0.1,0.1-0.1,0.2-0.1h1.9c0.1,0,0.1,0,0.2,0.1L51,103.4z"/>
		<path class="st0" d="M42.8,110.4c0-0.1-0.1-0.1-0.2-0.1h-1.9c-0.1,0-0.1,0-0.2,0.1l-0.9,1.6c0,0.1,0,0.1,0,0.2l0.9,1.6
			c0,0.1,0.1,0.1,0.2,0.1h1.9c0.1,0,0.1,0,0.2-0.1l0.9-1.6c0-0.1,0-0.1,0-0.2L42.8,110.4z"/>
		<path class="st0" d="M43.5,109.3l2.2,2.3h-1.3c-0.1,0-0.1,0-0.2-0.1l-0.9-1.6c0-0.1,0-0.1,0-0.2L43.5,109.3z"/>
		<path class="st0" d="M47.3,109.9l-0.9,1.6c0,0-0.1,0.1-0.2,0.1l-2.5-2.7l0.5-0.8c0-0.1,0.1-0.1,0.2-0.1h1.9c0.1,0,0.1,0,0.2,0.1
			l0.9,1.6C47.4,109.8,47.4,109.9,47.3,109.9z"/>
		<path class="st0" d="M29.2,112l-0.9-1.6c0-0.1-0.1-0.1-0.2-0.1h-1.9c-0.1,0-0.1,0-0.2,0.1l-0.9,1.6c0,0.1,0,0.1,0,0.2l0.9,1.6
			c0,0.1,0.1,0.1,0.2,0.1h1.9c0.1,0,0.1,0,0.2-0.1l0.9-1.6C29.2,112.1,29.2,112.1,29.2,112z"/>
		<path class="st0" d="M25.6,109.7l-0.9-1.6c0-0.1-0.1-0.1-0.2-0.1h-1.9c-0.1,0-0.1,0-0.2,0.1l-0.9,1.6c0,0.1,0,0.1,0,0.2l0.9,1.6
			c0,0.1,0.1,0.1,0.2,0.1h1.9c0.1,0,0.1,0,0.2-0.1l0.9-1.6C25.6,109.9,25.6,109.8,25.6,109.7z"/>
		<path class="st0" d="M39.1,112.4c0-0.1-0.1-0.1-0.2-0.1H37c-0.1,0-0.1,0-0.2,0.1L36,114c0,0.1,0,0.1,0,0.2l0.9,1.6
			c0,0.1,0.1,0.1,0.2,0.1H39c0.1,0,0.1,0,0.2-0.1l0.9-1.6c0-0.1,0-0.1,0-0.2L39.1,112.4z"/>
		<path class="st0" d="M36.5,112l-0.9-1.6c0-0.1-0.1-0.1-0.2-0.1h-1.9c-0.1,0-0.1,0-0.2,0.1l-0.9,1.6c0,0.1,0,0.1,0,0.2l0.9,1.6
			c0,0.1,0.1,0.1,0.2,0.1h1.9c0.1,0,0.1,0,0.2-0.1l0.9-1.6C36.5,112.1,36.5,112.1,36.5,112z"/>
		<path class="st0" d="M31.9,112.4c0-0.1-0.1-0.1-0.2-0.1h-1.9c-0.1,0-0.1,0-0.2,0.1l-0.9,1.6c0,0.1,0,0.1,0,0.2l0.9,1.6
			c0,0.1,0.1,0.1,0.2,0.1h1.9c0.1,0,0.1,0,0.2-0.1l0.9-1.6c0-0.1,0-0.1,0-0.2L31.9,112.4z"/>
		<path class="st0" d="M49.6,67C49.6,67,49.5,67,49.6,67c-0.3,0-0.4,0.1-0.6,0.2c0.1,0.1,0.3,0.1,0.4,0.2l0,0
			c0.2-0.1,0.3-0.1,0.5-0.2C49.9,67.1,49.7,67,49.6,67z M49.6,67C49.6,67,49.5,67,49.6,67c-0.3,0-0.4,0.1-0.6,0.2
			c0.1,0.1,0.3,0.1,0.4,0.2l0,0c0.2-0.1,0.3-0.1,0.5-0.2C49.9,67.1,49.7,67,49.6,67z M49.4,67.3c-0.2-0.1-0.3-0.1-0.4-0.2
			c-0.8,0.4-1.8,0.8-2.8,1.1c0,0.1,0,0.3,0,0.4C47.4,68.2,48.5,67.8,49.4,67.3C49.5,67.3,49.5,67.3,49.4,67.3z M49.6,67
			C49.6,67,49.5,67,49.6,67c-0.3,0-0.4,0.1-0.6,0.2c0.1,0.1,0.3,0.1,0.4,0.2l0,0c0.2-0.1,0.3-0.1,0.5-0.2C49.9,67.1,49.7,67,49.6,67
			z M49.4,67.3c-0.2-0.1-0.3-0.1-0.4-0.2c-0.8,0.4-1.8,0.8-2.8,1.1c0,0.1,0,0.3,0,0.4C47.4,68.2,48.5,67.8,49.4,67.3
			C49.5,67.3,49.5,67.3,49.4,67.3z M49.6,67C49.6,67,49.5,67,49.6,67c-0.3,0-0.4,0.1-0.6,0.2c0.1,0.1,0.3,0.1,0.4,0.2l0,0
			c0.2-0.1,0.3-0.1,0.5-0.2C49.9,67.1,49.7,67,49.6,67z M49.4,67.3c-0.2-0.1-0.3-0.1-0.4-0.2c-0.8,0.4-1.8,0.8-2.8,1.1
			c0,0.1,0,0.3,0,0.4C47.4,68.2,48.5,67.8,49.4,67.3C49.5,67.3,49.5,67.3,49.4,67.3z M49.6,67C49.6,67,49.5,67,49.6,67
			c-0.3,0-0.4,0.1-0.6,0.2c0.1,0.1,0.3,0.1,0.4,0.2l0,0c0.2-0.1,0.3-0.1,0.5-0.2C49.9,67.1,49.7,67,49.6,67z M49.4,67.3
			c-0.2-0.1-0.3-0.1-0.4-0.2c-0.8,0.4-1.8,0.8-2.8,1.1c0,0.1,0,0.3,0,0.4C47.4,68.2,48.5,67.8,49.4,67.3
			C49.5,67.3,49.5,67.3,49.4,67.3z M49.6,67C49.6,67,49.5,67,49.6,67c-0.3,0-0.4,0.1-0.6,0.2c0.1,0.1,0.3,0.1,0.4,0.2l0,0
			c0.2-0.1,0.3-0.1,0.5-0.2C49.9,67.1,49.7,67,49.6,67z M49.4,67.3c-0.2-0.1-0.3-0.1-0.4-0.2c-0.8,0.4-1.8,0.8-2.8,1.1
			c0,0.1,0,0.3,0,0.4C47.4,68.2,48.5,67.8,49.4,67.3C49.5,67.3,49.5,67.3,49.4,67.3z M49.6,67C49.6,67,49.5,67,49.6,67
			c-0.3,0-0.4,0.1-0.6,0.2c0.1,0.1,0.3,0.1,0.4,0.2l0,0c0.2-0.1,0.3-0.1,0.5-0.2C49.9,67.1,49.7,67,49.6,67z M49.4,67.3
			c-0.2-0.1-0.3-0.1-0.4-0.2c-0.8,0.4-1.8,0.8-2.8,1.1c0,0.1,0,0.3,0,0.4C47.4,68.2,48.5,67.8,49.4,67.3
			C49.5,67.3,49.5,67.3,49.4,67.3z M49.6,67C49.6,67,49.5,67,49.6,67c-0.3,0-0.4,0.1-0.6,0.2c0.1,0.1,0.3,0.1,0.4,0.2l0,0
			c0.2-0.1,0.3-0.1,0.5-0.2C49.9,67.1,49.7,67,49.6,67z M49.4,67.3c-0.2-0.1-0.3-0.1-0.4-0.2c-0.8,0.4-1.8,0.8-2.8,1.1
			c0,0.1,0,0.3,0,0.4C47.4,68.2,48.5,67.8,49.4,67.3C49.5,67.3,49.5,67.3,49.4,67.3z M49.4,67.3c-0.2-0.1-0.3-0.1-0.4-0.2
			c-0.8,0.4-1.8,0.8-2.8,1.1c0,0.1,0,0.3,0,0.4C47.4,68.2,48.5,67.8,49.4,67.3C49.5,67.3,49.5,67.3,49.4,67.3z M61.5,78.1
			c0-0.2,0-0.4,0-0.7c-0.1-1.2-0.2-2.4-0.3-3.6c-0.1-0.8-0.2-1.7-0.3-2.5c0-0.1,0-0.3-0.1-0.4c-0.1-0.4-0.1-0.9-0.2-1.3
			c0-0.1-1.8-15-1.6-19.9c0.1-3.6-0.2-9.7-0.4-13l0,0c0-0.7-0.1-1.3-0.1-1.7c0-0.2,0-0.5,0-0.7c-0.1-2.4-0.2-7.3-4-10.9
			c-0.4-0.4-0.8-0.6-1.3-0.8c-0.6-0.2-1.7-0.5-3.1-0.9c-0.2,0-0.4-0.1-0.6-0.2c-2.4-0.7-5.9-1.7-10.2-3l-0.2-0.1
			c-0.2,0-0.4,0-0.5,0.1c-0.2,0.1-0.2,0.3-0.2,0.5v2.5l-2.5-0.3h-3.3l-2.5,0.3v-2.6c0-0.2-0.1-0.4-0.2-0.5c-0.2-0.1-0.4-0.1-0.5-0.1
			L16,22.4c-2.2,0.7-4,2.5-4.5,4.8l-0.1,0.5c-0.6,2.5-1,5.1-1.2,7.7c-0.1,1.1,0,2.2,0.1,3.3l0,0c0,0.1,0.5,8.3,0.7,10.6
			c0,0.1,0,0.4,0,0.8l-1.3,0.3C9.2,50.6,9,50.9,9,51.3c0.5,3.6,0.7,7.2,0.6,10.9c0,0.4,0.2,0.7,0.6,0.7l0.9,0.1v1l-1-0.1
			c-0.3,0-0.5,0.1-0.6,0.4l0,0v0.1c0,3.1-0.2,6.2-0.6,9.3c-0.1,0.6,0,1.2,0.3,1.7c0.4,0.8,0.9,1.9,0.9,2c-0.6,4-1.5,9.4-1.9,13.3
			c-0.5,4.6,0.1,9.2,1.8,13.5l0,0c0.1,0.1,0.2,0.3,0.2,0.4c1.8,3.3,7.4,13.5,23.8,13.5c0.1,0,6.8-0.1,13.6-5
			c0.1-0.1,0.2-0.2,0.3-0.2c1.4-1,2.8-2.2,4.1-3.7l0,0c0.4-0.4,0.8-0.9,1.1-1.4c0.9-1.1,1.8-2.4,2.6-3.7c0.4-0.7,0.9-1.5,1.3-2.3
			c0,0,0,0,0-0.1s0.1-0.1,0.1-0.2c0.1-0.2,0.2-0.4,0.3-0.6c0.5-1,0.9-2.1,1.3-3.1l0,0c0.1-0.3,0.2-0.5,0.3-0.8s0.2-0.6,0.3-0.9l0,0
			c0.2-0.6,0.4-1.3,0.6-1.9c0.1-0.2,0.1-0.4,0.2-0.5c0.2-1,0.4-2,0.6-3c0-0.2,0.1-0.4,0.1-0.6c0.2-1.2,0.4-2.4,0.5-3.6
			c0-0.2,0-0.4,0.1-0.7c0.1-1.2,0.2-2.4,0.2-3.6c0-0.2,0-0.4,0-0.7C61.6,80.5,61.6,79.3,61.5,78.1z M38.7,40.9V19
			c0-0.1,0-0.2,0.1-0.2s0.1,0,0.2,0l0.2,0.1c4,1.2,7.3,2.1,9.7,2.8c0.2,0.1,0.4,0.1,0.6,0.2c1.7,0.5,2.9,0.9,3.6,1.1
			c0.4,0.1,0.8,0.4,1.2,0.7c3.7,3.5,3.8,8.4,3.9,10.7c0,0.3,0,0.6,0,0.8c0,0.4,0.1,1,0.1,1.7c-0.9,3.9-3.8,18-5.3,28.7l0,0h-0.1
			c-0.2,0.1-1.5,0.8-3.4,1.5c-0.2,0.1-0.3,0.1-0.5,0.2c-0.8,0.4-1.8,0.8-2.8,1.1c-2.1,0.8-4.4,1.6-6.6,2.2c-1.7,0.4-3.3,0.8-4.6,0.8
			v-8.8c0.8-0.3,1.4-1.1,1.4-2v-7.4c0-0.9-0.6-1.7-1.4-2v-6C37.1,44.9,38.7,43,38.7,40.9z M34.2,33c1.5,0,2.6,0.6,2.6,1.4
			s-1.2,1.4-2.6,1.4c-1.5,0-2.7-0.6-2.7-1.4C31.6,33.6,32.7,33,34.2,33z M31.6,30.7c0-0.8,1.2-1.4,2.7-1.4s2.6,0.6,2.6,1.4
			s-1.2,1.5-2.6,1.5C32.7,32.1,31.6,31.5,31.6,30.7z M34.2,36.8c1.5,0,2.6,0.6,2.6,1.4c0,0.8-1.2,1.4-2.6,1.4
			c-1.5,0-2.7-0.6-2.7-1.4C31.6,37.4,32.7,36.8,34.2,36.8z M34.2,40.5c1.5,0,2.6,0.6,2.6,1.4c0,0.8-1.2,1.4-2.6,1.4
			c-1.5,0-2.7-0.6-2.7-1.4S32.7,40.5,34.2,40.5z M30.1,21.8l2.5-0.3h3.2l2.5,0.3v7.9c-0.7-1.4-2.1-2.3-3.6-2.3h-1
			c-1.6,0-3,0.9-3.6,2.3V21.8z M10.7,40.4c-0.3-1.7-0.4-3.3-0.3-5c0.2-2.5,0.6-5.1,1.2-7.6l0.1-0.5c0.5-2.2,2.2-3.9,4.3-4.5
			l13.4-4.2c0.1,0,0.2,0,0.2,0c0.1,0,0.1,0.1,0.1,0.2v22c0,2.2,1.6,4,3.8,4.3v6c-0.9,0.3-1.4,1.1-1.4,2v7.4c0,0.9,0.6,1.7,1.4,1.9
			v8.8c-4.3-0.3-10-2.6-14.2-4.3c-1.5-0.6-2.7-1.1-3.7-1.5L10.7,40.4z M56.7,101.8c-0.4,0.7-0.8,1.4-1.1,2.1c-1.2,2-2.5,3.7-3.8,5.2
			c-0.3,0.3-0.6,0.6-0.8,0.9c-1.1,1.1-2.2,2-3.3,2.9c-0.1,0.1-0.2,0.1-0.3,0.2c-6.7,4.8-13.2,4.8-13.3,4.8l0,0
			c-16.2,0-21.6-10-23.4-13.3l-0.2-0.4c5.1-11.9,6.9-25,5.3-37.9c0-0.1,0-0.2,0-0.3c1,0.3,2.2,0.8,3.5,1.4
			c4.3,1.8,10.2,4.2,14.5,4.4l0,0h0.1l0,0c0,0,0,0,0-0.1v-9.2l0,0c0,0,0-0.1-0.1-0.1l0,0c-0.8-0.2-1.3-0.9-1.3-1.6v-7.4
			c0-0.8,0.5-1.4,1.3-1.6l0,0l0.1-0.1l0,0v-6.1c0.3,0,0.5,0,0.8,0v6.1l0,0c0,0,0,0.1,0.1,0.1l0,0c0.8,0.2,1.3,0.9,1.3,1.6v7.4
			c0,0.8-0.5,1.4-1.3,1.6h-0.1l0,0v0.1v9.2c0,0,0,0,0,0.1c0,0,0,0,0,0.1h0.1l0,0c1.4-0.1,3-0.4,4.7-0.8c2.2-0.6,4.5-1.4,6.6-2.2
			c1.2-0.5,2.3-0.9,3.3-1.3c0.2-0.1,0.3-0.1,0.5-0.2c1.5-0.6,2.6-1.2,3-1.4c-0.1,0.8-0.2,1.6-0.3,2.4c0,0.1,0,0.3,0,0.4
			c-0.2,2-0.4,4.1-0.4,6.2l0,0c0,0.1,0,0.7,0,1.6c0,0.7,0,1.5,0.1,2.6l0,0c0,0.6,0.1,1.3,0.1,2l0,0c0,0.6,0.1,1.2,0.1,1.8l0,0
			c0.1,1,0.2,2,0.3,3.1c0,0.2,0,0.4,0.1,0.7c0.2,1.2,0.3,2.4,0.5,3.6c0,0.2,0.1,0.4,0.1,0.6c0.2,1.2,0.5,2.4,0.8,3.6
			c0,0.2,0.1,0.4,0.2,0.7c0.2,1,0.5,1.9,0.8,2.9c0.1,0.3,0.2,0.5,0.3,0.8c0.2,0.7,0.5,1.4,0.8,2.1l0,0
			C56.5,101.3,56.6,101.6,56.7,101.8C56.7,101.8,56.7,101.8,56.7,101.8z M49.4,67.3c-0.2-0.1-0.3-0.1-0.4-0.2
			c-0.8,0.4-1.8,0.8-2.8,1.1c0,0.1,0,0.3,0,0.4C47.4,68.2,48.5,67.8,49.4,67.3C49.5,67.3,49.5,67.3,49.4,67.3z M49.4,67.3
			c-0.2-0.1-0.3-0.1-0.4-0.2c-0.8,0.4-1.8,0.8-2.8,1.1c0,0.1,0,0.3,0,0.4C47.4,68.2,48.5,67.8,49.4,67.3
			C49.5,67.3,49.5,67.3,49.4,67.3z M49.6,67C49.6,67,49.5,67,49.6,67c-0.3,0-0.4,0.1-0.6,0.2c0.1,0.1,0.3,0.1,0.4,0.2l0,0
			c0.2-0.1,0.3-0.1,0.5-0.2C49.9,67.1,49.7,67,49.6,67z M49.4,67.3c-0.2-0.1-0.3-0.1-0.4-0.2c-0.8,0.4-1.8,0.8-2.8,1.1
			c0,0.1,0,0.3,0,0.4C47.4,68.2,48.5,67.8,49.4,67.3C49.5,67.3,49.5,67.3,49.4,67.3z M49.6,67C49.6,67,49.5,67,49.6,67
			c-0.3,0-0.4,0.1-0.6,0.2c0.1,0.1,0.3,0.1,0.4,0.2l0,0c0.2-0.1,0.3-0.1,0.5-0.2C49.9,67.1,49.7,67,49.6,67z M49.4,67.3
			c-0.2-0.1-0.3-0.1-0.4-0.2c-0.8,0.4-1.8,0.8-2.8,1.1c0,0.1,0,0.3,0,0.4C47.4,68.2,48.5,67.8,49.4,67.3
			C49.5,67.3,49.5,67.3,49.4,67.3z M49.6,67C49.6,67,49.5,67,49.6,67c-0.3,0-0.4,0.1-0.6,0.2c0.1,0.1,0.3,0.1,0.4,0.2l0,0
			c0.2-0.1,0.3-0.1,0.5-0.2C49.9,67.1,49.7,67,49.6,67z M49.4,67.3c-0.2-0.1-0.3-0.1-0.4-0.2c-0.8,0.4-1.8,0.8-2.8,1.1
			c0,0.1,0,0.3,0,0.4C47.4,68.2,48.5,67.8,49.4,67.3C49.5,67.3,49.5,67.3,49.4,67.3z M49.6,67C49.6,67,49.5,67,49.6,67
			c-0.3,0-0.4,0.1-0.6,0.2c0.1,0.1,0.3,0.1,0.4,0.2l0,0c0.2-0.1,0.3-0.1,0.5-0.2C49.9,67.1,49.7,67,49.6,67z M49.4,67.3
			c-0.2-0.1-0.3-0.1-0.4-0.2c-0.8,0.4-1.8,0.8-2.8,1.1c0,0.1,0,0.3,0,0.4C47.4,68.2,48.5,67.8,49.4,67.3
			C49.5,67.3,49.5,67.3,49.4,67.3z M49.6,67C49.6,67,49.5,67,49.6,67c-0.3,0-0.4,0.1-0.6,0.2c0.1,0.1,0.3,0.1,0.4,0.2l0,0
			c0.2-0.1,0.3-0.1,0.5-0.2C49.9,67.1,49.7,67,49.6,67z M49.4,67.3c-0.2-0.1-0.3-0.1-0.4-0.2c-0.8,0.4-1.8,0.8-2.8,1.1
			c0,0.1,0,0.3,0,0.4C47.4,68.2,48.5,67.8,49.4,67.3C49.5,67.3,49.5,67.3,49.4,67.3z M49.6,67C49.6,67,49.5,67,49.6,67
			c-0.3,0-0.4,0.1-0.6,0.2c0.1,0.1,0.3,0.1,0.4,0.2l0,0c0.2-0.1,0.3-0.1,0.5-0.2C49.9,67.1,49.7,67,49.6,67z M49.4,67.3
			c-0.2-0.1-0.3-0.1-0.4-0.2c-0.8,0.4-1.8,0.8-2.8,1.1c0,0.1,0,0.3,0,0.4C47.4,68.2,48.5,67.8,49.4,67.3
			C49.5,67.3,49.5,67.3,49.4,67.3z M49.6,67C49.6,67,49.5,67,49.6,67c-0.3,0-0.4,0.1-0.6,0.2c0.1,0.1,0.3,0.1,0.4,0.2l0,0
			c0.2-0.1,0.3-0.1,0.5-0.2C49.9,67.1,49.7,67,49.6,67z"/>
		<path class="st0" d="M22,108.1l-0.9-1.6c0-0.1-0.1-0.1-0.2-0.1H19c-0.1,0-0.1,0-0.2,0.1l-0.9,1.6c0,0.1,0,0.1,0,0.2l0.9,1.6
			c0,0.1,0.1,0.1,0.2,0.1h1.9c0.1,0,0.1,0,0.2-0.1l0.9-1.6C22,108.2,22,108.1,22,108.1z"/>
		<path class="st0" d="M29.7,111.6c0,0.1,0.1,0.1,0.2,0.1h1.9c0.1,0,0.1,0,0.2-0.1l0.9-1.6c0-0.1,0-0.1,0-0.2l-0.9-1.6
			c0-0.1-0.1-0.1-0.2-0.1h-1.9c-0.1,0-0.1,0-0.2,0.1l-0.9,1.6c0,0.1,0,0.1,0,0.2L29.7,111.6z"/>
		<path class="st0" d="M36.9,111.6c0,0.1,0.1,0.1,0.2,0.1H39c0.1,0,0.1,0,0.2-0.1l0.9-1.6c0-0.1,0-0.1,0-0.2l-0.9-1.6
			c0-0.1-0.1-0.1-0.2-0.1h-1.9c-0.1,0-0.1,0-0.2,0.1l-0.9,1.6c0,0.1,0,0.1,0,0.2L36.9,111.6z"/>
		<path class="st0" d="M33.5,109.6h1.9c0.1,0,0.1,0,0.2-0.1l0.9-1.6c0-0.1,0-0.1,0-0.2l-0.9-1.6c0-0.1-0.1-0.1-0.2-0.1h-1.9
			c-0.1,0-0.1,0-0.2,0.1l-0.9,1.6c0,0.1,0,0.1,0,0.2l0.9,1.6C33.4,109.6,33.4,109.6,33.5,109.6z"/>
		<path class="st0" d="M44.4,103.1h1.9c0.1,0,0.1,0,0.2-0.1l0.9-1.6c0-0.1,0-0.1,0-0.2l-0.9-1.6c0-0.1-0.1-0.1-0.2-0.1h-1.9
			c-0.1,0-0.1,0-0.2,0.1l-0.9,1.6c0,0.1,0,0.1,0,0.2l0.9,1.6C44.2,103.1,44.3,103.1,44.4,103.1z"/>
		<path class="st0" d="M47.3,92.8l-0.9,1.6c0,0-0.1,0.1-0.2,0.1h-1.9c-0.1,0-0.1,0-0.2-0.1L44,94.2l-0.8-1.4c0-0.1,0-0.1,0-0.2
			l0.9-1.6c0-0.1,0.1-0.1,0.2-0.1h1.9c0.1,0,0.1,0,0.2,0.1l0.9,1.6C47.4,92.7,47.4,92.8,47.3,92.8z"/>
		<path class="st0" d="M43.7,103.6l-0.9,1.6c0,0.1-0.1,0.1-0.2,0.1h-1.9c-0.1,0-0.1,0-0.2-0.1l-0.9-1.6c0-0.1,0-0.1,0-0.2l0.2-0.4
			l0.7-1.3c0-0.1,0.1-0.1,0.2-0.1h1.9c0.1,0,0.1,0,0.2,0.1l0.9,1.6C43.7,103.5,43.7,103.6,43.7,103.6z"/>
		<path class="st0" d="M22.5,94.4c0,0.1,0.1,0.1,0.2,0.1h1.9c0.1,0,0.1,0,0.2-0.1l0.9-1.6c0-0.1,0-0.1,0-0.2L24.6,91
			c0-0.1-0.1-0.1-0.2-0.1h-1.9c-0.1,0-0.1,0-0.2,0.1l-0.9,1.6c0,0.1,0,0.1,0,0.2L22.5,94.4z"/>
		<path class="st0" d="M22.5,98.7c0,0.1,0.1,0.1,0.2,0.1h1.9c0.1,0,0.1,0,0.2-0.1l0.9-1.6c0-0.1,0-0.1,0-0.2l-0.9-1.6
			c0-0.1-0.1-0.1-0.2-0.1h-1.9c-0.1,0-0.1,0-0.2,0.1l-0.9,1.6c0,0.1,0,0.1,0,0.2L22.5,98.7z"/>
		<path class="st0" d="M22.5,103c0,0.1,0.1,0.1,0.2,0.1h1.9c0.1,0,0.1,0,0.2-0.1l0.9-1.6c0-0.1,0-0.1,0-0.2l-0.9-1.6
			c0-0.1-0.1-0.1-0.2-0.1h-1.9c-0.1,0-0.1,0-0.2,0.1l-0.9,1.6c0,0.1,0,0.1,0,0.2L22.5,103z"/>
		<path class="st0" d="M29.7,107.3c0,0.1,0.1,0.1,0.2,0.1h1.9c0.1,0,0.1,0,0.2-0.1l0.9-1.6c0-0.1,0-0.1,0-0.2l-0.9-1.6
			c0-0.1-0.1-0.1-0.2-0.1h-1.9c-0.1,0-0.1,0-0.2,0.1l-0.9,1.6c0,0.1,0,0.1,0,0.2L29.7,107.3z"/>
		<path class="st0" d="M18.8,105.3c0,0.1,0.1,0.1,0.2,0.1h1.9c0.1,0,0.1,0,0.2-0.1l0.9-1.6c0-0.1,0-0.1,0-0.2l-0.9-1.6
			c0-0.1-0.1-0.1-0.2-0.1H19c-0.1,0-0.1,0-0.2,0.1l-0.9,1.6c0,0.1,0,0.1,0,0.2L18.8,105.3z"/>
		<path class="st0" d="M26.1,105.3c0,0.1,0.1,0.1,0.2,0.1h1.9c0.1,0,0.1,0,0.2-0.1l0.9-1.6c0-0.1,0-0.1,0-0.2l-0.9-1.6
			c0-0.1-0.1-0.1-0.2-0.1h-1.9c-0.1,0-0.1,0-0.2,0.1l-0.9,1.6c0,0.1,0,0.1,0,0.2L26.1,105.3z"/>
		<path class="st0" d="M25.1,78l0.9,1.6c0,0.1,0.1,0.1,0.2,0.1h1.9c0.1,0,0.1,0,0.2-0.1l0.9-1.6c0-0.1,0-0.1,0-0.2l-0.9-1.6
			c0-0.1-0.1-0.1-0.2-0.1h-1.9c-0.1,0-0.1,0-0.2,0.1l-0.9,1.6C25.1,77.8,25.1,77.9,25.1,78z"/>
		<path class="st0" d="M29.7,77.3c0,0.1,0.1,0.1,0.2,0.1h1.9c0.1,0,0.1,0,0.2-0.1l0.9-1.6c0-0.1,0-0.1,0-0.2L32,73.9
			c0-0.1-0.1-0.1-0.2-0.1h-1.9c-0.1,0-0.1,0-0.2,0.1l-0.9,1.6c0,0.1,0,0.1,0,0.2L29.7,77.3z"/>
		<path class="st0" d="M32.4,78l0.9,1.6c0,0.1,0.1,0.1,0.2,0.1h1.9c0.1,0,0.1,0,0.2-0.1l0.9-1.6c0-0.1,0-0.1,0-0.2l-0.9-1.6
			c0-0.1-0.1-0.1-0.2-0.1h-1.9c-0.1,0-0.1,0-0.2,0.1l-0.9,1.6C32.3,77.8,32.4,77.9,32.4,78z"/>
		<path class="st0" d="M22.5,77.3c0,0.1,0.1,0.1,0.2,0.1h1.9c0.1,0,0.1,0,0.2-0.1l0.9-1.6c0-0.1,0-0.1,0-0.2l-0.9-1.6
			c0-0.1-0.1-0.1-0.2-0.1h-1.9c-0.1,0-0.1,0-0.2,0.1l-0.9,1.6c0,0.1,0,0.1,0,0.2L22.5,77.3z"/>
		<path class="st0" d="M47.3,88.3c0,0,0,0.1,0,0.2l-0.9,1.6c0,0.1-0.1,0.1-0.2,0.1h-1.9c-0.1,0-0.1,0-0.2-0.1l-0.9-1.6
			c0-0.1,0-0.1,0-0.2l0.9-1.6c0-0.1,0.1-0.1,0.2-0.1h1.9c0.1,0,0.1,0,0.2,0.1L47.3,88.3z"/>
		<path class="st0" d="M47.3,84.1c0,0,0,0.1,0,0.2l-0.9,1.6c0,0.1-0.1,0.1-0.2,0.1h-1.9c-0.1,0-0.1,0-0.2-0.1l-0.9-1.6
			c0-0.1,0-0.1,0-0.2l0.9-1.6c0-0.1,0.1-0.1,0.2-0.1h1.9c0.1,0,0.1,0,0.2,0.1L47.3,84.1z"/>
		<path class="st0" d="M40.1,75.5c0,0.1,0,0.1,0,0.2l-0.3,0.4l0,0l-0.7,1.2c0,0.1-0.1,0.1-0.2,0.1H37c-0.1,0-0.1,0-0.2-0.1L36,75.7
			c0-0.1,0-0.1,0-0.2l0.9-1.6c0-0.1,0.1-0.1,0.2-0.1H39c0.1,0,0.1,0,0.2,0.1l0.1,0.1l0,0L40.1,75.5z"/>
		<path class="st0" d="M47.3,75.5c0,0.1,0,0.1,0,0.2l-0.8,1.4l-0.1,0.2c0,0.1-0.1,0.1-0.2,0.1h-1.9c-0.1,0-0.1,0-0.2-0.1l-0.9-1.6
			c0-0.1,0-0.1,0-0.2l0.9-1.6c0-0.1,0.1-0.1,0.2-0.1h1.9c0.1,0,0.1,0,0.2,0.1l0.1,0.2l0,0L47.3,75.5z"/>
		<path class="st0" d="M47.3,79.8c0,0,0,0.1,0,0.2l-0.9,1.6l-0.1,0.1l0,0h-1.9c-0.1,0-0.1,0-0.2-0.1L43.3,80c0-0.1,0-0.1,0-0.2
			l0.9-1.6c0-0.1,0.1-0.1,0.2-0.1h1.9c0.1,0,0.1,0,0.2,0.1l0.1,0.1L47.3,79.8z"/>
		<path class="st0" d="M43.7,77.8c0,0.1,0,0.1,0,0.2l-0.9,1.6c0,0.1-0.1,0.1-0.2,0.1h-1.9c-0.1,0-0.1,0-0.2-0.1l-0.4-0.7l0,0l-0.6-1
			c0-0.1,0-0.1,0-0.2l0.5-0.9l0.4-0.7c0-0.1,0.1-0.1,0.2-0.1h1.9c0.1,0,0.1,0,0.2,0.1L43.7,77.8z"/>
	</g>
	<g>
		<path class="st0" d="M60,103c0,0.1,0.1,0.1,0.2,0.1H62c0.1,0,0.1,0,0.2-0.1l0.9-1.6c0-0.1,0-0.1,0-0.2l-0.9-1.6
			c0-0.1-0.1-0.1-0.2-0.1h-1.9c-0.1,0-0.1,0-0.2,0.1l-0.9,1.6c0,0.1,0,0.1,0,0.2L60,103z"/>
		<path class="st0" d="M63.6,105.3c0,0.1,0.1,0.1,0.2,0.1h1.9c0.1,0,0.1,0,0.2-0.1l0.9-1.6c0-0.1,0-0.1,0-0.2l-0.9-1.6
			c0-0.1-0.1-0.1-0.2-0.1h-1.9c-0.1,0-0.1,0-0.2,0.1l-0.9,1.6c0,0.1,0,0.1,0,0.2L63.6,105.3z"/>
		<path class="st0" d="M59.5,99.2c0,0.1,0,0.1,0,0.2l-0.9,1.6c0,0-0.1,0.1-0.2,0.1h-1.9c-0.1,0-0.1,0-0.1-0.1l0,0
			c-0.3-0.7-0.5-1.4-0.8-2.1l0.8-1.3c0-0.1,0.1-0.1,0.2-0.1h1.9c0.1,0,0.1,0,0.2,0.1l0.2,0.4l0,0L59.5,99.2z"/>
		<path class="st0" d="M67.2,107.3c0,0.1,0.1,0.1,0.2,0.1h1.9c0.1,0,0.1,0,0.2-0.1l0.9-1.6c0-0.1,0-0.1,0-0.2l-0.9-1.6
			c0-0.1-0.1-0.1-0.2-0.1h-1.9c-0.1,0-0.1,0-0.2,0.1l-0.9,1.6c0,0.1,0,0.1,0,0.2L67.2,107.3z"/>
		<path class="st0" d="M62.2,82.4c0-0.1-0.1-0.1-0.2-0.1h-1.9c-0.1,0-0.1,0-0.2,0.1L59,84c0,0.1,0,0.1,0,0.2l0.9,1.6
			c0,0.1,0.1,0.1,0.2,0.1H62c0.1,0,0.1,0,0.2-0.1l0.9-1.6c0-0.1,0-0.1,0-0.2L62.2,82.4z"/>
		<path class="st0" d="M70.4,84.1l-0.9-1.6c0-0.1-0.1-0.1-0.2-0.1h-1.9c-0.1,0-0.1,0-0.2,0.1l-0.9,1.6c0,0.1,0,0.1,0,0.2l0.9,1.6
			c0,0.1,0.1,0.1,0.2,0.1h1.9c0.1,0,0.1,0,0.2-0.1l0.9-1.6C70.4,84.2,70.4,84.1,70.4,84.1z"/>
		<path class="st0" d="M55.4,95.1l0.9,1.6c0,0.1,0.1,0.1,0.2,0.1h1.9c0.1,0,0.1,0,0.2-0.1l0.9-1.6c0-0.1,0-0.1,0-0.2l-0.9-1.6
			c0-0.1-0.1-0.1-0.2-0.1h-1.9c-0.1,0-0.1,0-0.2,0.1l-0.9,1.6C55.4,94.9,55.4,95,55.4,95.1z"/>
		<path class="st0" d="M70.4,88.3l-0.9-1.6c0-0.1-0.1-0.1-0.2-0.1h-1.9c-0.1,0-0.1,0-0.2,0.1l-0.9,1.6c0,0.1,0,0.1,0,0.2l0.9,1.6
			c0,0.1,0.1,0.1,0.2,0.1h1.9c0.1,0,0.1,0,0.2-0.1l0.9-1.6C70.4,88.5,70.4,88.4,70.4,88.3z"/>
		<path class="st0" d="M55.4,90.8l0.9,1.6c0,0.1,0.1,0.1,0.2,0.1h1.9c0.1,0,0.1,0,0.2-0.1l0.9-1.6c0-0.1,0-0.1,0-0.2L58.6,89
			c0-0.1-0.1-0.1-0.2-0.1h-1.9c-0.1,0-0.1,0-0.2,0.1l-0.9,1.6C55.4,90.7,55.4,90.7,55.4,90.8z"/>
		<path class="st0" d="M65.7,84.6h-1.9c-0.1,0-0.1,0-0.2,0.1l-0.9,1.6c0,0.1,0,0.1,0,0.2l0.9,1.6c0,0.1,0.1,0.1,0.2,0.1h1.9
			c0.1,0,0.1,0,0.2-0.1l0.9-1.6c0-0.1,0-0.1,0-0.2l-0.9-1.6C65.8,84.6,65.7,84.6,65.7,84.6z"/>
		<path class="st0" d="M65.7,80.3h-1.9c-0.1,0-0.1,0-0.2,0.1L62.7,82c0,0.1,0,0.1,0,0.2l0.9,1.6c0,0.1,0.1,0.1,0.2,0.1h1.9
			c0.1,0,0.1,0,0.2-0.1l0.9-1.6c0-0.1,0-0.1,0-0.2l-0.9-1.6C65.8,80.4,65.7,80.3,65.7,80.3z"/>
		<path class="st0" d="M70.4,92.6l-1-1.6c0-0.1-0.1-0.1-0.2-0.1h-1.9c-0.1,0-0.1,0-0.2,0.1l-0.9,1.6c0,0.1,0,0.1,0,0.2l0.9,1.6
			c0,0.1,0.1,0.1,0.2,0.1h1.9c0.1,0,0.1,0,0.2-0.1l0.9-1.6C70.4,92.8,70.4,92.7,70.4,92.6z"/>
		<path class="st0" d="M69.4,78.2c0-0.1-0.1-0.1-0.2-0.1h-1.9c-0.1,0-0.1,0-0.2,0.1l-0.9,1.6c0,0.1,0,0.1,0,0.2l0.9,1.6
			c0,0.1,0.1,0.1,0.2,0.1h1.9c0.1,0,0.1,0,0.2-0.1l0.9-1.6c0-0.1,0-0.1,0-0.2L69.4,78.2z"/>
		<path class="st0" d="M58.4,80.3h-1.9c-0.1,0-0.1,0-0.2,0.1L55.4,82c0,0.1,0,0.1,0,0.2l0.9,1.6c0,0.1,0.1,0.1,0.2,0.1h1.9
			c0.1,0,0.1,0,0.2-0.1l0.9-1.6c0-0.1,0-0.1,0-0.2l-0.9-1.6C58.5,80.4,58.5,80.3,58.4,80.3z"/>
		<path class="st0" d="M74,82.1l-0.9-1.6c0-0.1-0.1-0.1-0.2-0.1H71c-0.1,0-0.1,0-0.2,0.1l-0.9,1.6c0,0.1,0,0.1,0,0.2l0.9,1.6
			c0,0.1,0.1,0.1,0.2,0.1h1.9c0.1,0,0.1,0,0.2-0.1l0.9-1.6C74,82.2,74,82.1,74,82.1z"/>
		<path class="st0" d="M62.2,78.2c0-0.1-0.1-0.1-0.2-0.1h-1.9c-0.1,0-0.1,0-0.2,0.1L59,79.8c0,0.1,0,0.1,0,0.2l0.9,1.6
			c0,0.1,0.1,0.1,0.2,0.1H62c0.1,0,0.1,0,0.2-0.1l0.9-1.6c0-0.1,0-0.1,0-0.2L62.2,78.2z"/>
		<path class="st0" d="M74.7,98.8h1.9c0.1,0,0.1,0,0.2-0.1l0.9-1.6c0-0.1,0-0.1,0-0.2l-0.9-1.6c0-0.1-0.1-0.1-0.2-0.1h-1.9
			c-0.1,0-0.1,0-0.2,0.1l-0.9,1.6c0,0.1,0,0.1,0,0.2l0.9,1.6C74.5,98.8,74.6,98.8,74.7,98.8z"/>
		<path class="st0" d="M70.4,101.2l-0.9-1.6c0-0.1-0.1-0.1-0.2-0.1h-1.9c-0.1,0-0.1,0-0.2,0.1l-0.9,1.6c0,0.1,0,0.1,0,0.2l0.9,1.6
			c0,0.1,0.1,0.1,0.2,0.1h1.9c0.1,0,0.1,0,0.2-0.1l0.9-1.6C70.4,101.3,70.4,101.2,70.4,101.2z"/>
		<path class="st0" d="M74,86.3l-0.9-1.6c0-0.1-0.1-0.1-0.2-0.1H71c-0.1,0-0.1,0-0.2,0.1l-0.9,1.6c0,0.1,0,0.1,0,0.2l0.9,1.6
			c0,0.1,0.1,0.1,0.2,0.1h1.9c0.1,0,0.1,0,0.2-0.1l0.9-1.6C74,86.5,74,86.4,74,86.3z"/>
		<path class="st0" d="M71,101.1h1.9c0.1,0,0.1,0,0.2-0.1l0.9-1.6c0-0.1,0-0.1,0-0.2l-0.9-1.6c0-0.1-0.1-0.1-0.2-0.1H71
			c-0.1,0-0.1,0-0.2,0.1l-0.9,1.6c0,0.1,0,0.1,0,0.2l0.9,1.6C70.9,101,71,101.1,71,101.1z"/>
		<path class="st0" d="M73.1,93.3c0-0.1-0.1-0.1-0.2-0.1H71c-0.1,0-0.1,0-0.2,0.1l-0.9,1.6c0,0.1,0,0.1,0,0.2l0.9,1.6
			c0,0.1,0.1,0.1,0.2,0.1h1.9c0.1,0,0.1,0,0.2-0.1l0.9-1.6c0-0.1,0-0.1,0-0.2L73.1,93.3z"/>
		<path class="st0" d="M74,90.6L73.1,89c0-0.1-0.1-0.1-0.2-0.1H71c-0.1,0-0.1,0-0.2,0.1l-0.9,1.6c0,0.1,0,0.1,0,0.2l0.9,1.6
			c0,0.1,0.1,0.1,0.2,0.1h1.9c0.1,0,0.1,0,0.2-0.1l0.9-1.6C74,90.7,74,90.7,74,90.6z"/>
		<path class="st0" d="M55.9,79.8c0,0,0,0.1,0,0.2L55,81.6c0,0.1-0.1,0.1-0.2,0.1h-1.9c-0.1,0-0.1,0-0.2-0.1L52.4,81l0,0
			c0-0.7-0.1-1.4-0.1-2l0,0l0.5-0.8c0-0.1,0.1-0.1,0.2-0.1h1.9c0.1,0,0.1,0,0.2,0.1L55.9,79.8z"/>
		<path class="st0" d="M59.1,92.8l0.9,1.6c0,0.1,0.1,0.1,0.2,0.1H62c0.1,0,0.1,0,0.2-0.1l0.9-1.6c0-0.1,0-0.1,0-0.2L62.2,91
			c0-0.1-0.1-0.1-0.2-0.1h-1.9c-0.1,0-0.1,0-0.2,0.1L59,92.6C59,92.7,59,92.8,59.1,92.8z"/>
		<path class="st0" d="M62.2,86.7c0-0.1-0.1-0.1-0.2-0.1h-1.9c-0.1,0-0.1,0-0.2,0.1L59,88.3c0,0.1,0,0.1,0,0.2l0.9,1.6
			c0,0.1,0.1,0.1,0.2,0.1H62c0.1,0,0.1,0,0.2-0.1l0.9-1.6c0-0.1,0-0.1,0-0.2L62.2,86.7z"/>
		<path class="st0" d="M63.6,101c0,0.1,0.1,0.1,0.2,0.1h1.9c0.1,0,0.1,0,0.2-0.1l0.9-1.6c0-0.1,0-0.1,0-0.2l-0.9-1.6
			c0-0.1-0.1-0.1-0.2-0.1h-1.9c-0.1,0-0.1,0-0.2,0.1l-0.9,1.6c0,0.1,0,0.1,0,0.2L63.6,101z"/>
		<path class="st0" d="M59.1,97.1l0.9,1.6c0,0.1,0.1,0.1,0.2,0.1H62c0.1,0,0.1,0,0.2-0.1l0.9-1.6c0-0.1,0-0.1,0-0.2l-0.9-1.6
			c0-0.1-0.1-0.1-0.2-0.1h-1.9c-0.1,0-0.1,0-0.2,0.1L59,96.9C59,97,59,97,59.1,97.1z"/>
		<path class="st0" d="M65.7,93.2h-1.9c-0.1,0-0.1,0-0.2,0.1l-0.9,1.6c0,0.1,0,0.1,0,0.2l0.9,1.6c0,0.1,0.1,0.1,0.2,0.1h1.9
			c0.1,0,0.1,0,0.2-0.1l0.9-1.6c0-0.1,0-0.1,0-0.2l-0.9-1.6C65.8,93.2,65.7,93.2,65.7,93.2z"/>
		<path class="st0" d="M55.9,84.1c0,0,0,0.1,0,0.2L55,85.9c0,0.1-0.1,0.1-0.2,0.1h-1.9c0,0,0,0-0.1,0c-0.1-1.1-0.2-2.1-0.3-3.1l0,0
			l0.2-0.4c0-0.1,0.1-0.1,0.2-0.1h1.9c0.1,0,0.1,0,0.2,0.1L55.9,84.1z"/>
		<path class="st0" d="M66.8,90.6l-1-1.6c0-0.1-0.1-0.1-0.2-0.1h-1.9c-0.1,0-0.1,0-0.2,0.1l-0.9,1.6c0,0.1,0,0.1,0,0.2l0.9,1.6
			c0,0.1,0.1,0.1,0.2,0.1h1.9c0.1,0,0.1,0,0.2-0.1l0.9-1.6C66.8,90.7,66.8,90.7,66.8,90.6z"/>
		<path class="st0" d="M56.4,88.1c0,0.1,0.1,0.1,0.2,0.1h1.9c0.1,0,0.1,0,0.2-0.1l0.9-1.6c0-0.1,0-0.1,0-0.2l-0.9-1.6
			c0-0.1-0.1-0.1-0.2-0.1h-1.9c-0.1,0-0.1,0-0.2,0.1l-0.9,1.6c0,0.1,0,0.1,0,0.2L56.4,88.1z"/>
		<path class="st0" d="M67.4,98.8h1.9c0.1,0,0.1,0,0.2-0.1l0.9-1.6c0-0.1,0-0.1,0-0.2l-0.9-1.6c0-0.1-0.1-0.1-0.2-0.1h-1.9
			c-0.1,0-0.1,0-0.2,0.1l-0.9,1.6c0,0.1,0,0.1,0,0.2l0.9,1.6C67.3,98.8,67.3,98.8,67.4,98.8z"/>
		<path class="st0" d="M55.9,88.3c0,0,0,0.1,0,0.2L55,90.2c0,0.1-0.1,0.1-0.2,0.1h-1.3c-0.2-1.2-0.4-2.5-0.5-3.6h1.9
			c0.1,0,0.1,0,0.2,0.1L55.9,88.3z"/>
		<path class="st0" d="M80.3,106.4c0-0.1-0.1-0.1-0.2-0.1h-1.9c-0.1,0-0.1,0-0.2,0.1l-0.9,1.6c0,0.1,0,0.1,0,0.2l0.9,1.6
			c0,0.1,0.1,0.1,0.2,0.1h1.9c0.1,0,0.1,0,0.2-0.1l0.9-1.6c0-0.1,0-0.1,0-0.2L80.3,106.4z"/>
		<path class="st0" d="M80.3,101.8c0-0.1-0.1-0.1-0.2-0.1h-1.9c-0.1,0-0.1,0-0.2,0.1l-0.9,1.6c0,0.1,0,0.1,0,0.2l0.9,1.6
			c0,0.1,0.1,0.1,0.2,0.1h1.9c0.1,0,0.1,0,0.2-0.1l0.9-1.6c0-0.1,0-0.1,0-0.2L80.3,101.8z"/>
		<path class="st0" d="M73.1,110.4c0-0.1-0.1-0.1-0.2-0.1H71c-0.1,0-0.1,0-0.2,0.1l-0.9,1.6c0,0.1,0,0.1,0,0.2l0.9,1.6
			c0,0.1,0.1,0.1,0.2,0.1h1.9c0.1,0,0.1,0,0.2-0.1l0.9-1.6c0-0.1,0-0.1,0-0.2L73.1,110.4z"/>
		<path class="st0" d="M76.7,108.1c0-0.1-0.1-0.1-0.2-0.1h-1.9c-0.1,0-0.1,0-0.2,0.1l-0.9,1.6c0,0.1,0,0.1,0,0.2l0.9,1.6
			c0,0.1,0.1,0.1,0.2,0.1h1.9c0.1,0,0.1,0,0.2-0.1l0.9-1.6c0-0.1,0-0.1,0-0.2L76.7,108.1z"/>
		<path class="st0" d="M59.5,112l-0.9-1.6c0-0.1-0.1-0.1-0.2-0.1h-1.9c-0.1,0-0.1,0-0.2,0.1l-0.9,1.6c0,0.1,0,0.1,0,0.2l0.9,1.6
			c0,0.1,0.1,0.1,0.2,0.1h1.9c0.1,0,0.1,0,0.2-0.1l0.9-1.6C59.5,112.1,59.5,112.1,59.5,112z"/>
		<path class="st0" d="M55.9,109.7l-0.9-1.6c0-0.1-0.1-0.1-0.2-0.1h-1.9c-0.1,0-0.1,0-0.2,0.1l-0.9,1.6c0,0.1,0,0.1,0,0.2l0.9,1.6
			c0,0.1,0.1,0.1,0.2,0.1h1.9c0.1,0,0.1,0,0.2-0.1l0.9-1.6C55.9,109.9,55.9,109.8,55.9,109.7z"/>
		<path class="st0" d="M69.4,112.4c0-0.1-0.1-0.1-0.2-0.1h-1.9c-0.1,0-0.1,0-0.2,0.1l-0.9,1.6c0,0.1,0,0.1,0,0.2l0.9,1.6
			c0,0.1,0.1,0.1,0.2,0.1h1.9c0.1,0,0.1,0,0.2-0.1l0.9-1.6c0-0.1,0-0.1,0-0.2L69.4,112.4z"/>
		<path class="st0" d="M66.8,112l-0.9-1.6c0-0.1-0.1-0.1-0.2-0.1h-1.9c-0.1,0-0.1,0-0.2,0.1l-0.9,1.6c0,0.1,0,0.1,0,0.2l0.9,1.6
			c0,0.1,0.1,0.1,0.2,0.1h1.9c0.1,0,0.1,0,0.2-0.1l0.9-1.6C66.8,112.1,66.8,112.1,66.8,112z"/>
		<path class="st0" d="M62.2,112.4c0-0.1-0.1-0.1-0.2-0.1h-1.9c-0.1,0-0.1,0-0.2,0.1L59,114c0,0.1,0,0.1,0,0.2l0.9,1.6
			c0,0.1,0.1,0.1,0.2,0.1H62c0.1,0,0.1,0,0.2-0.1l0.9-1.6c0-0.1,0-0.1,0-0.2L62.2,112.4z"/>
		<path class="st0" d="M49.6,67C49.6,67,49.5,67,49.6,67c-0.3,0-0.4,0.1-0.6,0.2c0.1,0.1,0.3,0.1,0.4,0.2l0,0
			c0.2-0.1,0.3-0.1,0.5-0.2C49.9,67.1,49.7,67,49.6,67z M91,69.6c0-0.1-1.8-15-1.6-19.9c0.1-3.6-0.2-9.7-0.4-13l0,0
			c0-0.7-0.1-1.3-0.1-1.7c0-0.2,0-0.5,0-0.7c0-2.4-0.2-7.3-4-10.9c-0.4-0.4-0.8-0.6-1.3-0.8c-1.8-0.5-6.5-1.9-14-4.1l-0.2-0.1
			c-0.2,0-0.4,0-0.5,0.1c-0.2,0.1-0.2,0.3-0.2,0.5v2.5l-2.4-0.3H63l-2.5,0.3v-2.6c0-0.2-0.1-0.4-0.2-0.5c-0.2-0.1-0.4-0.1-0.5-0.1
			l-10.1,3.1l-0.6,0.2c0.2,0.1,0.4,0.1,0.6,0.2l0.6-0.2l9.5-3c0.1,0,0.1,0,0.2,0c0.1,0,0.1,0.1,0.1,0.2v22c0,2.2,1.6,4,3.8,4.3v6
			c-0.8,0.3-1.4,1.1-1.4,2v7.4c0,0.9,0.6,1.7,1.4,1.9v8.8C63,71.1,62,71,61,70.8c-2.6-0.6-5.6-1.6-8.2-2.7c0,0.1,0,0.3,0,0.4
			c2.7,1,5.6,2.1,8.3,2.6c1.1,0.2,2.1,0.4,3,0.4l0,0c0.1,0,0.1,0,0.1,0l0,0c0,0,0,0,0-0.1v-9.2l0,0c0,0,0-0.1-0.1-0.1l0,0
			c-0.8-0.2-1.3-0.9-1.3-1.6v-7.4c0-0.8,0.5-1.4,1.3-1.6l0,0l0.1-0.1l0,0v-6.1c0.3,0,0.5,0,0.8,0v6.1l0,0c0,0,0,0.1,0.1,0.1l0,0
			c0.8,0.2,1.3,0.9,1.3,1.6v7.4c0,0.8-0.5,1.4-1.3,1.6c0,0,0,0-0.1,0l0,0v0.1v9.2c0,0,0,0,0,0.1c0,0,0,0,0,0.1h0.1l0,0
			c5.9-0.3,16.7-5.2,18.1-5.9c-0.4,3-0.7,6-0.8,9c0,0.2-0.3,16,4.5,27c-8,15.9-22.6,16.1-22.7,16.1l0,0c-7.5,0-12.8-2.2-16.3-4.8
			c-0.1-0.1-0.2-0.2-0.3-0.2c-0.1,0.1-0.2,0.1-0.3,0.2c0.1,0.1,0.2,0.2,0.3,0.2c3.7,2.7,9,5,16.7,5c0.2,0,15-0.2,23.1-16.3
			c0,0,0,0,0-0.1c1.3-2.6,2.3-5.3,3-8C92.2,85.9,92.4,77.6,91,69.6z M60.4,29.7v-7.9l2.5-0.3h3.2l2.5,0.3v7.9
			c-0.7-1.4-2.1-2.3-3.7-2.3H64C62.5,27.4,61,28.3,60.4,29.7z M64.5,35.9c-1.5,0-2.7-0.6-2.7-1.4c0-0.8,1.2-1.4,2.7-1.4
			s2.6,0.6,2.6,1.4S66,35.9,64.5,35.9z M67.2,38.2c0,0.8-1.2,1.4-2.6,1.4c-1.5,0-2.7-0.6-2.7-1.4c0-0.8,1.2-1.4,2.7-1.4
			C66,36.8,67.2,37.4,67.2,38.2z M64.5,32.1c-1.5,0-2.7-0.6-2.7-1.5c0-0.8,1.2-1.4,2.7-1.4s2.6,0.6,2.6,1.4S66,32.1,64.5,32.1z
			 M64.5,43.4c-1.5,0-2.7-0.6-2.7-1.4s1.2-1.4,2.7-1.4s2.6,0.6,2.6,1.4C67.2,42.8,66,43.4,64.5,43.4z M83.3,65.4L83.3,65.4
			C83.2,65.4,83.2,65.4,83.3,65.4c-0.8,0.4-11.9,5.6-18,5.9v-8.8c0.8-0.3,1.4-1.1,1.4-2v-7.4c0-0.9-0.6-1.7-1.4-2v-6
			c2.1-0.3,3.7-2.2,3.7-4.3V19c0-0.1,0-0.2,0.1-0.2s0.1,0,0.2,0l0.2,0.1c7.5,2.2,12.2,3.5,14,4.1c0.4,0.1,0.8,0.4,1.2,0.7
			c3.7,3.5,3.8,8.4,3.9,10.7c0,0.3,0,0.6,0,0.8c0,0.4,0.1,1,0.1,1.7C87.7,40.6,84.8,54.7,83.3,65.4z M50,67.1
			c-0.1,0-0.3-0.1-0.4-0.2h-0.1C49.3,67,49.2,67,49,67.1c0.1,0.1,0.3,0.1,0.4,0.2l0,0C49.7,67.3,49.8,67.2,50,67.1z M49.6,67
			C49.6,67,49.5,67,49.6,67c-0.3,0-0.4,0.1-0.6,0.2c0.1,0.1,0.3,0.1,0.4,0.2l0,0c0.2-0.1,0.3-0.1,0.5-0.2C49.9,67.1,49.7,67,49.6,67
			z M39.1,86.7L39.1,86.7c-0.3,1.2-0.4,2.4-0.6,3.5H39c0.1,0,0.1,0,0.2-0.1l0.9-1.6c0-0.1,0-0.1,0-0.2L39.1,86.7z M39.5,83.1
			c-0.1,0.9-0.3,1.8-0.4,2.8l0,0l0.9-1.6c0-0.1,0-0.1,0-0.2L39.5,83.1z M40.1,101.2l-0.9-1.6c0-0.1-0.1-0.1-0.2-0.1h-0.1
			c0.2,0.9,0.4,1.9,0.7,2.8l0.5-0.8C40.1,101.3,40.1,101.2,40.1,101.2z M40.1,92.6l-1-1.6c0-0.1-0.1-0.1-0.2-0.1h-0.5
			c-0.1,1.2-0.2,2.4-0.1,3.6H39c0.1,0,0.1,0,0.2-0.1l0.9-1.6C40.1,92.8,40.1,92.7,40.1,92.6z M39.1,95.3c0-0.1-0.1-0.1-0.2-0.1h-0.6
			c0.1,1.2,0.2,2.4,0.4,3.6H39c0.1,0,0.1,0,0.2-0.1l0.9-1.6c0-0.1,0-0.1,0-0.2L39.1,95.3z M40,79.7c0,0.2,0,0.3-0.1,0.4l0.1-0.2
			C40.1,79.9,40.1,79.8,40,79.7L40,79.7z M39.2,74c0,0.5,0.1,1,0.3,1.4c0.1,0.2,0.2,0.5,0.3,0.7l0.3-0.4c0-0.1,0-0.1,0-0.2L39.2,74z
			 M42.8,97.5c0,0-0.1-0.1-0.2-0.1h-1.9c-0.1,0-0.1,0-0.2,0.1l-0.9,1.6c0,0.1,0,0.1,0,0.2l0.9,1.6c0,0.1,0.1,0.1,0.2,0.1h1.2
			c0.4-1,0.8-2.1,1.1-3.1L42.8,97.5z M43.3,96.9c0,0.1,0,0.1,0,0.2c0-0.1,0.1-0.3,0.1-0.4L43.3,96.9z M42.8,76.1
			c0-0.1-0.1-0.1-0.2-0.1h-1.9c-0.1,0-0.1,0-0.2,0.1l-0.4,0.7c0.1,0.3,0.2,0.5,0.3,0.6c-0.1,0.5-0.1,1-0.2,1.5l0,0l0.4,0.7
			c0,0.1,0.1,0.1,0.2,0.1h1.9c0.1,0,0.1,0,0.2-0.1l0.9-1.6c0-0.1,0-0.1,0-0.2L42.8,76.1z M42.8,93.3c0-0.1-0.1-0.1-0.2-0.1h-1.9
			c-0.1,0-0.1,0-0.2,0.1l-0.9,1.6c0,0.1,0,0.1,0,0.2l0.9,1.6c0,0.1,0.1,0.1,0.2,0.1h1.9c0.1,0,0.1,0,0.2-0.1l0.9-1.6
			c0-0.1,0-0.1,0-0.2L42.8,93.3z M43.7,90.6L42.8,89c0-0.1-0.1-0.1-0.2-0.1h-1.9c-0.1,0-0.1,0-0.2,0.1l-0.9,1.6c0,0.1,0,0.1,0,0.2
			l0.9,1.6c0,0,0.1,0.1,0.2,0.1h1.9c0.1,0,0.1,0,0.2-0.1l0.9-1.6C43.7,90.7,43.7,90.7,43.7,90.6z M42.8,84.7c0-0.1-0.1-0.1-0.2-0.1
			h-1.9c-0.1,0-0.1,0-0.2,0.1l-0.9,1.6c0,0.1,0,0.1,0,0.2l0.9,1.6c0,0.1,0.1,0.1,0.2,0.1h1.9c0.1,0,0.1,0,0.2-0.1l0.9-1.6
			c0-0.1,0-0.1,0-0.2L42.8,84.7z M43.7,82.1l-1-1.6c0,0-0.1-0.1-0.2-0.1h-1.9c-0.1,0-0.1,0-0.2,0.1L39.5,82c0,0.1,0,0.3-0.1,0.4
			l0.9,1.6c0,0.1,0.1,0.1,0.2,0.1h1.9c0.1,0,0.1,0,0.2-0.1l0.9-1.6C43.7,82.2,43.7,82.1,43.7,82.1z M44.3,90.9c-0.1,0-0.1,0-0.2,0.1
			l-0.9,1.6c0,0.1,0,0.1,0,0.2l0.8,1.4c0.3-1.1,0.6-2.2,0.8-3.4h-0.5V90.9z M44.3,86.6c-0.1,0-0.1,0-0.2,0.1l-0.9,1.6
			c0,0,0,0.1,0,0.2l0.9,1.6c0,0.1,0.1,0.1,0.2,0.1H45c0.2-1.2,0.5-2.4,0.7-3.6C45.7,86.6,44.3,86.6,44.3,86.6z M44.3,82.3
			c-0.1,0-0.1,0-0.2,0.1L43.2,84c0,0,0,0.1,0,0.2l0.9,1.6c0,0.1,0.1,0.1,0.2,0.1h1.4c0.2-1.2,0.3-2.4,0.4-3.6
			C46.1,82.3,44.3,82.3,44.3,82.3z M46.2,68.3c-2.1,0.8-4.4,1.6-6.6,2.2c0,0.1,0,0.3,0,0.4c2.2-0.6,4.5-1.4,6.6-2.2
			C46.2,68.6,46.2,68.4,46.2,68.3z M46.4,78.2c0-0.1-0.1-0.1-0.2-0.1h-1.9c-0.1,0-0.1,0-0.2,0.1l-0.9,1.6c0,0,0,0.1,0,0.2l0.9,1.6
			c0,0.1,0.1,0.1,0.2,0.1h1.9l0,0C46.3,80.6,46.4,79.5,46.4,78.2L46.4,78.2z M46.4,73.9c0-0.1-0.1-0.1-0.2-0.1h-1.9
			c-0.1,0-0.1,0-0.2,0.1l-0.9,1.6c0,0.1,0,0.1,0,0.2l0.9,1.6c0,0.1,0.1,0.1,0.2,0.1h1.9c0.1,0,0.1,0,0.2-0.1l0.1-0.2c0-1,0-2,0-3
			l0,0L46.4,73.9z M40.7,104.2c0.4-0.8,0.7-1.6,1-2.5h-0.9c-0.1,0-0.1,0-0.2,0.1l-0.7,1.3c0.1,0.4,0.3,0.8,0.4,1.2l0,0
			c0.1,0.1,0.2,0.3,0.2,0.4c0.1,0.2,0.2,0.4,0.3,0.6h0.4c-0.2-0.3-0.3-0.6-0.4-0.8L40.7,104.2z"/>
		<path class="st0" d="M50,106.4l0.9,1.6c0,0.1,0,0.1,0,0.2l-0.9,1.6c0,0-0.1,0.1-0.2,0.1h-0.5c-0.1,0-0.1,0-0.2-0.1l-0.9-1.6
			c0-0.1,0-0.1,0-0.2l0.9-1.6c0-0.1,0.1-0.1,0.2-0.1h0.5C49.9,106.3,49.9,106.4,50,106.4z"/>
		<path class="st0" d="M51.8,109.1l-0.5,0.8c0,0-0.1,0.1-0.2,0.1h-0.2C51.2,109.7,51.5,109.4,51.8,109.1z"/>
		<path class="st0" d="M60,111.6c0,0.1,0.1,0.1,0.2,0.1H62c0.1,0,0.1,0,0.2-0.1l0.9-1.6c0-0.1,0-0.1,0-0.2l-0.9-1.6
			c0-0.1-0.1-0.1-0.2-0.1h-1.9c-0.1,0-0.1,0-0.2,0.1l-0.9,1.6c0,0.1,0,0.1,0,0.2L60,111.6z"/>
		<path class="st0" d="M67.2,111.6c0,0.1,0.1,0.1,0.2,0.1h1.9c0.1,0,0.1,0,0.2-0.1l0.9-1.6c0-0.1,0-0.1,0-0.2l-0.9-1.6
			c0-0.1-0.1-0.1-0.2-0.1h-1.9c-0.1,0-0.1,0-0.2,0.1l-0.9,1.6c0,0.1,0,0.1,0,0.2L67.2,111.6z"/>
		<path class="st0" d="M63.8,109.6h1.9c0.1,0,0.1,0,0.2-0.1l0.9-1.6c0-0.1,0-0.1,0-0.2l-0.9-1.6c0-0.1-0.1-0.1-0.2-0.1h-1.9
			c-0.1,0-0.1,0-0.2,0.1l-0.9,1.6c0,0.1,0,0.1,0,0.2l0.9,1.6C63.6,109.6,63.7,109.6,63.8,109.6z"/>
		<path class="st0" d="M74.7,103.1h1.9c0.1,0,0.1,0,0.2-0.1l0.9-1.6c0-0.1,0-0.1,0-0.2l-0.9-1.6c0-0.1-0.1-0.1-0.2-0.1h-1.9
			c-0.1,0-0.1,0-0.2,0.1l-0.9,1.6c0,0.1,0,0.1,0,0.2l0.9,1.6C74.5,103.1,74.6,103.1,74.7,103.1z"/>
		<path class="st0" d="M76.7,91c0-0.1-0.1-0.1-0.2-0.1h-1.9c-0.1,0-0.1,0-0.2,0.1l-0.9,1.6c0,0.1,0,0.1,0,0.2l0.9,1.6
			c0,0.1,0.1,0.1,0.2,0.1h1.9c0.1,0,0.1,0,0.2-0.1l0.9-1.6c0-0.1,0-0.1,0-0.2L76.7,91z"/>
		<path class="st0" d="M71,105.3h1.9c0.1,0,0.1,0,0.2-0.1l0.9-1.6c0-0.1,0-0.1,0-0.2l-0.9-1.6c0-0.1-0.1-0.1-0.2-0.1H71
			c-0.1,0-0.1,0-0.2,0.1l-0.9,1.6c0,0.1,0,0.1,0,0.2l0.9,1.6C70.9,105.3,71,105.3,71,105.3z"/>
		<path class="st0" d="M55.9,92.6c0,0.1,0,0.1,0,0.2L55,94.4c0,0-0.1,0.1-0.2,0.1h-0.4c-0.3-1.2-0.6-2.4-0.8-3.6h1.2
			c0.1,0,0.1,0,0.2,0.1L55.9,92.6z"/>
		<path class="st0" d="M55.9,96.9c0,0.1,0,0.1,0,0.2l-0.6,1c-0.3-1-0.6-1.9-0.8-2.9h0.3c0.1,0,0.1,0,0.2,0.1L55.9,96.9z"/>
		<path class="st0" d="M60,107.3c0,0.1,0.1,0.1,0.2,0.1H62c0.1,0,0.1,0,0.2-0.1l0.9-1.6c0-0.1,0-0.1,0-0.2l-0.9-1.6
			c0-0.1-0.1-0.1-0.2-0.1h-1.9c-0.1,0-0.1,0-0.2,0.1l-0.9,1.6c0,0.1,0,0.1,0,0.2L60,107.3z"/>
		<path class="st0" d="M51,103.4c0,0.1,0,0.1,0,0.2l-1,1.6c0,0.1-0.1,0.1-0.1,0.1h-0.6c-0.1,0-0.1,0-0.2-0.1l-0.9-1.6
			c0-0.1,0-0.1,0-0.2l0.9-1.6l0.1-0.1h0.6c0.1,0,0.1,0,0.2,0.1L51,103.4z"/>
		<path class="st0" d="M59.5,103.4c0,0.1,0,0.1,0,0.2l-0.9,1.6c0,0.1-0.1,0.1-0.2,0.1h-1.9c-0.1,0-0.1,0-0.2-0.1l-0.6-1l-0.2-0.4
			c0.4-0.7,0.8-1.3,1.1-2.1v-0.1h1.7c0.1,0,0.1,0,0.2,0.1L59.5,103.4z"/>
		<path class="st0" d="M55.4,78l0.9,1.6c0,0.1,0.1,0.1,0.2,0.1h1.9c0.1,0,0.1,0,0.2-0.1l0.9-1.6c0-0.1,0-0.1,0-0.2l-0.9-1.6
			c0-0.1-0.1-0.1-0.2-0.1h-1.9c-0.1,0-0.1,0-0.2,0.1l-0.9,1.6C55.4,77.8,55.4,77.9,55.4,78z"/>
		<path class="st0" d="M60,77.3c0,0.1,0.1,0.1,0.2,0.1H62c0.1,0,0.1,0,0.2-0.1l0.9-1.6c0-0.1,0-0.1,0-0.2l-0.9-1.6
			c0-0.1-0.1-0.1-0.2-0.1h-1.9c-0.1,0-0.1,0-0.2,0.1L59,75.5c0,0.1,0,0.1,0,0.2L60,77.3z"/>
		<path class="st0" d="M62.7,78l0.9,1.6c0,0.1,0.1,0.1,0.2,0.1h1.9c0.1,0,0.1,0,0.2-0.1l0.9-1.6c0-0.1,0-0.1,0-0.2l-0.9-1.6
			c0-0.1-0.1-0.1-0.2-0.1h-1.9c-0.1,0-0.1,0-0.2,0.1l-0.9,1.6C62.6,77.8,62.7,77.9,62.7,78z"/>
		<path class="st0" d="M55.9,75.5c0,0.1,0,0.1,0,0.2L55,77.3c0,0.1-0.1,0.1-0.2,0.1h-1.9c-0.1,0-0.1,0-0.2-0.1l-0.5-0.9
			c0-0.9,0-1.4,0-1.6l0.5-0.9c0-0.1,0.1-0.1,0.2-0.1h1.9c0.1,0,0.1,0,0.2,0.1L55.9,75.5z"/>
		<path class="st0" d="M76.7,86.7c0-0.1-0.1-0.1-0.2-0.1h-1.9c-0.1,0-0.1,0-0.2,0.1l-0.9,1.6c0,0.1,0,0.1,0,0.2l0.9,1.6
			c0,0.1,0.1,0.1,0.2,0.1h1.9c0.1,0,0.1,0,0.2-0.1l0.9-1.6c0-0.1,0-0.1,0-0.2L76.7,86.7z"/>
		<path class="st0" d="M76.7,82.4c0-0.1-0.1-0.1-0.2-0.1h-1.9c-0.1,0-0.1,0-0.2,0.1L73.5,84c0,0.1,0,0.1,0,0.2l0.9,1.6
			c0,0.1,0.1,0.1,0.2,0.1h1.9c0.1,0,0.1,0,0.2-0.1l0.9-1.6c0-0.1,0-0.1,0-0.2L76.7,82.4z"/>
		<path class="st0" d="M67.2,77.3c0,0.1,0.1,0.1,0.2,0.1h1.9c0.1,0,0.1,0,0.2-0.1l0.9-1.6c0-0.1,0-0.1,0-0.2l-0.9-1.6
			c0-0.1-0.1-0.1-0.2-0.1h-1.9c-0.1,0-0.1,0-0.2,0.1l-0.9,1.6c0,0.1,0,0.1,0,0.2L67.2,77.3z"/>
		<path class="st0" d="M74.5,77.3c0,0.1,0.1,0.1,0.2,0.1h1.9c0.1,0,0.1,0,0.2-0.1l0.9-1.6c0-0.1,0-0.1,0-0.2l-0.9-1.6
			c0-0.1-0.1-0.1-0.2-0.1h-1.9c-0.1,0-0.1,0-0.2,0.1l-0.9,1.6c0,0.1,0,0.1,0,0.2L74.5,77.3z"/>
		<path class="st0" d="M76.7,78.2c0-0.1-0.1-0.1-0.2-0.1h-1.9c-0.1,0-0.1,0-0.2,0.1l-0.9,1.6c0,0.1,0,0.1,0,0.2l0.9,1.6
			c0,0.1,0.1,0.1,0.2,0.1h1.9c0.1,0,0.1,0,0.2-0.1l0.9-1.6c0-0.1,0-0.1,0-0.2L76.7,78.2z"/>
		<path class="st0" d="M69.9,78l0.9,1.6c0,0.1,0.1,0.1,0.2,0.1h1.9c0.1,0,0.1,0,0.2-0.1L74,78c0-0.1,0-0.1,0-0.2l-0.9-1.6
			c0-0.1-0.1-0.1-0.2-0.1H71c-0.1,0-0.1,0-0.2,0.1l-0.9,1.6C69.9,77.8,69.9,77.9,69.9,78z"/>
	</g>
</g>
<path class="st0" d="M25.7,53.6L24.8,52c0-0.1-0.1-0.1-0.2-0.1h-1.8c-0.1,0-0.1,0-0.2,0.1l-0.9,1.6c0,0.1,0,0.1,0,0.2l0.9,1.6
	c0,0.1,0.1,0.1,0.2,0.1h1.8c0.1,0,0.1,0,0.2-0.1l0.9-1.6C25.8,53.7,25.8,53.7,25.7,53.6z"/>
<path class="st0" d="M28.4,58.2c0-0.1-0.1-0.1-0.2-0.1h-1.8c-0.1,0-0.1,0-0.2,0.1l-0.9,1.6c0,0.1,0,0.1,0,0.2l0.9,1.6
	c0,0.1,0.1,0.1,0.2,0.1h1.8c0.1,0,0.1,0,0.2-0.1l0.9-1.6c0-0.1,0-0.1,0-0.2L28.4,58.2z"/>
<path class="st0" d="M28.4,62.4c0-0.1-0.1-0.1-0.2-0.1h-1.8c-0.1,0-0.1,0-0.2,0.1L25.3,64c0,0.1,0,0.1,0,0.2l0.9,1.6
	c0,0.1,0.1,0.1,0.2,0.1h1.8c0.1,0,0.1,0,0.2-0.1l0.9-1.6c0-0.1,0-0.1,0-0.2L28.4,62.4z"/>
<path class="st0" d="M25.7,62l-0.9-1.6c0-0.1-0.1-0.1-0.2-0.1h-1.8c-0.1,0-0.1,0-0.2,0.1L21.7,62c0,0.1,0,0.1,0,0.2l0.9,1.6
	c0,0.1,0.1,0.1,0.2,0.1h1.8c0.1,0,0.1,0,0.2-0.1l0.9-1.6C25.8,62.1,25.8,62.1,25.7,62z"/>
<path class="st0" d="M28.4,54c0-0.1-0.1-0.1-0.2-0.1h-1.8c-0.1,0-0.1,0-0.2,0.1l-0.9,1.6c0,0.1,0,0.1,0,0.2l0.9,1.6
	c0,0.1,0.1,0.1,0.2,0.1h1.8c0.1,0,0.1,0,0.2-0.1l0.9-1.6c0-0.1,0-0.1,0-0.2L28.4,54z"/>
<path class="st0" d="M19,57.5c0,0.1,0.1,0.1,0.2,0.1H21c0.1,0,0.1,0,0.2-0.1l0.9-1.6c0-0.1,0-0.1,0-0.2l-0.9-1.6
	c0-0.1-0.1-0.1-0.2-0.1h-1.8c-0.1,0-0.1,0-0.2,0.1l-0.9,1.6c0,0.1,0,0.1,0,0.2L19,57.5z"/>
<path class="st0" d="M21.2,49.9c0-0.1-0.1-0.1-0.2-0.1h-1.8c-0.1,0-0.1,0-0.2,0.1l-0.9,1.6c0,0.1,0,0.1,0,0.2l0.9,1.6
	c0,0.1,0.1,0.1,0.2,0.1H21c0.1,0,0.1,0,0.2-0.1l0.9-1.6c0-0.1,0-0.1,0-0.2L21.2,49.9z"/>
<path class="st0" d="M22.1,59.9l-0.9-1.6c0-0.1-0.1-0.1-0.2-0.1h-1.8c-0.1,0-0.1,0-0.2,0.1l-0.9,1.6c0,0.1,0,0.1,0,0.2l0.9,1.6
	c0,0.1,0.1,0.1,0.2,0.1H21c0.1,0,0.1,0,0.2-0.1l0.9-1.6C22.2,60,22.2,60,22.1,59.9z"/>
<path class="st0" d="M24.7,56.1h-1.8c-0.1,0-0.1,0-0.2,0.1l-0.9,1.6c0,0.1,0,0.1,0,0.2l0.9,1.6c0,0.1,0.1,0.1,0.2,0.1h1.8
	c0.1,0,0.1,0,0.2-0.1l0.9-1.6c0-0.1,0-0.1,0-0.2l-0.9-1.6C24.8,56.1,24.7,56.1,24.7,56.1z"/>
<path class="st0" d="M25.3,51.5l0.9,1.6c0,0.1,0.1,0.1,0.2,0.1h1.8c0.1,0,0.1,0,0.2-0.1l0.9-1.6c0-0.1,0-0.1,0-0.2l-0.9-1.6
	c0-0.1-0.1-0.1-0.2-0.1h-1.8c-0.1,0-0.1,0-0.2,0.1l-0.9,1.6C25.3,51.4,25.3,51.5,25.3,51.5z"/>
<path class="st0" d="M21.7,49.6l0.9,1.6c0,0.1,0.1,0.1,0.2,0.1h1.8c0.1,0,0.1,0,0.2-0.1l0.9-1.6c0-0.1,0-0.1,0-0.2l-0.9-1.6
	c0-0.1-0.1-0.1-0.2-0.1h-1.8c-0.1,0-0.1,0-0.2,0.1l-0.9,1.6C21.7,49.4,21.7,49.5,21.7,49.6z"/>
<path class="st0" d="M19,49.1c0,0.1,0.1,0.1,0.2,0.1H21c0.1,0,0.1,0,0.2-0.1l0.9-1.6c0-0.1,0-0.1,0-0.2l-0.9-1.6
	c0-0.1-0.1-0.1-0.2-0.1h-1.8c-0.1,0-0.1,0-0.2,0.1l-0.9,1.6c0,0.1,0,0.1,0,0.2L19,49.1z"/>
<path class="st0" d="M47.8,57.6h1.8c0.1,0,0.1,0,0.2-0.1l0.9-1.6c0-0.1,0-0.1,0-0.2l-0.9-1.6c0-0.1-0.1-0.1-0.2-0.1h-1.8
	c-0.1,0-0.1,0-0.2,0.1l-0.9,1.6c0,0.1,0,0.1,0,0.2l0.9,1.6C47.6,57.5,47.7,57.6,47.8,57.6z"/>
<path class="st0" d="M42.4,53.9h-1.8c-0.1,0-0.1,0-0.2,0.1l-0.9,1.6c0,0.1,0,0.1,0,0.2l0.9,1.6c0,0.1,0.1,0.1,0.2,0.1h1.8
	c0.1,0,0.1,0,0.2-0.1l0.9-1.6c0-0.1,0-0.1,0-0.2L42.6,54C42.6,53.9,42.5,53.9,42.4,53.9z"/>
<path class="st0" d="M44,51.2c0,0.1,0.1,0.1,0.2,0.1H46c0.1,0,0.1,0,0.2-0.1l0.9-1.6c0-0.1,0-0.1,0-0.2l-0.9-1.6
	c0-0.1-0.1-0.1-0.2-0.1h-1.8c-0.1,0-0.1,0-0.2,0.1l-0.9,1.6c0,0.1,0,0.1,0,0.2L44,51.2z"/>
<path class="st0" d="M46.2,60.4c0-0.1-0.1-0.1-0.2-0.1h-1.8c-0.1,0-0.1,0-0.2,0.1L43.1,62c0,0.1,0,0.1,0,0.2l0.9,1.6
	c0,0.1,0.1,0.1,0.2,0.1H46c0.1,0,0.1,0,0.2-0.1l0.9-1.6c0-0.1,0-0.1,0-0.2L46.2,60.4z"/>
<path class="st0" d="M42.6,62.4c0-0.1-0.1-0.1-0.2-0.1h-1.8c-0.1,0-0.1,0-0.2,0.1L39.5,64c0,0.1,0,0.1,0,0.2l0.9,1.6
	c0,0.1,0.1,0.1,0.2,0.1h1.8c0.1,0,0.1,0,0.2-0.1l0.9-1.6c0-0.1,0-0.1,0-0.2L42.6,62.4z"/>
<path class="st0" d="M40.4,61.5c0,0.1,0.1,0.1,0.2,0.1h1.8c0.1,0,0.1,0,0.2-0.1l0.9-1.6c0-0.1,0-0.1,0-0.2l-0.9-1.6
	c0-0.1-0.1-0.1-0.2-0.1h-1.8c-0.1,0-0.1,0-0.2,0.1l-0.9,1.6c0,0.1,0,0.1,0,0.2L40.4,61.5z"/>
<path class="st0" d="M49.8,58.3c0-0.1-0.1-0.1-0.2-0.1h-1.8c-0.1,0-0.1,0-0.2,0.1l-0.9,1.6c0,0.1,0,0.1,0,0.2l0.9,1.6
	c0,0.1,0.1,0.1,0.2,0.1h1.8c0.1,0,0.1,0,0.2-0.1l0.9-1.6c0-0.1,0-0.1,0-0.2L49.8,58.3z"/>
<path class="st0" d="M44,59.6c0,0.1,0.1,0.1,0.2,0.1H46c0.1,0,0.1,0,0.2-0.1l0.9-1.6c0-0.1,0-0.1,0-0.2l-0.9-1.6
	c0-0.1-0.1-0.1-0.2-0.1h-1.8c-0.1,0-0.1,0-0.2,0.1l-0.9,1.6c0,0.1,0,0.1,0,0.2L44,59.6z"/>
<path class="st0" d="M40.4,53.1c0,0.1,0.1,0.1,0.2,0.1h1.8c0.1,0,0.1,0,0.2-0.1l0.9-1.6c0-0.1,0-0.1,0-0.2l-0.9-1.6
	c0-0.1-0.1-0.1-0.2-0.1h-1.8c-0.1,0-0.1,0-0.2,0.1l-0.9,1.6c0,0.1,0,0.1,0,0.2L40.4,53.1z"/>
<path class="st0" d="M47.6,49.1c0,0.1,0.1,0.1,0.2,0.1h1.8c0.1,0,0.1,0,0.2-0.1l0.9-1.6c0-0.1,0-0.1,0-0.2l-0.9-1.6
	c0-0.1-0.1-0.1-0.2-0.1h-1.8c-0.1,0-0.1,0-0.2,0.1l-0.9,1.6c0,0.1,0,0.1,0,0.2L47.6,49.1z"/>
<path class="st0" d="M49.8,49.9c0-0.1-0.1-0.1-0.2-0.1h-1.8c-0.1,0-0.1,0-0.2,0.1l-0.9,1.6c0,0.1,0,0.1,0,0.2l0.9,1.6
	c0,0.1,0.1,0.1,0.2,0.1h1.8c0.1,0,0.1,0,0.2-0.1l0.9-1.6c0-0.1,0-0.1,0-0.2L49.8,49.9z"/>
<path class="st0" d="M44.2,55.5H46c0.1,0,0.1,0,0.2-0.1l0.9-1.6c0-0.1,0-0.1,0-0.2L46.2,52c0-0.1-0.1-0.1-0.2-0.1h-1.8
	c-0.1,0-0.1,0-0.2,0.1l-0.9,1.6c0,0.1,0,0.1,0,0.2l0.9,1.6C44,55.4,44.1,55.5,44.2,55.5z"/>
</svg>
