<svg xmlns="http://www.w3.org/2000/svg" width="96.245" height="91.595" viewBox="0 0 96.245 91.595"><path d="M96.1,37.2a.736.736,0,0,0-.112-.112c-.064-.064-.1-.143-.175-.191-.032-.016-.064-.016-.1-.032a.22.22,0,0,0-.064-.048L81.567,30.744V19.254a.881.881,0,0,0-.143-.462c-.016-.032-.048-.064-.064-.1a.856.856,0,0,0-.367-.3h-.016L59.016,8.879V3.093a1.1,1.1,0,0,0-.143-.494.372.372,0,0,0-.112-.112c-.064-.064-.1-.143-.175-.191-.032-.016-.064-.016-.1-.032a.22.22,0,0,0-.064-.048L53.47.081a.88.88,0,0,0-.749,0L48.274,1.994,43.827.081a.88.88,0,0,0-.749,0L38.122,2.217a.22.22,0,0,1-.064.048c-.032.016-.064.016-.1.032-.08.048-.112.127-.175.191-.032.048-.08.064-.112.112a.9.9,0,0,0-.143.494V8.735l-22.28,9.61h-.016a.962.962,0,0,0-.367.3.333.333,0,0,0-.064.1.928.928,0,0,0-.143.462V30.7L.574,36.769a.22.22,0,0,1-.064.048c-.032.016-.064.016-.1.032-.08.048-.112.127-.175.191-.032.048-.08.064-.112.112A1.685,1.685,0,0,0,0,37.677v5.259a.942.942,0,0,0,.574.877l14.089,6.072V65.424a.942.942,0,0,0,.574.877L39.349,76.692V88.836a2.757,2.757,0,0,0,5.514,0v-9.77l2.885,1.243a.958.958,0,0,0,.765,0l21.77-9.387v6.933a2.757,2.757,0,1,0,5.514,0V68.548L81.009,66.3a.942.942,0,0,0,.574-.877V49.885l14.089-6.072a.942.942,0,0,0,.574-.877V37.677A.987.987,0,0,0,96.1,37.2ZM16.591,31.35h0V20.688L47.748,34.123a.958.958,0,0,0,.765,0L79.67,20.688V37.072L48.131,50.666,16.591,37.072V31.35ZM57.1,4.56V5.819L55.637,5.2ZM39.429,17.086h0V8.719l2.837,1.227.207.1V21.947l-3.06-1.323V17.086Zm4.972-7.06,2.917-1.259V20.672L44.4,21.931ZM49.23,8.767l2.917,1.259V21.931L49.23,20.672V8.767ZM39.429,5.8V4.56l1.466.622Zm-1.323,16.32,4.956,2.136a.958.958,0,0,0,.765,0l4.447-1.912,2.407,1.036L43.923,26.3,31.715,21.039l5.8-2.5v2.709A.956.956,0,0,0,38.106,22.122Zm15.953-.191V10.026l.207-.1L57.1,8.7V20.624Zm4.956-6.965,5.594,2.422L59.016,19.8ZM43.445,1.994l4.446,1.912a.88.88,0,0,0,.749,0l4.446-1.912,2.55,1.1L52.848,4.3a.956.956,0,0,0,0,1.753l2.789,1.211-2.55,1.1L48.641,6.456a.841.841,0,0,0-.191-.048.493.493,0,0,0-.128-.032c-.016,0-.032-.016-.048-.016s-.032.016-.048.016a.465.465,0,0,0-.143.032.841.841,0,0,0-.191.048L43.445,8.369l-2.55-1.1,2.789-1.211a.956.956,0,0,0,0-1.753L40.9,3.093Zm-5.929,8.829v5.626l-8.59,3.713a.956.956,0,0,0,0,1.753l14.614,6.311a.958.958,0,0,0,.765,0l9.164-3.952h0l3.968-1.721L67.4,18.266a.956.956,0,0,0,0-1.753L59,12.895V10.95l19.188,8.271L48.115,32.195,18.041,19.222ZM14.678,32.8v4.877a.942.942,0,0,0,.574.877l32.5,14.009a.958.958,0,0,0,.765,0l32.5-14.009a.942.942,0,0,0,.574-.877V32.8l11.3,4.877-44.768,19.3L3.379,37.677ZM42.951,88.852a.845.845,0,0,1-1.689,0V77.536l1.163.494.526.223v10.6ZM73.869,69.392v8.479a.845.845,0,0,1-1.689,0V70.125l.51-.223Zm5.785-4.574-5.211,2.247h0l-3.6,1.546h0l-22.727,9.8L16.575,64.818V50.73L47.732,64.165a.958.958,0,0,0,.765,0L79.654,50.73V64.818Zm14.678-22.5-46.2,19.922L16,48.387h0L1.912,42.315V39.127L47.748,58.89a.88.88,0,0,0,.749,0L94.333,39.127v3.187Z" transform="translate(0 0.003)" fill="#313131"/></svg>