<svg id="Layer_1" data-name="Layer 1" xmlns="http://www.w3.org/2000/svg" viewBox="0 0 1532.8 1999.23"><path d="M1495.81,441.43a22.49,22.49,0,0,1-6.17-1.25L1188.4,333.3a22.25,22.25,0,0,1-13.51-28.37L1276.65,18.11A22.27,22.27,0,0,1,1305,4.6l301.24,106.88a22.22,22.22,0,0,1,13.52,28.37L1518,426.67a22.23,22.23,0,0,1-22.2,14.76ZM1298.24,14.58a11,11,0,0,0-11,7.29L1185.49,308.69a11,11,0,0,0,6.67,14L1493.4,429.58a11,11,0,0,0,14-6.67l101.76-286.82a11,11,0,0,0-6.67-14L1301.26,15.2A10.69,10.69,0,0,0,1298.24,14.58Z" transform="translate(-233.51)" fill="#313131"/><path d="M1497.07,444.79c-.48,0-1,0-1.45,0h0a25.55,25.55,0,0,1-7.09-1.44L1187.29,336.43a25.57,25.57,0,0,1-15.53-32.61L1273.52,17a25.59,25.59,0,0,1,32.61-15.53l301.25,106.88A25.54,25.54,0,0,1,1622.91,141L1521.15,427.78a25.39,25.39,0,0,1-13.09,14.52A25.66,25.66,0,0,1,1497.07,444.79ZM1297.62,6.65a18.93,18.93,0,0,0-17.83,12.57L1178,306a18.93,18.93,0,0,0,11.5,24.13l301.24,106.88a19,19,0,0,0,5.25,1.06h0a18.9,18.9,0,0,0,18.87-12.55l101.76-286.82a18.91,18.91,0,0,0-11.49-24.13L1303.91,7.73A19,19,0,0,0,1297.62,6.65Zm199.46,426.9a14.46,14.46,0,0,1-4.79-.83L1191.05,325.84a14.33,14.33,0,0,1-8.7-18.26L1284.12,20.76a14.36,14.36,0,0,1,14.31-9.5h0a14.31,14.31,0,0,1,3.94.8l301.25,106.88a14.29,14.29,0,0,1,8.69,18.26L1510.55,424a14.34,14.34,0,0,1-13.47,9.53ZM1297.61,17.89a7.69,7.69,0,0,0-7.23,5.09L1188.62,309.8a7.66,7.66,0,0,0,4.65,9.77l301.25,106.88a7.55,7.55,0,0,0,5.84-.3,7.63,7.63,0,0,0,3.93-4.36L1606.05,135a7.67,7.67,0,0,0-4.65-9.77L1300.15,18.33a7.62,7.62,0,0,0-2.11-.43Z" transform="translate(-233.51)" fill="#313131"/><path d="M1459.25,367.9a32.11,32.11,0,0,1-9-1.83l-184.58-65.48a32.62,32.62,0,0,1-19.83-41.65l65.49-184.57A32.64,32.64,0,0,1,1353,54.54L1537.56,120a32.62,32.62,0,0,1,19.83,41.65L1491.9,346.24A32.67,32.67,0,0,1,1459.25,367.9Zm-115.92-304a21.44,21.44,0,0,0-21.4,14.2L1256.45,262.7a21.38,21.38,0,0,0,13,27.3L1454,355.48a21.4,21.4,0,0,0,27.29-13l65.49-184.57a21.38,21.38,0,0,0-13-27.29L1349.22,65.13A21.44,21.44,0,0,0,1343.33,63.93Z" transform="translate(-233.51)" fill="#313131"/><path d="M1461.13,369.62c-.66,0-1.31,0-2-.06h0a34,34,0,0,1-9.45-1.92l-184.58-65.48a34.27,34.27,0,0,1-20.84-43.77l65.48-184.58A34.32,34.32,0,0,1,1353.54,53l184.57,65.49A34.27,34.27,0,0,1,1559,162.22L1493.47,346.8A34.49,34.49,0,0,1,1461.13,369.62Zm-1.78-3.38a31.14,31.14,0,0,0,31-20.55l65.48-184.58A30.94,30.94,0,0,0,1537,121.59L1352.43,56.1a31,31,0,0,0-39.53,18.82L1247.42,259.5A30.94,30.94,0,0,0,1266.24,299l184.58,65.49a30.89,30.89,0,0,0,8.53,1.73Zm1.8-7.87a22.71,22.71,0,0,1-7.69-1.32l-184.57-65.49a23,23,0,0,1-14-29.41l65.49-184.58a23.09,23.09,0,0,1,23.06-15.29,22.83,22.83,0,0,1,6.35,1.28l184.57,65.49a23,23,0,0,1,14,29.41L1482.88,343A23.08,23.08,0,0,1,1461.15,358.37ZM1342.1,65.56a19.83,19.83,0,0,0-18.6,13.12L1258,263.26a19.71,19.71,0,0,0,12,25.17l184.57,65.48a19.74,19.74,0,0,0,25.18-12l65.48-184.58a19.71,19.71,0,0,0-12-25.17L1348.67,66.7a19.65,19.65,0,0,0-5.44-1.11h0Z" transform="translate(-233.51)" fill="#313131"/><path d="M1199.21,1057.37a22.42,22.42,0,0,1-3.48.09,22.09,22.09,0,0,1-15.36-7.3L966.25,812.84a22.24,22.24,0,0,1,1.61-31.38l225.95-203.87a22.24,22.24,0,0,1,31.38,1.61l214.13,237.32a22.22,22.22,0,0,1-1.62,31.38l-226,203.87A22,22,0,0,1,1199.21,1057.37Zm8.34-474.2a10.93,10.93,0,0,0-6.21,2.76L975.39,789.81a11,11,0,0,0-.8,15.5l214.13,237.32a11,11,0,0,0,15.5.79l226-203.87a11,11,0,0,0,.8-15.5L1216.85,586.73A11,11,0,0,0,1207.55,583.17Z" transform="translate(-233.51)" fill="#313131"/><path d="M1196.89,1060.82c-.45,0-.89,0-1.33,0a25.36,25.36,0,0,1-17.66-8.4L963.78,815.07A25.57,25.57,0,0,1,965.63,779l225.95-203.87a25.56,25.56,0,0,1,36.08,1.85l214.13,237.32a25.55,25.55,0,0,1-1.86,36.08l-226,203.87a25.35,25.35,0,0,1-14.43,6.44h0A26.18,26.18,0,0,1,1196.89,1060.82Zm11.78-485.62a18.69,18.69,0,0,0-12.63,4.86l-226,203.87a18.92,18.92,0,0,0-1.37,26.69l214.13,237.31a18.72,18.72,0,0,0,13.06,6.21,19.65,19.65,0,0,0,3-.07,18.75,18.75,0,0,0,10.66-4.77l226-203.87a18.9,18.9,0,0,0,1.37-26.69L1222.72,581.43a18.76,18.76,0,0,0-13.06-6.21Zm-11.8,474.38-.73,0a14.25,14.25,0,0,1-9.89-4.7L972.12,807.54a14.33,14.33,0,0,1,1-20.2l225.95-203.87a14.2,14.2,0,0,1,8.09-3.61h0a14.37,14.37,0,0,1,12.11,4.64l214.13,237.32a14.31,14.31,0,0,1-1,20.2l-226,203.87A14.25,14.25,0,0,1,1196.87,1049.58Zm11-463.1a7.52,7.52,0,0,0-4.32,1.92l-226,203.87a7.67,7.67,0,0,0-.55,10.82l214.12,237.31a7.65,7.65,0,0,0,10.82.55l226-203.87a7.65,7.65,0,0,0,.56-10.81L1214.38,589a7.68,7.68,0,0,0-6.49-2.48Z" transform="translate(-233.51)" fill="#313131"/><path d="M1208.61,976.82A32.61,32.61,0,0,1,1181,966.24l-131.2-145.41a32.6,32.6,0,0,1,2.37-46.06l145.41-131.2a32.6,32.6,0,0,1,46.06,2.37l131.2,145.4a32.65,32.65,0,0,1-2.37,46.07l-145.4,131.2A32.47,32.47,0,0,1,1208.61,976.82Zm-19.28-18.11a21.37,21.37,0,0,0,30.19,1.55l145.4-131.2a21.41,21.41,0,0,0,1.56-30.19l-131.2-145.4a21.37,21.37,0,0,0-30.19-1.55L1059.68,783.11a21.37,21.37,0,0,0-1.55,30.19Z" transform="translate(-233.51)" fill="#313131"/><path d="M1205.25,978.65a34.42,34.42,0,0,1-25.5-11.29L1048.55,822a34.27,34.27,0,0,1,2.49-48.42l145.4-131.19a34.28,34.28,0,0,1,48.42,2.48l131.19,145.41a34.31,34.31,0,0,1-2.48,48.41l-145.41,131.2a34,34,0,0,1-19.38,8.63A34.92,34.92,0,0,1,1205.25,978.65Zm14.12-341.82a30.76,30.76,0,0,0-20.7,8L1053.26,776a30.94,30.94,0,0,0-2.24,43.72l131.19,145.41a31.08,31.08,0,0,0,26.23,10h0a30.62,30.62,0,0,0,17.49-7.78l145.41-131.2a31,31,0,0,0,2.25-43.72l-131.2-145.41a30.78,30.78,0,0,0-21.4-10.18C1220.45,636.84,1219.91,636.83,1219.37,636.83Zm-14.14,330.6-1.22,0a23,23,0,0,1-15.92-7.57l-131.2-145.41a23,23,0,0,1,1.67-32.54L1204,650.68a23,23,0,0,1,32.54,1.67l131.2,145.41A23.07,23.07,0,0,1,1366,830.3L1220.63,961.5A22.87,22.87,0,0,1,1205.23,967.43Zm-14.67-9.83A19.71,19.71,0,0,0,1218.4,959l145.41-131.2a19.73,19.73,0,0,0,1.43-27.84L1234,654.58a19.71,19.71,0,0,0-27.84-1.43l-145.41,131.2a19.71,19.71,0,0,0-1.43,27.84Z" transform="translate(-233.51)" fill="#313131"/><path d="M1395.62,227.43c7.41,2.7,13.43,2,17.85.21l5.69-15.64-16.47-6,3.14-8.6,26.18,9.53-9.91,27.21-.27-.1.15.16c-8.26,5.69-21.77,5.39-29.73,2.49-20.54-7.48-25.64-27.16-18.53-46.68s23.67-31.31,44.21-23.83a33.65,33.65,0,0,1,18.66,17l-7.58,5c-2-4.51-6.21-9.7-14.45-12.7-16.19-5.9-25.78,4-30.94,18.18S1379.43,221.53,1395.62,227.43Z" transform="translate(-233.51)" fill="#313131"/><path d="M1171.44,812.54,1225.53,763l6.93,7.57-47.3,43.35,23.92,26.1-6.78,6.22Z" transform="translate(-233.51)" fill="#313131"/><path d="M1447.7,1638.5a58.48,58.48,0,0,1-15.72,3.93,57.76,57.76,0,0,1,11.92,11,72.68,72.68,0,0,0,12.79-4.68A71.08,71.08,0,0,0,1447.7,1638.5Z" transform="translate(-233.51)" fill="none"/><path d="M1346.88,1716.71a58.23,58.23,0,0,1-10.39,8.14,69.89,69.89,0,0,0,7.28,10.73,71.6,71.6,0,0,0,10.37-7.83A57.94,57.94,0,0,1,1346.88,1716.71Z" transform="translate(-233.51)" fill="none"/><path d="M1327.37,1639.22a41.28,41.28,0,0,0-21.18-5.81c-.86,0-1.73,0-2.6.08a41.66,41.66,0,1,0,5.09,83.16,42.28,42.28,0,0,0,6.09-.82A88,88,0,0,1,1327.37,1639.22Z" transform="translate(-233.51)" fill="none"/><path d="M1457,1686.8a58.31,58.31,0,0,1-90.48,52.07,88.16,88.16,0,0,1-10.45,8.49A71.26,71.26,0,0,0,1470,1686a71.73,71.73,0,0,0-5.21-22.77,88.14,88.14,0,0,1-12,4.89A58.31,58.31,0,0,1,1457,1686.8Z" transform="translate(-233.51)" fill="none"/><path d="M1396.3,1648.78l-1,.09a71.08,71.08,0,0,0,26.52,6.72A41.37,41.37,0,0,0,1396.3,1648.78Z" transform="translate(-233.51)" fill="none"/><path d="M1309.7,1733.24c-1.22.07-2.43.11-3.64.11a58.28,58.28,0,1,1,32.37-106.79,89,89,0,0,1,7.15-6.1q-1.41-3.15-2.57-6.4a70.64,70.64,0,0,0-36.78-10.27c-1.48,0-3,0-4.45.14a71.26,71.26,0,1,0,26.52,138.84,87,87,0,0,1-7.16-11.37A58.72,58.72,0,0,1,1309.7,1733.24Z" transform="translate(-233.51)" fill="none"/><path d="M1330.13,1709.13a41.57,41.57,0,0,0,10.95-11.39,58.38,58.38,0,0,1,5.41-32.94,41.47,41.47,0,0,0-6.71-14.29A71.36,71.36,0,0,0,1330.13,1709.13Z" transform="translate(-233.51)" fill="none"/><path d="M1393.56,1666.23c.12,1.15.23,2.3.3,3.46a87.2,87.2,0,0,1-16.24,56.51,41.67,41.67,0,0,0,58.49-54.5,89.78,89.78,0,0,1-10.37.63A87.92,87.92,0,0,1,1393.56,1666.23Z" transform="translate(-233.51)" fill="none"/><path d="M1358.1,1648.72c1.3-1.28,2.66-2.49,4.06-3.63a88.52,88.52,0,0,1-8.27-10c-1,.84-2.05,1.72-3,2.63A58.37,58.37,0,0,1,1358.1,1648.72Z" transform="translate(-233.51)" fill="none"/><path d="M1377.27,1670.71a72.2,72.2,0,0,0-2.37-14.44,41.9,41.9,0,0,0-11,11.42,58.31,58.31,0,0,1-5.41,33,41.49,41.49,0,0,0,6.72,14.29A70.67,70.67,0,0,0,1377.27,1670.71Z" transform="translate(-233.51)" fill="none"/><path d="M1428.34,1626.06c.36,0,.71-.06,1.06-.09a71,71,0,0,0-26.56-6.72A41.35,41.35,0,0,0,1428.34,1626.06Z" transform="translate(-233.51)" fill="none"/><path d="M1392.66,1632.42a61.85,61.85,0,0,1-5.48-4.29,59.44,59.44,0,0,1-6.43-6.67c-1.36.35-2.71.75-4,1.19a87,87,0,0,1,7.18,11.37A58.28,58.28,0,0,1,1392.66,1632.42Z" transform="translate(-233.51)" fill="none"/><path d="M1449.65,1618.65a42.24,42.24,0,0,0,7.35-6.57,41.66,41.66,0,0,0-31.15-69.26c-.87,0-1.73,0-2.6.08a41.69,41.69,0,0,0-34.72,60.24A87.74,87.74,0,0,1,1449.65,1618.65Z" transform="translate(-233.51)" fill="none"/><path d="M1364.58,1609.44c2.41-1,4.86-1.91,7.34-2.7a58.3,58.3,0,1,1,90.56,23,86.33,86.33,0,0,1,8.26,10,71.27,71.27,0,0,0-44.85-126.57c-1.48,0-3,0-4.45.13a71.32,71.32,0,0,0-64.35,90.12,90.41,90.41,0,0,1,7.28,5.78Z" transform="translate(-233.51)" fill="none"/><path d="M1484,1518.65a87.89,87.89,0,0,0-146,71.21c.07,1.14.18,2.27.29,3.4a87.63,87.63,0,0,1,18.73,10.2,71.28,71.28,0,0,1,64.35-90.12c1.49-.09,3-.13,4.45-.13a71.24,71.24,0,0,1,44.85,126.57,86.74,86.74,0,0,1,8.32,14.59,88.91,88.91,0,0,0,12.57-11.66A88,88,0,0,0,1484,1518.65Z" transform="translate(-233.51)" fill="#313131"/><path d="M1384.21,1587a41.66,41.66,0,0,1,39-44.13c.87-.06,1.73-.08,2.6-.08a41.66,41.66,0,0,1,31.15,69.26,42.24,42.24,0,0,1-7.35,6.57,89.08,89.08,0,0,1,7.43,5.88c1.89,1.67,3.68,3.43,5.4,5.23a58.26,58.26,0,1,0-90.56-23,87.74,87.74,0,0,1,16.61-3.6A41.65,41.65,0,0,1,1384.21,1587Z" transform="translate(-233.51)" fill="#313131"/><path d="M1470,1686a71.25,71.25,0,0,1-113.9,61.36,87.51,87.51,0,0,1-15.71,8.62l.24.22a87.27,87.27,0,0,0,58.11,22.06c1.82,0,3.66-.06,5.49-.17a87.94,87.94,0,0,0,74.84-123.72,87.06,87.06,0,0,1-14.28,8.86A71.73,71.73,0,0,1,1470,1686Z" transform="translate(-233.51)" fill="#313131"/><path d="M1449.65,1618.65a87.74,87.74,0,0,0-61.12-15.51,41.52,41.52,0,0,0,9.66,12.54,42.55,42.55,0,0,0,4.65,3.57,71,71,0,0,1,26.56,6.72A41.38,41.38,0,0,0,1449.65,1618.65Z" transform="translate(-233.51)" fill="#313131"/><path d="M1447.7,1638.5a71.08,71.08,0,0,1,9,10.21,70.76,70.76,0,0,0,14-8.93,86.33,86.33,0,0,0-8.26-10A57.67,57.67,0,0,1,1447.7,1638.5Z" transform="translate(-233.51)" fill="#313131"/><path d="M1376.7,1622.65c1.34-.44,2.69-.84,4-1.19a57.36,57.36,0,0,1-8.83-14.72c-2.48.79-4.93,1.68-7.34,2.7A88.85,88.85,0,0,1,1376.7,1622.65Z" transform="translate(-233.51)" fill="#313131"/><path d="M1456.69,1648.71a70.53,70.53,0,0,1,8.09,14.52,87.06,87.06,0,0,0,14.28-8.86,86.74,86.74,0,0,0-8.32-14.59A70.76,70.76,0,0,1,1456.69,1648.71Z" transform="translate(-233.51)" fill="#313131"/><path d="M1457.08,1624.53a89.08,89.08,0,0,0-7.43-5.88,41.38,41.38,0,0,1-20.25,7.32,70.93,70.93,0,0,1,16.67,11c.56.49,1.09,1,1.63,1.52a57.67,57.67,0,0,0,14.78-8.74C1460.76,1628,1459,1626.2,1457.08,1624.53Z" transform="translate(-233.51)" fill="#313131"/><path d="M1398.89,1619.13c1.32,0,2.63,0,3.95.12a42.55,42.55,0,0,1-4.65-3.57,41.52,41.52,0,0,1-9.66-12.54,87.74,87.74,0,0,0-16.61,3.6,57.36,57.36,0,0,0,8.83,14.72A71.75,71.75,0,0,1,1398.89,1619.13Z" transform="translate(-233.51)" fill="#313131"/><path d="M1440.43,1687.82a41.64,41.64,0,0,1-62.81,38.38,86.6,86.6,0,0,1-5.65,7.1c-1.74,2-3.56,3.8-5.43,5.57a58.3,58.3,0,0,0,86.19-70.75,87.79,87.79,0,0,1-16.62,3.58A41.48,41.48,0,0,1,1440.43,1687.82Z" transform="translate(-233.51)" fill="#313131"/><path d="M1425.72,1642.76a57.77,57.77,0,0,1-33.06-10.34,58.28,58.28,0,0,0-8.78,1.6,87.89,87.89,0,0,1,5,11.42,70,70,0,0,0,6.37,3.43l1-.09a41.37,41.37,0,0,1,25.49,6.81,72,72,0,0,0,22.11-2.2,57.76,57.76,0,0,0-11.92-11c-.87.09-1.74.17-2.62.22C1428.14,1642.73,1426.93,1642.76,1425.72,1642.76Z" transform="translate(-233.51)" fill="#313131"/><path d="M1395.27,1648.87a70,70,0,0,1-6.37-3.43c.49,1.37.95,2.76,1.37,4.15A43.62,43.62,0,0,1,1395.27,1648.87Z" transform="translate(-233.51)" fill="#313131"/><path d="M1421.79,1655.59a41.81,41.81,0,0,1,14.32,16.11,87.79,87.79,0,0,0,16.62-3.58,57.53,57.53,0,0,0-8.83-14.73A72,72,0,0,1,1421.79,1655.59Z" transform="translate(-233.51)" fill="#313131"/><path d="M1395.29,1632.19c-.88.06-1.76.14-2.63.23a57.77,57.77,0,0,0,33.06,10.34c1.21,0,2.42,0,3.64-.11.88-.05,1.75-.13,2.62-.22A57.86,57.86,0,0,0,1395.29,1632.19Z" transform="translate(-233.51)" fill="#313131"/><path d="M1360.24,1734a59,59,0,0,1-6.1-6.27,71.6,71.6,0,0,1-10.37,7.83,71.13,71.13,0,0,0,7.86,8.17q2.16,1.9,4.46,3.61a88.16,88.16,0,0,0,10.45-8.49A57.76,57.76,0,0,1,1360.24,1734Z" transform="translate(-233.51)" fill="#313131"/><path d="M1393.86,1669.69c-.07-1.16-.18-2.31-.3-3.46a86.79,86.79,0,0,1-18.55-10l-.11.08a72.2,72.2,0,0,1,2.37,14.44,70.67,70.67,0,0,1-12.06,44.22,41.34,41.34,0,0,0,12.41,11.27A87.2,87.2,0,0,0,1393.86,1669.69Z" transform="translate(-233.51)" fill="#313131"/><path d="M1364.58,1609.44l-.21-.2a90.41,90.41,0,0,0-7.28-5.78,69.83,69.83,0,0,0,2.78,8.15C1361.43,1610.84,1363,1610.11,1364.58,1609.44Z" transform="translate(-233.51)" fill="#313131"/><path d="M1328.3,1742.77a71.26,71.26,0,1,1-26.52-138.84c1.49-.09,3-.14,4.45-.14a70.64,70.64,0,0,1,36.78,10.27,87.56,87.56,0,0,1-4.65-20.8,87.89,87.89,0,1,0,2,162.72A87.75,87.75,0,0,1,1328.3,1742.77Z" transform="translate(-233.51)" fill="#313131"/><path d="M1376.94,1636.35a57.7,57.7,0,0,1,6.94-2.33,87,87,0,0,0-7.18-11.37,69.73,69.73,0,0,0-8.73,3.5A71.47,71.47,0,0,0,1376.94,1636.35Z" transform="translate(-233.51)" fill="#313131"/><path d="M1376.94,1636.35a71.47,71.47,0,0,1-9-10.2,72.48,72.48,0,0,0-6.74,3.7,70.05,70.05,0,0,1,7.3,10.71A57.93,57.93,0,0,1,1376.94,1636.35Z" transform="translate(-233.51)" fill="#313131"/><path d="M1348.9,1618.06a88,88,0,0,1,11-6.45,69.83,69.83,0,0,1-2.78-8.15,87.63,87.63,0,0,0-18.73-10.2,87.56,87.56,0,0,0,4.65,20.8C1345,1615.28,1347,1616.63,1348.9,1618.06Z" transform="translate(-233.51)" fill="#313131"/><path d="M1390.27,1649.59a41.22,41.22,0,0,0-15.26,6.6,86.79,86.79,0,0,0,18.55,10A88.81,88.81,0,0,0,1390.27,1649.59Z" transform="translate(-233.51)" fill="#313131"/><path d="M1351.63,1743.75a71.13,71.13,0,0,1-7.86-8.17,70.7,70.7,0,0,1-15.47,7.19,87.75,87.75,0,0,0,12.08,13.21,87.51,87.51,0,0,0,15.71-8.62Q1353.8,1745.65,1351.63,1743.75Z" transform="translate(-233.51)" fill="#313131"/><path d="M1376.7,1622.65a88.85,88.85,0,0,0-12.12-13.21c-1.59.67-3.15,1.4-4.71,2.17a70.2,70.2,0,0,0,8.1,14.54A69.73,69.73,0,0,1,1376.7,1622.65Z" transform="translate(-233.51)" fill="#313131"/><path d="M1361.23,1629.85a72.48,72.48,0,0,1,6.74-3.7,70.2,70.2,0,0,1-8.1-14.54,88,88,0,0,0-11,6.45c1.52,1.15,3,2.35,4.45,3.62A72.24,72.24,0,0,1,1361.23,1629.85Z" transform="translate(-233.51)" fill="#313131"/><path d="M1378.57,1637.86a71.42,71.42,0,0,0,10.33,7.58,87.89,87.89,0,0,0-5-11.42,57.7,57.7,0,0,0-6.94,2.33C1377.48,1636.86,1378,1637.37,1378.57,1637.86Z" transform="translate(-233.51)" fill="#313131"/><path d="M1375,1656.19l-.17-.11.06.19Z" transform="translate(-233.51)" fill="#313131"/><path d="M1372,1733.3a86.6,86.6,0,0,0,5.65-7.1,41.34,41.34,0,0,1-12.41-11.27,73.79,73.79,0,0,1-5.69,7.36,73.05,73.05,0,0,1-5.38,5.46,59,59,0,0,0,6.1,6.27,57.76,57.76,0,0,0,6.3,4.85C1368.41,1737.1,1370.23,1735.26,1372,1733.3Z" transform="translate(-233.51)" fill="#313131"/><path d="M1376.94,1636.35a57.93,57.93,0,0,0-8.41,4.21,70.41,70.41,0,0,1,6.31,15.52l.17.11a41.22,41.22,0,0,1,15.26-6.6c-.42-1.39-.88-2.78-1.37-4.15a71.42,71.42,0,0,1-10.33-7.58C1378,1637.37,1377.48,1636.86,1376.94,1636.35Z" transform="translate(-233.51)" fill="#313131"/><path d="M1345.47,1643.14a71.8,71.8,0,0,0-5.69,7.37,41.47,41.47,0,0,1,6.71,14.29,57.82,57.82,0,0,1,8.71-13c.93-1,1.9-2,2.9-3a58.37,58.37,0,0,0-7.25-11A73,73,0,0,0,1345.47,1643.14Z" transform="translate(-233.51)" fill="#313131"/><path d="M1308.68,1716.65a41.66,41.66,0,1,1-5.09-83.16c.87-.06,1.74-.08,2.6-.08a41.28,41.28,0,0,1,21.18,5.81,87.29,87.29,0,0,1,5.65-7.09c1.73-2,3.55-3.8,5.41-5.57a58.28,58.28,0,1,0-32.37,106.79c1.21,0,2.42,0,3.64-.11a58.72,58.72,0,0,0,11.44-1.84,88.13,88.13,0,0,1-6.37-15.57A42.28,42.28,0,0,1,1308.68,1716.65Z" transform="translate(-233.51)" fill="#313131"/><path d="M1337.34,1702.67a41.91,41.91,0,0,1-7.21,6.46,71.08,71.08,0,0,0,6.36,15.72,58.23,58.23,0,0,0,10.39-8.14,58.44,58.44,0,0,1-5.8-19A41.54,41.54,0,0,1,1337.34,1702.67Z" transform="translate(-233.51)" fill="#313131"/><path d="M1363.9,1667.69a41.77,41.77,0,0,0-5.41,33A58.31,58.31,0,0,0,1363.9,1667.69Z" transform="translate(-233.51)" fill="#313131"/><path d="M1314.77,1715.83a88.13,88.13,0,0,0,6.37,15.57,57.47,57.47,0,0,0,15.35-6.55,71.08,71.08,0,0,1-6.36-15.72A41.21,41.21,0,0,1,1314.77,1715.83Z" transform="translate(-233.51)" fill="#313131"/><path d="M1333,1632.13a87.29,87.29,0,0,0-5.65,7.09,43.15,43.15,0,0,1,6.37,4.64,42.43,42.43,0,0,1,6,6.65,71.8,71.8,0,0,1,5.69-7.37,73,73,0,0,1,5.38-5.46,60,60,0,0,0-6.1-6.27,60.93,60.93,0,0,0-6.32-4.85C1336.57,1628.33,1334.75,1630.17,1333,1632.13Z" transform="translate(-233.51)" fill="#313131"/><path d="M1349.79,1713.68a58.28,58.28,0,0,0,8.7-13,41.77,41.77,0,0,1,5.41-33,58.19,58.19,0,0,0-5.8-19c-1,1-2,2-2.9,3a57.82,57.82,0,0,0-8.71,13,41.67,41.67,0,0,1-5.41,32.94,58.44,58.44,0,0,0,5.8,19Q1348.38,1715.26,1349.79,1713.68Z" transform="translate(-233.51)" fill="#313131"/><path d="M1414.14,1355.79a87.22,87.22,0,0,1-58.11-22.06h0a87.87,87.87,0,1,1,63.61,21.9C1417.8,1355.74,1416,1355.79,1414.14,1355.79Zm53.5-40.67a71.28,71.28,0,0,0-53.28-118.5c-1.48,0-3,.05-4.46.14A71.27,71.27,0,0,0,1367,1321.28h0a71.26,71.26,0,0,0,100.6-6.16h0" transform="translate(-233.51)" fill="#313131"/><path d="M1414.23,1326.15a58,58,0,0,1-38.58-14.6h0a58.34,58.34,0,1,1,38.58,14.6Zm.09-99.91c-.87,0-1.74,0-2.61.08a41.66,41.66,0,0,0-25,72.78h0a41.66,41.66,0,1,0,27.66-72.86Z" transform="translate(-233.51)" fill="#313131"/><path d="M1187.38,1987.6a87.27,87.27,0,0,1-58.11-22.06h0a87.91,87.91,0,1,1,63.61,21.89C1191,1987.54,1189.21,1987.6,1187.38,1987.6Zm.16-159.13a71.24,71.24,0,0,0-47.26,124.62h0a71.27,71.27,0,1,0,47.26-124.62Z" transform="translate(-233.51)" fill="#313131"/><path d="M1187.42,1958a57.88,57.88,0,0,1-38.53-14.63h0a58.28,58.28,0,1,1,42.18,14.52C1189.85,1958,1188.63,1958,1187.42,1958Zm.11-99.92a41.64,41.64,0,0,0-27.63,72.84h0a41.66,41.66,0,1,0,27.63-72.84Z" transform="translate(-233.51)" fill="#313131"/><path d="M1248.39,1502.26a58.29,58.29,0,0,1-54.61,61.74c-1.21.07-2.43.11-3.64.11a58.27,58.27,0,0,1-48.19-90.92,88.65,88.65,0,0,1-9.22-7.12c-.35-.3-.67-.63-1-.94a71.25,71.25,0,1,0,117.59.81,85.51,85.51,0,0,1-10.35,7.92A58,58,0,0,1,1248.39,1502.26Z" transform="translate(-233.51)" fill="none"/><path d="M1153.3,1460.73a58,58,0,0,1,12.59-7.88,58.08,58.08,0,0,1-12.46-8,72.08,72.08,0,0,0-10.7,7.89c.34.31.66.63,1,.93A70.9,70.9,0,0,0,1153.3,1460.73Z" transform="translate(-233.51)" fill="none"/><path d="M1227.88,1445.33a58,58,0,0,1-12.62,7.86,58.41,58.41,0,0,1,12.5,8.08,70.11,70.11,0,0,0,10.68-7.9l-1-.93A71.53,71.53,0,0,0,1227.88,1445.33Z" transform="translate(-233.51)" fill="none"/><path d="M1209.62,1469a41.21,41.21,0,0,0-19.34-4.82c-.87,0-1.74,0-2.61.08a41.52,41.52,0,0,0-16.41,4.47A71.79,71.79,0,0,0,1209.62,1469Z" transform="translate(-233.51)" fill="none"/><path d="M1156.65,1481.16a41.66,41.66,0,1,0,67.46.44,88.16,88.16,0,0,1-67.46-.44Z" transform="translate(-233.51)" fill="none"/><path d="M1147.31,1361.63a58.27,58.27,0,0,1,91.91,71.26,87.21,87.21,0,0,1,9.23,7.1l1,.94a71.27,71.27,0,1,0-117.58-.81,85.52,85.52,0,0,1,10.36-7.91A58.37,58.37,0,0,1,1147.31,1361.63Z" transform="translate(-233.51)" fill="none"/><path d="M1224.51,1424.92a41.66,41.66,0,0,0-64.76-52.28,41.73,41.73,0,0,0-2.68,51.82A88.33,88.33,0,0,1,1224.51,1424.92Z" transform="translate(-233.51)" fill="none"/><path d="M1171.53,1437.08a41.83,41.83,0,0,0,38.35.26,71.52,71.52,0,0,0-38.35-.26Z" transform="translate(-233.51)" fill="none"/><path d="M1131.88,1440.12a71.28,71.28,0,1,1,117.58.81,88.11,88.11,0,0,1,11.38,12.56,87.87,87.87,0,1,0-140.5-.93c1.29-1.69,2.62-3.36,4.05-5A88.1,88.1,0,0,1,1131.88,1440.12Z" transform="translate(-233.51)" fill="#313131"/><path d="M1238.44,1453.37a70.11,70.11,0,0,1-10.68,7.9c.36.31.72.59,1.07.9a58.69,58.69,0,0,1,10.13,11.69,85.51,85.51,0,0,0,10.35-7.92A71.83,71.83,0,0,0,1238.44,1453.37Z" transform="translate(-233.51)" fill="#313131"/><path d="M1142,1473.19a57,57,0,0,1,4.62-6,58,58,0,0,1,6.73-6.49,70.9,70.9,0,0,1-9.56-7.11c-.35-.3-.67-.62-1-.93a71.67,71.67,0,0,0-5.9,5.92,73.56,73.56,0,0,0-5.11,6.52c.34.31.66.64,1,.94A88.65,88.65,0,0,0,1142,1473.19Z" transform="translate(-233.51)" fill="#313131"/><path d="M1159,1478.23c-.83.94-1.62,1.93-2.36,2.93a88.16,88.16,0,0,0,67.46.44,41.13,41.13,0,0,0-14.49-12.61,71.79,71.79,0,0,1-38.36-.27A41.74,41.74,0,0,0,1159,1478.23Z" transform="translate(-233.51)" fill="#313131"/><path d="M1215.26,1453.19a58,58,0,0,0,12.62-7.86,70.76,70.76,0,0,0-18-8,41.83,41.83,0,0,1-38.35-.26,71,71,0,0,0-18.1,7.72,58.08,58.08,0,0,0,12.46,8,58.46,58.46,0,0,1,49.37.34Z" transform="translate(-233.51)" fill="#313131"/><path d="M1159.75,1372.64a41.66,41.66,0,0,1,64.76,52.28,87.47,87.47,0,0,1,14.71,8,58.27,58.27,0,0,0-91.91-71.26,58.37,58.37,0,0,0-5.07,70.58,86.92,86.92,0,0,1,14.83-7.75A41.73,41.73,0,0,1,1159.75,1372.64Z" transform="translate(-233.51)" fill="#313131"/><path d="M1260.84,1453.49c-1.28,1.69-2.62,3.36-4,5a87.86,87.86,0,0,1-7.48,7.47,71.29,71.29,0,1,1-117.59-.81,88.43,88.43,0,0,1-11.38-12.57,87.88,87.88,0,0,0,69.76,141.16c1.82,0,3.66,0,5.49-.17a87.9,87.9,0,0,0,65.25-140.06Z" transform="translate(-233.51)" fill="#313131"/><path d="M1249.46,1440.93a69.65,69.65,0,0,1-11,12.44,71.83,71.83,0,0,1,10.87,12.57,87.86,87.86,0,0,0,7.48-7.47c1.43-1.62,2.77-3.29,4-5A88.11,88.11,0,0,0,1249.46,1440.93Z" transform="translate(-233.51)" fill="#313131"/><path d="M1131.72,1465.13a73.56,73.56,0,0,1,5.11-6.52,71.67,71.67,0,0,1,5.9-5.92,71.72,71.72,0,0,1-10.85-12.57,88.1,88.1,0,0,0-7.49,7.48c-1.43,1.6-2.76,3.27-4.05,5A88.43,88.43,0,0,0,1131.72,1465.13Z" transform="translate(-233.51)" fill="#313131"/><path d="M1163.36,1431.44a41.29,41.29,0,0,1-6.29-7,86.92,86.92,0,0,0-14.83,7.75,58,58,0,0,0,10.11,11.68c.35.32.72.61,1.08.91a71,71,0,0,1,18.1-7.72A41.53,41.53,0,0,1,1163.36,1431.44Z" transform="translate(-233.51)" fill="#313131"/><path d="M1222.16,1427.84a41.32,41.32,0,0,1-12.28,9.5,70.76,70.76,0,0,1,18,8,57.87,57.87,0,0,0,11.34-12.44,87.47,87.47,0,0,0-14.71-8C1223.77,1425.92,1223,1426.9,1222.16,1427.84Z" transform="translate(-233.51)" fill="#313131"/><path d="M1231.8,1503.28a41.66,41.66,0,1,1-75.15-22.12,87.38,87.38,0,0,1-14.7-8,58.28,58.28,0,0,0,48.19,90.92c1.21,0,2.43,0,3.64-.11a58.3,58.3,0,0,0,45.18-90.14,87.05,87.05,0,0,1-14.85,7.74A41.43,41.43,0,0,1,1231.8,1503.28Z" transform="translate(-233.51)" fill="#313131"/><path d="M1217.82,1474.62a41.9,41.9,0,0,1,6.29,7,87.05,87.05,0,0,0,14.85-7.74,58.69,58.69,0,0,0-10.13-11.69c-.35-.31-.71-.59-1.07-.9a70.91,70.91,0,0,1-18.14,7.72A42.21,42.21,0,0,1,1217.82,1474.62Z" transform="translate(-233.51)" fill="#313131"/><path d="M1159,1478.23a41.74,41.74,0,0,1,12.25-9.51,70.51,70.51,0,0,1-18-8,58,58,0,0,0-6.73,6.49,57,57,0,0,0-4.62,6,87.38,87.38,0,0,0,14.7,8C1157.39,1480.16,1158.18,1479.17,1159,1478.23Z" transform="translate(-233.51)" fill="#313131"/><path d="M1215.26,1453.19a58.46,58.46,0,0,0-49.37-.34,58.45,58.45,0,0,0,49.37.34Z" transform="translate(-233.51)" fill="#313131"/><path d="M1678.41,1762.39a87.49,87.49,0,0,1-58.18-22h0a88,88,0,1,1,58.18,22Zm-47.17-34.46a71.27,71.27,0,1,0-6.17-100.61,71.36,71.36,0,0,0,6.17,100.61Z" transform="translate(-233.51)" fill="#313131"/><path d="M1678.43,1732.79a58,58,0,0,1-38.58-14.6h0a58.34,58.34,0,1,1,38.58,14.6Zm-27.57-27a41.68,41.68,0,1,0-14-28.66,41.33,41.33,0,0,0,14,28.66Z" transform="translate(-233.51)" fill="#313131"/><path d="M1632.57,1934.33a87.85,87.85,0,1,1,65.88-29.62A87.53,87.53,0,0,1,1632.57,1934.33Zm.14-159.12c-1.48,0-3,0-4.45.14a71,71,0,1,0,4.45-.14Z" transform="translate(-233.51)" fill="#313131"/><path d="M1632.54,1904.77a58.7,58.7,0,1,1,3.64-.12C1635,1904.73,1633.75,1904.77,1632.54,1904.77Zm.13-100c-.86,0-1.73,0-2.6.08a41.66,41.66,0,0,0-25,72.79h0a41.66,41.66,0,1,0,27.65-72.87Z" transform="translate(-233.51)" fill="#313131"/><path d="M707.27,57.06a12.59,12.59,0,0,1,2.4.22s14,1.95,24.51,4.25,12,15.9,12,15.9S856.09,1538.11,868.8,1753.24,700.42,1978,700.42,1978a147.87,147.87,0,0,1-21.35,1.32c-48.5,0-164.75-17.9-190.77-185.34C455.2,1581,253.57,130.14,253.57,130.14s-1.45-13.59,8.38-18.08S285,102.72,285,102.72a12.46,12.46,0,0,1,4.56-1c2.73,0,5.78,1.27,6.36,6.69.73,6.79-6.07,7.52-19.29,12.37,0,0-9.83,4.49-6.78,23.09L313.4,448.46,350.29,472S512.34,1633.31,535.5,1785.47c14.27,93.78,71.5,125.52,113.32,136.08a130.84,130.84,0,0,0,90.09-9.64c38.64-19.17,87.86-62.3,82-157C811.31,1601.32,724,432,724,432l31.06-30.81L733.19,94.32c-1-18.83-11.51-21.14-11.51-21.14-13.95-1.94-20.74-1.22-21.47-8-.75-7,4-8.11,7.06-8.11m0-20h0c-8.17,0-15.44,3.08-20.46,8.67S679.49,59,680.38,67.29a25.63,25.63,0,0,0,16.4,21.64c4.88,2,9.88,2.53,15.66,3.2l.48.05a23.94,23.94,0,0,1,.35,3.14v.21l0,.21,21.22,297.75L710,417.86l-6.53,6.48.69,9.17C705,445.2,791.52,1604.44,801,1756.17c2.36,37.88-4.73,69.72-21.06,94.63-11.93,18.2-28.7,32.75-49.86,43.24a110.79,110.79,0,0,1-76.35,8.17c-22.9-5.78-42.38-16.45-57.88-31.71-21.24-20.89-34.9-50.51-40.61-88C532.34,1632.17,371.66,480.86,370,469.25l-1.27-9.1L361,455.2l-29.17-18.62L289.6,141.07l0-.2,0-.21a23.67,23.67,0,0,1-.32-3.14l.46-.16c5.51-1.87,10.27-3.49,14.63-6.43a25.64,25.64,0,0,0,11.45-24.63c-1.54-14.43-12.31-24.51-26.19-24.51a32.14,32.14,0,0,0-11.89,2.38c-2.52.93-14.54,5.43-24,9.75-15.82,7.22-21.4,24.46-19.92,38.34l0,.31,0,.31c2,14.51,202,1453.47,234.77,1664.14,12.15,78.18,44.33,135,95.66,169,41.44,27.43,85.31,33.19,114.82,33.19a173.55,173.55,0,0,0,23.47-1.42c10-.73,81.92-8,134-66.25,39.08-43.72,56.64-104.11,52.18-179.5C876.14,1539.24,767.18,90.54,766.08,75.93l0-.31,0-.31c-1.48-13.88-10.59-29.55-27.58-33.26-10.17-2.22-22.88-4.07-25.53-4.45a32,32,0,0,0-5.64-.49Z" transform="translate(-233.51)" fill="#313131"/></svg>