<svg xmlns="http://www.w3.org/2000/svg" width="338.5" height="72.777" viewBox="0 0 338.5 72.777">
    <text id="NOW_AVAILABLE" data-name="NOW AVAILABLE" transform="translate(0 16.498)" fill="#313131" font-size="11" font-family="Montserrat-Medium, Montserrat" font-weight="500" letter-spacing="0.08em"><tspan x="0" y="0">NOW AVAILABLE</tspan></text>
    <line id="Line_203" data-name="Line 203" x2="338.5" transform="translate(0 0.5)" fill="none" stroke="#313131" stroke-width="1"/>
    <path id="Path_4322" data-name="Path 4322" d="M-313.691,273.477q0-6.219,2.575-8.675t9.12-2.454h4.125q6,0,8.849,2.04t2.847,6.362v1.375h-3.709v-.393q0-3.362-1.7-4.681t-6.5-1.32h-2.858a21.753,21.753,0,0,0-4.8.37,6.1,6.1,0,0,0-2.488,1.244,4.317,4.317,0,0,0-1.32,2.161,20.7,20.7,0,0,0-.382,4.866v9.252a20.556,20.556,0,0,0,.382,4.845,4.312,4.312,0,0,0,1.32,2.159,6.087,6.087,0,0,0,2.444,1.244,21.651,21.651,0,0,0,4.845.372h2.858a20.148,20.148,0,0,0,4.387-.328,5.52,5.52,0,0,0,2.226-1.113,3.986,3.986,0,0,0,1.233-2.028,18.466,18.466,0,0,0,.361-4.408v-2.007H-298.9v-3.3h12.722V284.5q0,6.24-2.575,8.685t-9.121,2.444H-302q-6.544,0-9.12-2.444t-2.575-8.685Zm34.041,21.756V262.74h5.914l11.129,28.958,11.02-28.958h5.957v32.493h-3.579V265.774l-11.216,29.458h-4.429l-11.217-29.458v29.458Zm41.874,0V262.74h5.914l11.129,28.958,11.02-28.958h5.957v32.493h-3.579V265.774l-11.216,29.458h-4.429L-234.2,265.774v29.458Zm41.874,0V262.74h3.578v13.77h2.772l13.18-13.77h4.735l-14.969,15.515,16.89,16.977h-4.911L-189.551,280h-2.772v15.232Zm27.938-16.453V262.544h7.611q3.216,0,4.6,1.259a5.38,5.38,0,0,1,1.385,4.149v1.068a5.4,5.4,0,0,1-1.39,4.165q-1.39,1.266-4.6,1.265h-3.261v4.329Zm4.35-7.949h3.031a1.93,1.93,0,0,0,1.417-.382,2.384,2.384,0,0,0,.349-1.537v-.938a1.816,1.816,0,0,0-.442-1.379,2.193,2.193,0,0,0-1.5-.409h-2.857Zm11.71,7.949V262.544h6.542q3.751,0,5.146.986a3.951,3.951,0,0,1,1.4,3.463V268.3a3.85,3.85,0,0,1-.8,2.578,3.543,3.543,0,0,1-2.355,1.128,4.07,4.07,0,0,1,2.4,1.09,3.325,3.325,0,0,1,.752,2.334v3.347h-4.449v-2.923a1.965,1.965,0,0,0-.4-1.423,2.129,2.129,0,0,0-1.476-.387h-2.41v4.733Zm4.35-8.4h2.431a2.151,2.151,0,0,0,1.483-.382,1.95,1.95,0,0,0,.393-1.406v-.623a1.974,1.974,0,0,0-.4-1.423,2.137,2.137,0,0,0-1.478-.386h-2.431Zm11.155-1.407q0-3.7,1.382-5.161t4.829-1.466h2.133q3.455,0,4.843,1.472t1.39,5.156v3.37q0,3.685-1.39,5.157t-4.843,1.472h-2.133q-3.444,0-4.829-1.466t-1.382-5.163Zm4.447.361v2.671a4.578,4.578,0,0,0,.468,2.617,2.627,2.627,0,0,0,1.959.534h.806a2.626,2.626,0,0,0,1.969-.545,4.485,4.485,0,0,0,.479-2.606v-2.671a4.547,4.547,0,0,0-.479-2.623,2.613,2.613,0,0,0-1.969-.549h-.806a2.6,2.6,0,0,0-1.954.544A4.594,4.594,0,0,0-131.95,269.337Z" transform="translate(313.691 -222.849)" fill="#313131"/>
</svg>
