<svg xmlns="http://www.w3.org/2000/svg" width="248.608" height="97.997" viewBox="0 0 248.608 97.997">
  <g id="Group_3991" data-name="Group 3991" transform="translate(12945 5561.253)">
    <text id="NEW_RELEASE" data-name="NEW RELEASE" transform="translate(-12945 -5550.253)" fill="#f7f7f7" font-size="11" font-family="Montserrat-Medium, Montserrat" font-weight="500" letter-spacing="0.08em"><tspan x="0" y="0">NEW RELEASE</tspan></text>
    <g id="Group_3990" data-name="Group 3990" transform="translate(128.868 -793.762)">
      <g id="Group_3951" data-name="Group 3951" transform="translate(-13073.147 -4687.571)">
        <path id="Path_4193" data-name="Path 4193" d="M15.15,23.083h4.64l1.621,13.13,2.669-13.13h5.134l2.451,13.13,1.794-13.13h4.615L35.221,40.219H28.673L26.58,28.6,24.4,40.219H17.786Zm27.953,0h4.636V40.219H43.1ZM53.711,40.219V23.083h6.9q3.957,0,5.431,1.041a4.176,4.176,0,0,1,1.475,3.653v1.381a4.06,4.06,0,0,1-.84,2.722,3.739,3.739,0,0,1-2.488,1.192,4.287,4.287,0,0,1,2.532,1.151,3.5,3.5,0,0,1,.8,2.461v3.533h-4.7V37.135a2.069,2.069,0,0,0-.421-1.5,2.251,2.251,0,0,0-1.56-.409H58.3v4.994ZM58.3,31.358h2.567a2.277,2.277,0,0,0,1.566-.4,2.064,2.064,0,0,0,.413-1.485v-.657a2.086,2.086,0,0,0-.419-1.5,2.255,2.255,0,0,0-1.56-.409H58.3Zm14.682,8.861V23.083H85.86V26.9H77.575v2.97h8.043v3.3H77.575V36.4h8.47v3.82Zm18.6,0V23.083h4.636V36.238h7.667v3.981Zm16.729,0V23.083h12.878V26.9H112.9v2.97h8.043v3.3H112.9V36.4h8.47v3.82Zm17.79-5.3H130.5v.173a1.519,1.519,0,0,0,.5,1.3,3.053,3.053,0,0,0,1.749.368H133.9a2.791,2.791,0,0,0,1.469-.281,1.112,1.112,0,0,0,.419-1v-.747a1.056,1.056,0,0,0-.334-.877,3.425,3.425,0,0,0-1.505-.4l-3.729-.4a4.593,4.593,0,0,1-3.045-1.306,4.655,4.655,0,0,1-.96-3.192v-1.06a5.621,5.621,0,0,1,.38-2.134,3.778,3.778,0,0,1,1.1-1.538,3.626,3.626,0,0,1,1.507-.73,12.168,12.168,0,0,1,2.646-.212h2.75a6.369,6.369,0,0,1,3.924,1.035,3.532,3.532,0,0,1,1.359,2.99v1.176h-4.408v-.185a1.331,1.331,0,0,0-.362-1.07,2.118,2.118,0,0,0-1.308-.3h-1.058a3.035,3.035,0,0,0-1.5.258.972.972,0,0,0-.409.891v.714q0,.946,1.853,1.151l3.395.38a5.566,5.566,0,0,1,3.279,1.284,3.806,3.806,0,0,1,1.082,2.895v1.646a4.518,4.518,0,0,1-1.322,3.405,4.908,4.908,0,0,1-3.558,1.277h-3.739a7.283,7.283,0,0,1-4.369-1.035A3.869,3.869,0,0,1,126.1,36.1Zm18.685,0h4.408v.173a1.519,1.519,0,0,0,.494,1.3,3.051,3.051,0,0,0,1.751.368h1.149a2.791,2.791,0,0,0,1.469-.281,1.117,1.117,0,0,0,.419-1v-.747a1.058,1.058,0,0,0-.334-.877,3.449,3.449,0,0,0-1.509-.4l-3.729-.4a4.6,4.6,0,0,1-3.043-1.306,4.665,4.665,0,0,1-.96-3.192v-1.06a5.662,5.662,0,0,1,.378-2.134,3.815,3.815,0,0,1,1.107-1.538,3.627,3.627,0,0,1,1.507-.73,12.18,12.18,0,0,1,2.646-.212h2.752a6.367,6.367,0,0,1,3.922,1.035,3.527,3.527,0,0,1,1.359,2.99v1.176h-4.408v-.185a1.324,1.324,0,0,0-.362-1.07,2.111,2.111,0,0,0-1.306-.3h-1.058a3.044,3.044,0,0,0-1.5.258.972.972,0,0,0-.409.891v.714q0,.946,1.853,1.151l3.395.38a5.555,5.555,0,0,1,3.279,1.284,3.8,3.8,0,0,1,1.084,2.895v1.646a4.513,4.513,0,0,1-1.326,3.405,4.9,4.9,0,0,1-3.556,1.277h-3.741a7.269,7.269,0,0,1-4.365-1.035,3.87,3.87,0,0,1-1.365-3.291Z" transform="translate(15.667 -22.349)" fill="#f7f7f7"/>
        <path id="Path_4194" data-name="Path 4194" d="M4.282,29.818a.6.6,0,0,0-.118.889L7.01,33.976a.983.983,0,0,0,1.485,0l2.846-3.269a.6.6,0,0,0-.118-.889,6.077,6.077,0,0,0-6.94,0" transform="translate(4.155 -16.297)" fill="#f7f7f7"/>
        <path id="Path_4195" data-name="Path 4195" d="M2.166,29.176l1.987,2.282a.6.6,0,0,0,.81.085,8.03,8.03,0,0,1,9.709,0,.6.6,0,0,0,.812-.085l1.985-2.282a.6.6,0,0,0-.087-.869,12.251,12.251,0,0,0-15.128,0,.6.6,0,0,0-.087.869" transform="translate(2.089 -19.437)" fill="#f7f7f7"/>
        <path id="Path_4196" data-name="Path 4196" d="M.148,27.636l2.034,2.337a.6.6,0,0,0,.83.071,14.21,14.21,0,0,1,17.79,0,.6.6,0,0,0,.832-.071l2.034-2.337a.6.6,0,0,0-.073-.856,18.493,18.493,0,0,0-23.376,0,.6.6,0,0,0-.071.856" transform="translate(0 -22.618)" fill="#f7f7f7"/>
      </g>
      <path id="Path_4394" data-name="Path 4394" d="M-148.868-8.1V-47.355h7.145l13.445,34.984,13.314-34.984h7.2V-8.1h-4.324V-43.691L-125.642-8.1h-5.352l-13.551-35.591V-8.1Zm67.174-35.644H-84.12a26.218,26.218,0,0,0-5.853.448,7.354,7.354,0,0,0-2.953,1.5,5.371,5.371,0,0,0-1.635,2.7,24.62,24.62,0,0,0-.475,5.84v11.125a24.1,24.1,0,0,0,.475,5.787,5.366,5.366,0,0,0,1.635,2.676,7.354,7.354,0,0,0,2.953,1.5,26.218,26.218,0,0,0,5.853.448h2.425a26.6,26.6,0,0,0,5.879-.448,7.349,7.349,0,0,0,2.979-1.5,5.208,5.208,0,0,0,1.595-2.61,24.87,24.87,0,0,0,.461-5.853V-33.3a24.621,24.621,0,0,0-.475-5.84,5.371,5.371,0,0,0-1.635-2.7,7.182,7.182,0,0,0-2.926-1.463A27.166,27.166,0,0,0-81.694-43.743Zm-17.822,9.359q0-7.514,3.111-10.48t11.046-2.966H-80.4q8.015,0,11.086,2.926t3.071,10.519v13.314q0,7.54-3.124,10.493T-80.4-7.625h-4.956q-7.935,0-11.046-2.953t-3.111-10.493ZM-58.046-8.1V-47.355h18.955q7.382,0,10.361,2.926t2.979,10.2v12.944q0,7.3-2.992,10.242T-39.091-8.1Zm4.324-3.875H-39.8q5.668,0,7.593-1.925t1.925-7.329V-33.91q0-5.695-1.911-7.619T-39.8-43.453h-13.92ZM-17.552-8.1V-47.355H10v4.165H-13.228v12.839H9.339v4.007H-13.228v14.131H10V-8.1Zm34.51,0V-47.355h4.271v35.143H43.48V-8.1Zm50.486,0V-47.355H86.4q7.382,0,10.361,2.926t2.979,10.2v12.944q0,7.3-2.992,10.242T86.4-8.1Zm4.324-3.875h13.92q5.668,0,7.593-1.925t1.925-7.329V-33.91q0-5.695-1.911-7.619t-7.606-1.925H71.768Z" transform="translate(-12925 -4688)" fill="#f7f7f7"/>
    </g>
  </g>
</svg>
