<svg xmlns="http://www.w3.org/2000/svg" xmlns:xlink="http://www.w3.org/1999/xlink" width="150.872" height="40.36" viewBox="0 0 150.872 40.36"><defs><linearGradient id="a" x1="1" y1="0.363" x2="0" y2="0.909" gradientUnits="objectBoundingBox"><stop offset="0" stop-color="#c9d7e9"/><stop offset="0.637" stop-color="#8ed6e7"/><stop offset="1" stop-color="#e6d6d1"/></linearGradient><clipPath id="b"><path d="M65.21,16.16V13.33h4.93v7.95c0,2.68-1.32,4-4,4H64.38c-2.68,0-4-1.32-4-4V7.36c0-2.68,1.32-4,4-4H66.1c2.68,0,3.97,1.32,3.97,3.97v3.48H66.84V7.51c0-.86-.4-1.26-1.23-1.26h-.68a1.1,1.1,0,0,0-1.26,1.26V21.12a1.1,1.1,0,0,0,1.26,1.26h.74a1.1,1.1,0,0,0,1.26-1.26V16.16ZM76.84,3.53V22.1h3.63v2.99H73.54V3.53ZM88.18,25.28H86.42c-2.68,0-4-1.32-4-4V7.36c0-2.68,1.32-4,4-4h1.76c2.68,0,4,1.32,4,4V21.28C92.18,23.95,90.86,25.28,88.18,25.28ZM87.66,6.24h-.68A1.1,1.1,0,0,0,85.72,7.5V21.11a1.1,1.1,0,0,0,1.26,1.26h.68c.83,0,1.23-.4,1.23-1.26V7.5C88.89,6.64,88.49,6.24,87.66,6.24Zm17.43,11.52v7.33h-3.3V17.82c0-.96-.43-1.39-1.39-1.39H98.92v8.66h-3.3V3.53h5.42c2.68,0,4,1.32,4,4V11.6c0,1.91-.68,2.83-1.88,3.33C104.53,15.3,105.09,16.13,105.09,17.76Zm-4.56-11.3h-1.6v7.12h1.48c.92,0,1.36-.43,1.36-1.32V7.7A1.093,1.093,0,0,0,100.53,6.46Zm11.3,18.63h-3.3V3.53h3.3Zm9.18.19h-1.76c-2.68,0-4-1.32-4-4V7.36c0-2.68,1.32-4,4-4h1.76c2.68,0,4,1.32,4,4V21.28Q125.025,25.285,121.01,25.28Zm-.52-19.04h-.68a1.1,1.1,0,0,0-1.26,1.26V21.11a1.1,1.1,0,0,0,1.26,1.26h.68c.83,0,1.23-.4,1.23-1.26V7.5C121.72,6.64,121.32,6.24,120.49,6.24Zm17.56,15.03c0,2.68-1.32,4-4,4h-1.6c-2.68,0-4-1.32-4-4V3.53h3.3V21.12a1.1,1.1,0,0,0,1.26,1.26h.52c.83,0,1.23-.4,1.23-1.26V3.53h3.3Zm12.82-3.51v3.51c0,2.68-1.32,4-4,4h-1.45c-2.68,0-3.97-1.32-3.97-3.97V16.74h3.2v4.44c0,.83.4,1.23,1.26,1.23h.43c.86,0,1.26-.4,1.26-1.23V18.22a1.924,1.924,0,0,0-.92-1.76l-3.33-2.43a3.957,3.957,0,0,1-1.91-3.73V7.34c0-2.68,1.32-4,4-4h1.39q3.975,0,3.97,3.97v3.91h-3.23V7.43a1.079,1.079,0,0,0-1.23-1.23h-.4a1.079,1.079,0,0,0-1.23,1.23v2.4a1.893,1.893,0,0,0,.92,1.76l3.33,2.43A3.982,3.982,0,0,1,150.87,17.76ZM61.05,30.28h2.67c1.36,0,1.88.31,1.88,1.45v.96c0,1.16-.51,1.48-1.88,1.48H61.74v2.47h-.7Zm3.82,1.48c0-.72-.34-.8-1.15-.8H61.75V33.5h1.97c.78,0,1.15-.09,1.15-.8Zm4.59-1.56h.74c1.49,0,2.12.44,2.12,1.81v.28h-.73v-.18c0-1.02-.38-1.25-1.45-1.25h-.49a1.752,1.752,0,0,0-1.28.31c-.31.29-.31.72-.31,1.38v1.81c0,.66.01,1.09.31,1.38a1.7,1.7,0,0,0,1.28.31h.49c1.11,0,1.46-.24,1.46-1.34,0-.1,0-.2-.01-.31h.73v.42c0,1.46-.57,1.89-2.12,1.89h-.74c-1.58,0-2.12-.56-2.12-2.18V32.37C67.34,30.76,67.87,30.2,69.46,30.2Zm11.14,0h.8c1.54,0,2.29.5,2.29,1.64v.27h-.73v-.08c0-.96-.47-1.17-1.61-1.17H80.8a2.025,2.025,0,0,0-1.42.32c-.31.27-.33.69-.33,1.37v1.81c0,.68.02,1.1.33,1.37a2.015,2.015,0,0,0,1.42.31h.56a1.873,1.873,0,0,0,1.29-.28c.29-.24.31-.64.31-1.26v-.39H81.19v-.65h2.49v1.07c0,1.63-.59,2.18-2.29,2.18h-.8c-1.7,0-2.29-.54-2.29-2.18V32.37C78.31,30.75,78.91,30.2,80.6,30.2Zm7.13.08h1.15l2.36,6.35h-.73L89.91,35H86.7l-.59,1.63h-.73Zm1.96,4.1-1.27-3.43h-.23l-1.26,3.43Zm3.41-4.1h1.15l2.18,5.66,2.16-5.66h1.16v6.35h-.7V30.87l-2.19,5.76h-.87L93.8,30.87v5.76h-.7Zm9.08,0h.71v6.35h-.71Zm3.12,0h1.08l3.44,5.67V30.28h.7v6.35h-1.08L106,30.96v5.68h-.7Zm9.79-.08h.8c1.54,0,2.29.5,2.29,1.64v.27h-.73v-.08c0-.96-.47-1.17-1.61-1.17h-.56a2.039,2.039,0,0,0-1.42.32c-.32.27-.33.69-.33,1.37v1.81c0,.68.02,1.1.33,1.37a2.015,2.015,0,0,0,1.42.31h.56a1.873,1.873,0,0,0,1.29-.28c.29-.24.31-.64.31-1.26v-.39h-1.77v-.65h2.49v1.07c0,1.63-.59,2.18-2.29,2.18h-.8c-1.7,0-2.29-.54-2.29-2.18V32.37C112.8,30.75,113.4,30.2,115.09,30.2Zm9.42.08h2.87c1.36,0,1.88.31,1.88,1.45v.96c0,.66-.27,1.04-.82,1.14.63.15.82.51.82,1.28v1.53h-.73V35.33c0-.93-.24-1.16-1.06-1.16h-2.25v2.47h-.7Zm.7.68V33.5h2.03c.87,0,1.29-.1,1.29-.9v-.74c0-.81-.38-.9-1.29-.9Zm8.17-.68h1.15l2.36,6.35h-.73l-.6-1.63h-3.22l-.59,1.63h-.73Zm1.96,4.1-1.27-3.43h-.23l-1.26,3.43Zm5.21-4.18h.74c1.49,0,2.12.44,2.12,1.81v.28h-.73v-.18c0-1.02-.38-1.25-1.45-1.25h-.49a1.752,1.752,0,0,0-1.28.31c-.31.29-.31.72-.31,1.38v1.81c0,.66.01,1.09.31,1.38a1.7,1.7,0,0,0,1.28.31h.49c1.11,0,1.46-.24,1.46-1.34,0-.1,0-.2-.01-.31h.73v.42c0,1.46-.57,1.89-2.12,1.89h-.74c-1.58,0-2.12-.56-2.12-2.18V32.37C138.43,30.76,138.97,30.2,140.55,30.2Zm4.89.08h4.46v.67h-3.76v2.08h3.65v.65h-3.65v2.29h3.76v.66h-4.46ZM53.95,20.33l-.02-2.16a9.156,9.156,0,0,0,.83-4.63,10.888,10.888,0,0,0-.74-3.59,15.271,15.271,0,0,1-1.86,2.96c-1.2,1.49-3.22,2.38-6.17,2.38-4.14,0-9.82-1.83-13.19-5.93C29.09,4.86,22.13,0,15.62,0A9.986,9.986,0,0,0,8.21,3.02a5.052,5.052,0,0,0-2.2-.54A4.768,4.768,0,0,0,2.5,4.24c-1.73,1.9-1.64,4.2.26,7l-.68,1.71-.04.1a2.353,2.353,0,0,0,.39,2.17L3.5,16.45l-.27.65a2.355,2.355,0,0,0,.1,2.04l.37.69c-.61.08-2.56,1.2-3.7.67a5.91,5.91,0,0,0,.22,1.83,4.435,4.435,0,0,0,1.63,2.42,9.265,9.265,0,0,0-.78,6.36c1.77,6.84,6.36,7.18,7.26,7.18.16,0,.25-.01.25-.01l1.8-.19a13.9,13.9,0,0,0,7.13,2.27,7.23,7.23,0,0,0,3.92-.99l1.97-1.35-2.13-1.08a6.54,6.54,0,0,1-1.26-.81,6.579,6.579,0,0,0,1.32.14,4.829,4.829,0,0,0,2.44-.58L26,34.35,23.66,33.2a2.418,2.418,0,0,1-1.29-1.75,5.626,5.626,0,0,1-.04-2.16,16.342,16.342,0,0,0,10.3,3.7c.24,0,1.79-.09,2.04-.1l-1.13-1.08a25.077,25.077,0,0,0,5.49.63c8.28,0,11.62-3.73,12.82-4.7a6.285,6.285,0,0,0,1.73-2.63l-2.21.21a6.881,6.881,0,0,0,.82-.7A5.833,5.833,0,0,0,53.95,20.33ZM30.93,29.64a5.775,5.775,0,0,0,2.38,1.95,15.026,15.026,0,0,1-11.53-4.75c-1.01,1.33-1.87,6.12,1.28,7.66,0,0-2.31,1.38-5.77-1.17,0,0-.52,2.93,3.36,4.9,0,0-4.83,3.3-13.12-3.99a3.815,3.815,0,0,0,.94,2.66s-4.34.37-6.02-6.12a8.516,8.516,0,0,1,1.49-6.74,2.479,2.479,0,0,1-2.31-1.92c1.17.25,2.5-1.3,4.15-1.43l-1.19-2.2a.967.967,0,0,1-.04-.83l.49-1.19a.466.466,0,0,0-.08-.49L3.49,14.3a.979.979,0,0,1-.11-.82l.97-2.43C2.02,7.96,2.48,6.36,3.54,5.19s2.52-2.06,4.97-.35c5.64-7.41,17.52-1.48,23.2,5.43,5.75,6.99,18.34,8.55,21.64,3.41.56,5.77-5.15,8.86-11.03,8.37-4.72-.39-8.19-3.46-12.17-6.85-5-4.26-10.97-11.96-18.41-6.95a5.9,5.9,0,0,0-2.34,2.9l.07-.11a8.493,8.493,0,0,1,7.49-3.8c3.51.32,7.68,3.6,13.94,11.53,6.78,8.58,14.72,8.34,19.94,8.02C50.83,26.8,43.98,34.03,30.93,29.64Zm5.85-7.74c7.34,3.16,12.52,1.88,15.75-1.56C52.58,25.8,43.88,27.99,36.78,21.9Zm-1.49,5.39c-6.56-.82-9.44-6.81-10.96-10.5C27.24,21.02,32.28,26.44,35.29,27.29ZM9.16,24.19a6.264,6.264,0,0,0,2.58.86,3.534,3.534,0,0,1-4.52-.18C8.47,24.46,9.16,24.19,9.16,24.19Zm10.31-7.5a3.384,3.384,0,0,0-.41-4.86c-1.79-1.6-5.4-1.92-10.13.33a.806.806,0,0,1-.61.03,1.862,1.862,0,0,1-1.2-1.37,19.235,19.235,0,0,0-.88,3.49,1.086,1.086,0,0,0,.41.99l1.59,1.24a.8.8,0,0,1,.28.85,18.9,18.9,0,0,0-.6,3.44,1.038,1.038,0,0,0,.62,1.03l.14.06a1.265,1.265,0,0,0,1.18-.08,5.31,5.31,0,0,1,3.96-.71,3.305,3.305,0,0,1,.45.12,9.144,9.144,0,0,1,1.61.79,4.5,4.5,0,0,0,5.25-.61,2.665,2.665,0,0,0,.86-2.08C21.85,17.29,19.47,16.69,19.47,16.69Zm-2.55-.24a.839.839,0,0,1-.91.22l-1.69-.62a1.048,1.048,0,0,1,.07.36,1.031,1.031,0,0,1-2,.35l-1.41.63a.486.486,0,0,1-.64-.23l-.56-1.12a.78.78,0,0,1,.09-.84l.5.94a.31.31,0,0,0,.41.13l3.19-1.63a.959.959,0,0,1,.76-.05l2.91,1.06Z" transform="translate(13.002 15)" fill="url(#a)"/></clipPath><linearGradient id="c" x1="1" y1="1" x2="0" y2="1" gradientUnits="objectBoundingBox"><stop offset="0" stop-color="#c9d7e9"/><stop offset="0.393" stop-color="#8ed6e7"/><stop offset="1" stop-color="#e6d6d1"/></linearGradient></defs><g transform="translate(-13 -15)" clip-path="url(#b)"><rect width="387" height="50" transform="translate(5 10)" fill="url(#c)"/></g></svg>