<svg xmlns="http://www.w3.org/2000/svg" width="61.062" height="45" viewBox="0 0 61.062 45">
  <path id="Path_98" data-name="Path 98" d="M60.153,22.667l-.022-2.408a10.208,10.208,0,0,0,.925-5.162,12.14,12.14,0,0,0-.825-4,17.026,17.026,0,0,1-2.074,3.3c-1.338,1.661-3.59,2.654-6.879,2.654-4.616,0-10.949-2.04-14.706-6.612C32.435,5.419,24.674,0,17.416,0A11.134,11.134,0,0,0,9.154,3.367a5.633,5.633,0,0,0-2.453-.6A5.317,5.317,0,0,0,2.788,4.727c-1.929,2.118-1.829,4.683.29,7.8l-.758,1.907-.045.111A2.623,2.623,0,0,0,2.71,16.97L3.9,18.341l-.3.725a2.626,2.626,0,0,0,.111,2.275l.413.769c-.68.089-2.854,1.338-4.125.747A6.589,6.589,0,0,0,.246,24.9a4.945,4.945,0,0,0,1.817,2.7,10.331,10.331,0,0,0-.87,7.091c1.973,7.626,7.091,8.005,8.095,8.005.178,0,.279-.011.279-.011l2.007-.212A15.494,15.494,0,0,0,19.523,45a8.062,8.062,0,0,0,4.371-1.1l2.2-1.505-2.375-1.2a7.292,7.292,0,0,1-1.4-.9,7.336,7.336,0,0,0,1.472.156,5.384,5.384,0,0,0,2.721-.647L28.989,38.3,26.38,37.017a2.7,2.7,0,0,1-1.438-1.951,6.273,6.273,0,0,1-.045-2.408,18.221,18.221,0,0,0,11.484,4.125c.268,0,2-.1,2.275-.111l-1.26-1.2a27.96,27.96,0,0,0,6.121.7c9.232,0,12.956-4.159,14.294-5.24A7.008,7.008,0,0,0,59.74,28l-2.464.234a7.672,7.672,0,0,0,.914-.78A6.5,6.5,0,0,0,60.153,22.667ZM34.486,33.048a6.439,6.439,0,0,0,2.654,2.174,16.754,16.754,0,0,1-12.856-5.3c-1.126,1.483-2.085,6.824,1.427,8.541,0,0-2.576,1.539-6.433-1.3,0,0-.58,3.267,3.746,5.463,0,0-5.385,3.679-14.628-4.449,0,0-.234,1.126,1.048,2.966,0,0-4.839.413-6.712-6.824C1.684,30.271,4.393,26.8,4.393,26.8a2.764,2.764,0,0,1-2.576-2.141c1.3.279,2.787-1.449,4.627-1.594L5.118,20.616a1.078,1.078,0,0,1-.045-.925l.546-1.327a.52.52,0,0,0-.089-.546L3.891,15.944a1.091,1.091,0,0,1-.123-.914L4.85,12.32c-2.6-3.445-2.085-5.229-.9-6.534s2.81-2.3,5.541-.39c6.288-8.262,19.534-1.65,25.867,6.054,6.411,7.794,20.448,9.533,24.128,3.8.624,6.433-5.742,9.879-12.3,9.332-5.263-.435-9.132-3.858-13.569-7.638C28.042,12.2,21.385,3.612,13.09,9.2a6.575,6.575,0,0,0-2.609,3.233l.078-.123A9.47,9.47,0,0,1,18.91,8.072c3.914.357,8.563,4.014,15.543,12.856,7.559,9.566,16.412,9.3,22.232,8.942C56.674,29.881,49.036,37.942,34.486,33.048Zm6.523-8.63c8.184,3.523,13.959,2.1,17.561-1.739C58.625,28.766,48.925,31.208,41.009,24.418Zm-1.661,6.01c-7.314-.914-10.525-7.593-12.22-11.707C30.372,23.437,35.991,29.48,39.347,30.427ZM10.213,26.971a6.984,6.984,0,0,0,2.877.959,3.94,3.94,0,0,1-5.04-.2C9.444,27.272,10.213,26.971,10.213,26.971Zm11.5-8.362a3.773,3.773,0,0,0-.457-5.419c-2-1.784-6.021-2.141-11.295.368a.9.9,0,0,1-.68.033,2.077,2.077,0,0,1-1.338-1.528,21.447,21.447,0,0,0-.981,3.891,1.211,1.211,0,0,0,.457,1.1l1.773,1.383a.888.888,0,0,1,.312.948,21.073,21.073,0,0,0-.669,3.835,1.158,1.158,0,0,0,.691,1.148l.156.067a1.411,1.411,0,0,0,1.316-.089,5.92,5.92,0,0,1,4.415-.792,3.685,3.685,0,0,1,.5.134,10.2,10.2,0,0,1,1.8.881,5.015,5.015,0,0,0,5.854-.68,2.972,2.972,0,0,0,.959-2.319C24.362,19.278,21.709,18.609,21.709,18.609Zm-2.843-.268a.935.935,0,0,1-1.015.245L15.967,17.9a1.169,1.169,0,0,1,.078.4,1.149,1.149,0,0,1-2.23.39l-1.572.7a.542.542,0,0,1-.714-.256L10.9,17.884a.87.87,0,0,1,.1-.937L11.562,18a.346.346,0,0,0,.457.145l3.557-1.817a1.07,1.07,0,0,1,.847-.056l3.245,1.182Z" transform="translate(0.002)" fill="#eaeae4"/>
</svg>
